<svg xmlns="http://www.w3.org/2000/svg" xmlns:xlink="http://www.w3.org/1999/xlink" width="109.55" height="108.76" viewBox="0 0 109.55 108.76"><defs><style>.cls-1,.cls-3,.cls-5,.cls-6{fill:none;}.cls-2{fill:#f6f6f6;}.cls-3,.cls-5,.cls-6{stroke:#f6f6f6;stroke-linecap:round;}.cls-3{stroke-miterlimit:10;}.cls-3,.cls-6{stroke-width:6px;}.cls-4{clip-path:url(#clip-path);}.cls-5,.cls-6{stroke-linejoin:round;}.cls-5{stroke-width:3px;}</style><clipPath id="clip-path" transform="translate(0.15)"><circle class="cls-1" cx="55.02" cy="54.38" r="54.37"/></clipPath></defs><g id="Layer_2" data-name="Layer 2"><g id="Layer_1-2" data-name="Layer 1"><g id="Layer_2-2" data-name="Layer 2"><g id="Layer_1-2-2" data-name="Layer 1-2"><path class="cls-2" d="M55,3A51.38,51.38,0,1,1,3.65,54.42v0A51.44,51.44,0,0,1,55,3m0-3a54.38,54.38,0,1,0,54.38,54.38A54.38,54.38,0,0,0,55,0Z" transform="translate(0.15)"/><path class="cls-3" d="M53.37,105.45a51.08,51.08,0,0,1,0-102.15" transform="translate(0.15)"/></g><g id="Layer_2-2-2" data-name="Layer 2-2"><g class="cls-4"><line class="cls-5" x1="60.38" y1="62.71" x2="93.04" y2="91.52"/><polyline class="cls-6" points="3 53.42 31.55 35.81 60.38 62.71"/><polyline class="cls-6" points="60.38 62.71 86.04 43.88 106.55 61.83"/></g></g></g></g></g></svg>