<svg xmlns="http://www.w3.org/2000/svg" width="744.388" height="685.672" viewBox="0 0 744.388 685.672">
  <defs>
    <style>
      .cls-1 {
        fill: #e6e6e6;
      }

      .cls-2 {
        fill: #ccc;
      }

      .cls-3 {
        fill: #3f3d56;
      }

      .cls-4 {
        fill: #f7ba34;
      }

      .cls-5 {
        fill: #f2f2f2;
      }

      .cls-6 {
        fill: #fff;
      }

      .cls-7 {
        fill: #ffb8b8;
      }

      .cls-8 {
        fill: #2f2e41;
      }
    </style>
  </defs>
  <g id="contact" transform="translate(0 -0.001)">
    <path id="Path_263" data-name="Path 263" class="cls-1" d="M611.458,535.075c-.133,0-.217,0-.246-.005l-15.917,0v-2.347H611.27c.37.013,7.916.226,14.868-8.21,10.361-12.573,18.869-43.7.565-120.573-24.612-103.371-4.085-194.693,5.883-229.158a11.444,11.444,0,0,0-11.01-14.611h-237.7a11.5,11.5,0,0,0-9.269,4.718c-4.223,5.809-10.017,16.967-13.644,37.144l-2.31-.415c3.7-20.615,9.688-32.1,14.055-38.109a13.847,13.847,0,0,1,11.168-5.685h237.7a13.791,13.791,0,0,1,13.264,17.609c-9.917,34.286-30.338,125.136-5.855,227.964,18.561,77.957,9.638,109.756-1.116,122.7C620.778,534.642,612.962,535.075,611.458,535.075Z" transform="translate(-269.655 -157.825)"/>
    <path id="Path_264" data-name="Path 264" class="cls-2" d="M574.958,571.575c-.133,0-.217,0-.246-.005l-15.917,0v-2.347H574.77c.372.011,7.916.226,14.868-8.21,10.361-12.573,18.869-43.7.565-120.573-24.612-103.371-4.085-194.693,5.883-229.158a11.443,11.443,0,0,0-11.01-14.611h-237.7a11.5,11.5,0,0,0-9.269,4.718c-4.223,5.809-10.017,16.967-13.643,37.144l-2.31-.415c3.7-20.615,9.688-32.1,14.055-38.109a13.847,13.847,0,0,1,11.168-5.685h237.7a13.791,13.791,0,0,1,13.264,17.609C588.424,246.222,568,337.071,592.486,439.9c18.561,77.957,9.638,109.756-1.116,122.7C584.278,571.142,576.462,571.575,574.958,571.575Z" transform="translate(-275.984 -151.496)"/>
    <path id="Path_265" data-name="Path 265" class="cls-3" d="M538.951,608.075c-.133,0-.217,0-.246-.005l-234.037,0a13.787,13.787,0,0,1-12.823-18.894c8.492-21.216,19.925-72.116,1.093-174.647C270.7,293.46,290.609,249.7,300.2,236.511a13.848,13.848,0,0,1,11.168-5.685h237.7a13.791,13.791,0,0,1,13.265,17.609C552.417,282.721,532,373.571,556.479,476.4c18.561,77.957,9.638,109.756-1.115,122.7C548.271,607.642,540.455,608.075,538.951,608.075Zm-227.582-374.9a11.5,11.5,0,0,0-9.27,4.718c-9.414,12.948-28.926,56.038-6.853,176.216,17.99,97.948,9.265,149.742-1.223,175.944a11.25,11.25,0,0,0,1.147,10.636,11.456,11.456,0,0,0,9.5,5.039H538.763c.37.018,7.916.227,14.868-8.21,10.361-12.573,18.869-43.7.565-120.573-24.612-103.371-4.085-194.693,5.883-229.158a11.443,11.443,0,0,0-11.01-14.611Z" transform="translate(-282.806 -145.167)"/>
    <path id="Path_266" data-name="Path 266" class="cls-4" d="M504.224,323.6H317.654a9.387,9.387,0,1,1,0-18.774h186.57a9.387,9.387,0,1,1,0,18.774Z" transform="translate(-278.391 -132.336)"/>
    <path id="Path_267" data-name="Path 267" class="cls-2" d="M504.224,357.6H317.654a9.387,9.387,0,0,1,0-18.774h186.57a9.387,9.387,0,1,1,0,18.774Z" transform="translate(-278.391 -126.441)"/>
    <path id="Path_268" data-name="Path 268" class="cls-2" d="M504.224,391.6H317.654a9.387,9.387,0,0,1,0-18.774h186.57a9.387,9.387,0,1,1,0,18.774Z" transform="translate(-278.391 -120.545)"/>
    <path id="Path_269" data-name="Path 269" class="cls-2" d="M516.224,425.6H329.654a9.387,9.387,0,0,1,0-18.774h186.57a9.387,9.387,0,1,1,0,18.774Z" transform="translate(-276.311 -114.65)"/>
    <path id="Path_270" data-name="Path 270" class="cls-2" d="M516.224,459.6H329.654a9.387,9.387,0,0,1,0-18.774h186.57a9.387,9.387,0,1,1,0,18.774Z" transform="translate(-276.311 -108.754)"/>
    <path id="Path_271" data-name="Path 271" class="cls-4" d="M405.659,289.6h-88a9.387,9.387,0,1,1,0-18.774h88a9.387,9.387,0,1,1,0,18.774Z" transform="translate(-278.391 -138.232)"/>
    <path id="Path_272" data-name="Path 272" class="cls-3" d="M382.093,516.029c1.894-8.02,10.793-10.649,18.068-10.355a77.126,77.126,0,0,1,13.624,2.156c4.675,1.046,9.3,2.284,13.91,3.6,8.447,2.409,16.806,5.322,25.392,7.205,7.148,1.568,14.915,2.487,22.043.323,6.852-2.081,12.665-7.188,14.529-14.25,1.757-6.655-.655-13.932-7.1-16.973-5.881-2.773-13.309-1.363-16.224,4.909-3.286,7.072,0,14.784,5.2,19.9a58.286,58.286,0,0,0,9.666,7.342,35.995,35.995,0,0,0,11.574,5.184c6.788,1.45,14.874-.687,18.375-7.172a12.121,12.121,0,0,0,1.375-4.737c.207-2.255-3.314-2.241-3.52,0-.593,6.458-8.156,9.482-13.811,8.774a28.073,28.073,0,0,1-10.708-4.156,62.745,62.745,0,0,1-8.869-6.258c-4.8-4.151-9.293-10.982-6.072-17.459,2.623-5.274,9.461-5.222,13.62-1.82,5.037,4.119,4.139,11.6.817,16.488-3.678,5.417-10.346,7.687-16.632,7.932-6.83.266-13.6-1.3-20.132-3.155-8.111-2.3-16.142-4.881-24.292-7.05-4.627-1.231-9.29-2.342-14-3.207a46.2,46.2,0,0,0-13.576-.94c-7.345.848-14.843,5.124-16.652,12.783C378.178,517.3,381.571,518.236,382.093,516.029Z" transform="translate(-266.188 -100.856)"/>
    <path id="Path_273" data-name="Path 273" class="cls-5" d="M688.087,697.648a537.462,537.462,0,0,0,5.067,69.06c.111.8.232,1.607.343,2.411l216.376-1.209c.635-.8,1.261-1.606,1.867-2.423,2.02-2.705,3.913-5.488,5.651-8.366,8.354-13.866,12.179-30.1,8.346-41.3l-.069-.174a19.656,19.656,0,0,0-3.836-6.666c-8.738-9.836-26.406-8.2-42.439-.257,14.38-15.741,25.831-35.6,26.7-53.334.853-17.294-8.19-29.648-18-40.147-.322-.347-.644-.685-.965-1.022-.156-.174-.322-.337-.478-.511-7.652-8-16.574-15.888-29.487-14.934-14.162,1.048-29.864,12.911-40.873,26.734s-18.325,29.505-25.741,44.82-15.458,31-27.373,44.083c16.138-20.413,29.149-43.637,33.956-66.225s.576-44.282-13.806-54.92a33.641,33.641,0,0,0-14.735-5.946c-.62-.1-1.251-.187-1.891-.261-13.314-1.515-29.211,3.09-42.737,14.1-14.9,12.12-25.222,30.087-30.362,47.143S687.92,681.776,688.087,697.648Z" transform="translate(-212.537 -83.447)"/>
    <path id="Path_274" data-name="Path 274" class="cls-6" d="M808.729,749.307l4.138-.023q1.971-1.232,3.96-2.435c.821-.518,1.651-1.017,2.482-1.526q20.586-12.573,41.43-24.12,20.825-11.557,41.859-22.049a1.734,1.734,0,0,0,1-1.983.5.5,0,0,0-.069-.145c-.2-.367-.633-.52-1.271-.206-1.72.862-3.45,1.725-5.17,2.607q-21.092,10.671-42,22.408t-41.554,24.5c-.29.176-.58.362-.869.538C811.347,747.684,810.043,748.5,808.729,749.307Z" transform="translate(-191.614 -64.395)"/>
    <path id="Path_275" data-name="Path 275" class="cls-6" d="M763.264,764.6l2.559-.014c.577-.808,1.144-1.615,1.721-2.423q20.337-28.518,40.665-57.037,33.29-46.689,66.56-93.378a1.646,1.646,0,0,0,.288-.564c.19-.689-.317-1.093-.965-1.022a1.944,1.944,0,0,0-1.352.86q-18.664,26.183-37.319,52.347-33.117,46.456-66.224,92.9c-1.4,1.965-2.808,3.941-4.212,5.906C764.409,762.988,763.832,763.8,763.264,764.6Z" transform="translate(-199.497 -79.393)"/>
    <path id="Path_276" data-name="Path 276" class="cls-6" d="M714.7,753.823c.131,4.312.416,8.555.789,12.759q.108,1.206.217,2.412l2.684-.015c-.082-.8-.164-1.608-.236-2.412-.567-6.073-.97-12.215-1.024-18.524a258.414,258.414,0,0,1,5.087-52.089,324.313,324.313,0,0,1,15.756-54.116A371.647,371.647,0,0,1,763.752,588.3a1.43,1.43,0,0,0,.237-.951c-.111-.765-1.129-.992-1.891-.261a2.221,2.221,0,0,0-.385.487q-1.858,3.194-3.647,6.407a371.4,371.4,0,0,0-24.674,53.73,322.776,322.776,0,0,0-14.689,54.2,254.95,254.95,0,0,0-4,51.918Z" transform="translate(-207.932 -83.471)"/>
    <path id="Path_277" data-name="Path 277" class="cls-3" d="M491.967,513.156a2.933,2.933,0,0,1,1.6-5.174,48.449,48.449,0,0,1,19,1.948l62.56,19.321a6.454,6.454,0,0,1-3.809,12.333l-62.56-19.321A48.452,48.452,0,0,1,491.967,513.156Z" transform="translate(-246.722 -97.149)"/>
    <path id="Path_278" data-name="Path 278" class="cls-7" d="M712.787,592.087a12.605,12.605,0,0,1-5.712-18.465l-10.723-56.079,27.33-2.131,1.65,54.853a12.674,12.674,0,0,1-12.545,21.822Z" transform="translate(-211.099 -95.821)"/>
    <path id="Path_279" data-name="Path 279" class="cls-4" d="M699.1,578.921,671.259,449.282a20.534,20.534,0,1,1,40.153-8.621L739.249,570.3a5.287,5.287,0,0,1-4.054,6.271l-29.828,6.4a5.278,5.278,0,0,1-6.271-4.054Z" transform="translate(-215.53 -111.597)"/>
    <path id="Path_280" data-name="Path 280" class="cls-7" d="M376.307,580.264H361.922l-6.844-55.488h21.233Z" transform="translate(61.569 90.994)"/>
    <path id="Path_281" data-name="Path 281" class="cls-8" d="M354.735,568.561h27.743v17.468H337.267a17.468,17.468,0,0,1,17.468-17.468Z" transform="translate(58.481 98.586)"/>
    <path id="Path_282" data-name="Path 282" class="cls-7" d="M417.307,579.264H402.922l-6.844-55.488h21.233Z" transform="translate(68.678 90.82)"/>
    <path id="Path_283" data-name="Path 283" class="cls-8" d="M395.735,567.561h27.743v17.468H378.267A17.468,17.468,0,0,1,395.735,567.561Z" transform="translate(65.59 98.412)"/>
    <path id="Path_284" data-name="Path 284" class="cls-8" d="M644.043,750.1a5.244,5.244,0,0,1-1.9-3.594L625.422,562.543a5.281,5.281,0,0,1,5.061-5.755l83.874-3.146a5.282,5.282,0,0,1,5.475,5.471l-6.7,183.257a5.29,5.29,0,0,1-4.8,5.065l-16.912,1.538a5.28,5.28,0,0,1-5.746-4.908l-7.762-116.421A1.685,1.685,0,0,0,676.153,626h-.007a1.686,1.686,0,0,0-1.751,1.656L667.45,744.864A5.256,5.256,0,0,1,662.7,749.8l-14.774,1.478a5.245,5.245,0,0,1-3.888-1.183Z" transform="translate(-223.402 -89.193)"/>
    <circle id="Ellipse_43" data-name="Ellipse 43" class="cls-7" cx="28.82" cy="28.82" r="28.82" transform="translate(424.084 228.109)"/>
    <path id="Path_285" data-name="Path 285" class="cls-4" d="M621.872,588.863a5.236,5.236,0,0,1-1.235-4.317c5.321-32.341,2.322-79.878-1.131-114.062a51.865,51.865,0,0,1,21.4-47.29l15.051-12.9a5.362,5.362,0,0,1,3.587-1.27l37.391,1.068a5.261,5.261,0,0,1,3.583,1.546l5.778,12.8.06.044A51.712,51.712,0,0,1,727.382,468.7l-5.5,113.745a5.309,5.309,0,0,1-5.1,5.022l-90.759,3.189-.175,0a5.268,5.268,0,0,1-3.971-1.8Z" transform="translate(-224.468 -114.269)"/>
    <path id="Path_286" data-name="Path 286" class="cls-7" d="M528.71,528.561a12.605,12.605,0,0,1,14.51-12.769L590,483.056l13.13,24.064-49.373,23.956a12.674,12.674,0,0,1-25.045-2.514Z" transform="translate(-240.168 -101.432)"/>
    <path id="Path_287" data-name="Path 287" class="cls-4" d="M565.587,543.9a5.249,5.249,0,0,1-3.456-2.095l-18.052-24.594a5.288,5.288,0,0,1,1.132-7.382L652.1,431.376a20.535,20.535,0,1,1,24.3,33.108l-106.89,78.456a5.243,5.243,0,0,1-3.113,1.024,5.384,5.384,0,0,1-.812-.061Z" transform="translate(-237.68 -111.083)"/>
    <path id="Path_288" data-name="Path 288" class="cls-8" d="M675.294,408.787c3.822-4.686,3.4-11.824.336-17.035s-8.275-8.8-13.633-11.6-11.05-5.008-16.092-8.346-4.823-17.469-6.165-23.365l3.2,1.067c-1.231-1.574-1.625-6.227-2.856-7.8,3.618.358,6.4,3.793,10.019,4.15l-2.088-5.6c12.408-.765,20.122,7.857,32.53,7.092,6.148-.379,12.824-.619,17.878,2.9,4.392,3.06,6.615,8.355,8.074,13.5,3.132,11.057,3.619,23.443-1.791,33.582s-17.879,16.972-28.772,13.31Z" transform="translate(-220.916 -126.202)"/>
    <path id="Path_289" data-name="Path 289" class="cls-3" d="M535.367,742.172H982.431a1.173,1.173,0,1,0,0-2.347H535.367a1.173,1.173,0,0,0,0,2.347Z" transform="translate(-239.217 -56.909)"/>
    <path id="Path_290" data-name="Path 290" class="cls-3" d="M538.951,608.075c-.133,0-.217,0-.246-.005l-234.037,0a13.787,13.787,0,0,1-12.823-18.894c8.492-21.216,19.925-72.116,1.093-174.647C270.7,293.46,290.609,249.7,300.2,236.511a13.848,13.848,0,0,1,11.168-5.685h237.7a13.791,13.791,0,0,1,13.265,17.609C552.417,282.721,532,373.571,556.479,476.4c18.561,77.957,9.638,109.756-1.115,122.7C548.271,607.642,540.455,608.075,538.951,608.075Zm-227.582-374.9a11.5,11.5,0,0,0-9.27,4.718c-9.414,12.948-28.926,56.038-6.853,176.216,17.99,97.948,9.265,149.742-1.223,175.944a11.25,11.25,0,0,0,1.147,10.636,11.456,11.456,0,0,0,9.5,5.039H538.763c.37.018,7.916.227,14.868-8.21,10.361-12.573,18.869-43.7.565-120.573-24.612-103.371-4.085-194.693,5.883-229.158a11.443,11.443,0,0,0-11.01-14.611Z" transform="translate(-282.806 -145.167)"/>
  </g>
</svg>
