<svg xmlns="http://www.w3.org/2000/svg" width="49.977" height="36.154" viewBox="0 0 49.977 36.154">
  <defs>
    <style>
      .cls-1 {
        fill: #406f66;
        stroke: #406f66;
      }
    </style>
  </defs>
  <g id="courses" transform="translate(0.5 0.5)">
    <g id="Group_5" data-name="Group 5">
      <path id="Path_200" data-name="Path 200" class="cls-1" d="M48.027,61.227H44.8v-1.1a.949.949,0,0,0-.684-.949,26.741,26.741,0,0,0-6.845-.873c-3.8,0-8.971.854-12.8,4.747-3.8-3.93-9.009-4.747-12.8-4.747a26.741,26.741,0,0,0-6.845.873.949.949,0,0,0-.684.949v1.092H.949A.949.949,0,0,0,0,62.167V92.489a.947.947,0,0,0,1.415.826c.095-.047,9.588-5.24,22.841-1.9h.228a.95.95,0,0,0,.228,0C38,88.046,47.5,93.23,47.553,93.315a.949.949,0,0,0,1.424-.816V62.177A.949.949,0,0,0,48.027,61.227ZM1.9,90.98V63.126H4.168v23.81a.949.949,0,0,0,1.092.949,41.546,41.546,0,0,1,5.933-.475A24.626,24.626,0,0,1,19.3,88.635,34.9,34.9,0,0,0,1.9,90.98Zm9.294-5.459a41.769,41.769,0,0,0-5.164.332V60.876a26.184,26.184,0,0,1,5.63-.627c3.551,0,8.449.816,11.848,4.652l.028,23.648C21.56,87.258,17.705,85.521,11.193,85.521ZM25.433,64.9c3.4-3.8,8.3-4.652,11.848-4.652a26.3,26.3,0,0,1,5.63.627V85.853a41.758,41.758,0,0,0-5.136-.342c-6.475,0-10.338,1.737-12.341,3.028ZM47.069,90.98a34.907,34.907,0,0,0-17.439-2.345,24.684,24.684,0,0,1,8.145-1.225,41.532,41.532,0,0,1,5.971.465.949.949,0,0,0,1.092-.949v-23.8h2.269Z" transform="translate(0 -58.303)"/>
    </g>
  </g>
</svg>
