<svg xmlns="http://www.w3.org/2000/svg" width="83.54" height="92.128" viewBox="0 0 83.54 92.128">
  <defs>
    <style>
      .cls-1 {
        fill: #477b72;
        stroke: #477b72;
        stroke-width: 3px;
      }
    </style>
  </defs>
  <g id="datathon" transform="translate(1.5 1.5)">
    <g id="Group_1" data-name="Group 1" transform="translate(0 0)">
      <path id="Path_50" data-name="Path 50" class="cls-1" d="M321.451,12.9H308.567L304.586.644c-.277-.859-.73-.859-1.016,0L299.589,12.9H286.7c-.905,0-1.044.434-.314.961l10.428,7.574-3.981,12.257c-.277.859.083,1.127.822.591l10.428-7.574,10.428,7.574c.73.536,1.1.268.822-.591l-3.981-12.257,10.428-7.574C322.5,13.326,322.357,12.9,321.451,12.9Z" transform="translate(-263.808 0)"/>
      <path id="Path_51" data-name="Path 51" class="cls-1" d="M125.642,415.038a1.384,1.384,0,0,0,1.385-1.385V387.264a1.384,1.384,0,0,0-1.385-1.385H111.723V366.593a1.384,1.384,0,0,0-1.385-1.385H88.143V360.46a1.385,1.385,0,0,0-2.771,0v4.747H63.177a1.384,1.384,0,0,0-1.385,1.385v19.276H47.872a1.384,1.384,0,0,0-1.385,1.385v26.4a1.385,1.385,0,0,0,2.771,0v-25H77.1v25a1.385,1.385,0,0,0,2.771,0V387.264a1.384,1.384,0,0,0-1.385-1.385H64.562v-17.9h44.389v17.891H95.033a1.384,1.384,0,0,0-1.385,1.385v26.4a1.385,1.385,0,0,0,2.771,0v-25h27.838v25A1.384,1.384,0,0,0,125.642,415.038Z" transform="translate(-46.487 -325.91)"/>
    </g>
  </g>
</svg>
