<svg xmlns="http://www.w3.org/2000/svg" width="97.769" height="89.057" viewBox="0 0 97.769 89.057">
  <defs>
    <style>
      .cls-1 {
        fill: #477b72;
      }
    </style>
  </defs>
  <path id="discuss" class="cls-1" d="M74.8,37.169c0,2.962-2.156,4.763-3.731,6.085-.6.5-1.706,1.414-1.7,1.756a2.387,2.387,0,0,1-2.4,2.408h-.02a2.393,2.393,0,0,1-2.423-2.368c-.021-2.625,1.895-4.2,3.434-5.49,1.208-1.014,2-1.728,2-2.381a2.4,2.4,0,0,0-4.8,0,2.424,2.424,0,0,1-4.848,0A7.246,7.246,0,0,1,74.8,37.169ZM67.011,49.655a2.379,2.379,0,0,0-2.37,2.424V52.1a2.371,2.371,0,0,0,2.37,2.415,2.429,2.429,0,0,0,0-4.858ZM18.151,66.54a2.424,2.424,0,0,0,0,4.848h.2a2.424,2.424,0,0,0,0-4.848Zm8.425,0a2.424,2.424,0,0,0,0,4.848h.2a2.424,2.424,0,0,0,0-4.848ZM97.769,27.823V55.107a11.653,11.653,0,0,1-11.64,11.7H54.693c-.615,0-1.121,0-1.544-.012-.444-.009-.943-.013-1.138.009-.2.135-.7.59-1.179,1.032-.19.175-.4.367-.637.579L41.3,76.523a2.481,2.481,0,0,1-4.133-1.79v-25.7H11.775a6.946,6.946,0,0,0-6.927,6.89V83.208a6.839,6.839,0,0,0,6.927,6.765H46.89a2.434,2.434,0,0,1,1.617.685l7.246,6.681V74.3a2.424,2.424,0,1,1,4.848,0v28.533a2.39,2.39,0,0,1-1.428,2.2,2.325,2.325,0,0,1-.96.193,2.45,2.45,0,0,1-1.635-.66L45.95,94.82H11.775A11.692,11.692,0,0,1,0,83.207V55.924A11.8,11.8,0,0,1,11.775,44.185H37.169V27.823A11.758,11.758,0,0,1,48.985,16.174H86.13A11.607,11.607,0,0,1,97.769,27.823Zm-4.848,0a6.754,6.754,0,0,0-6.792-6.8H48.985a6.905,6.905,0,0,0-6.968,6.8V69.238l4.874-4.4c.226-.206.479-.395.663-.565,2.226-2.051,2.795-2.379,5.7-2.319.4.008.868.011,1.442.011H86.129a6.8,6.8,0,0,0,6.792-6.854Z" transform="translate(0 -16.174)"/>
</svg>
