<svg xmlns="http://www.w3.org/2000/svg" width="1607.505" height="716.337" viewBox="0 0 1607.505 716.337">
  <g id="New_Text_Document" data-name="New Text Document" transform="translate(0 -7.672)">
    <path id="Path_1" data-name="Path 1" d="M733.769,351.206c0,188.644-164.259,341.571-366.884,341.571S0,539.85,0,351.206,164.26,9.633,366.885,9.633,733.769,162.56,733.769,351.206Z" transform="translate(0 31.231)" fill="#51af5b"/>
    <path id="Path_2" data-name="Path 2" d="M10.887,48.844c72.226-34.371,153.9-47.682,234.375-38.2s156.009,41.33,216.754,91.376S565.9,218,585.8,291.208A351.207,351.207,0,0,1,573.593,512.44L194.567,383.4Z" transform="translate(173.354 0)" fill="#44924c"/>
    <path id="Path_3" data-name="Path 3" d="M236.132,120.123q0,48.024-30.591,73.566Q175.1,219.229,117.48,219.23H56V24.739h68.163q53.162,0,82.566,25.143T236.132,120.123Zm-47.817,1.063q0-62.656-61.776-62.657h-24.5V185.175h19.751Q188.314,185.175,188.314,121.186Z" transform="translate(891.714 271.765)" fill="#333"/>
    <path id="Path_4" data-name="Path 4" d="M115.338,116.264h15.148q21.235,0,31.779-7.45,10.542-7.583,10.543-21.95,0-14.5-8.91-21.418-8.76-6.917-27.621-6.918H115.338ZM219.29,85.4q0,31.4-21.979,48.024-21.831,16.63-62.222,16.629H115.338V219.23H69.3V24.739h69.351q39.5,0,59.994,15.3Q219.29,55.2,219.29,85.4Z" transform="translate(1103.539 271.765)" fill="#333"/>
    <path id="Path_5" data-name="Path 5" d="M233.63,231H188.338V144.128q0-32.194-26.73-32.194-19.009,0-27.474,11.572t-8.464,37.516V231H80.377V24h45.294V66.172q0,4.922-1.041,23.146l-1.039,11.973h2.376q15.147-21.816,48.115-21.818,29.254,0,44.4,14.1t15.146,40.44Z" transform="translate(1279.873 259.999)" fill="#333"/>
    <path id="Path_6" data-name="Path 6" d="M92.074,43.822Q92.074,24,116.724,24t24.651,19.822q0,9.443-6.236,14.766-6.09,5.189-18.414,5.189Q92.073,63.777,92.074,43.822ZM139.3,231H94V82.267H139.3Z" transform="translate(1466.13 259.999)" fill="#333"/>
    <path id="Path_7" data-name="Path 7" d="M91.614,305.424q-39.967,0-62.892-27.807Q6,249.813,6,200.56q0-49.978,23.128-77.785,23.331-27.99,64.109-27.988,42.807,0,65.326,29.806h2.029q-4.666-22.717-4.666-40.528V19h62.079V301.789H170.533l-11.97-26.352h-2.637Q134.826,305.425,91.614,305.424Zm21.708-44.163q23.735,0,34.691-12.358,11.159-12.36,12.173-41.982v-6q0-32.714-11.361-46.89-11.159-14.175-36.517-14.175-20.694,0-32.258,15.81Q68.689,171.3,68.689,201.286t11.564,45.072Q91.816,261.262,113.322,261.261Z" transform="translate(95.541 180.381)" fill="#fff"/>
    <path id="Path_8" data-name="Path 8" d="M253.829,123.939q0-28.353-9.535-43.436Q234.76,65.236,216.5,65.236q-11.565,0-18.057,7.27-6.491,7.088-6.492,24.717v94.142q27.794-2.181,44.837-20.719T253.829,123.939ZM134.539,320.582V233.347q-55.792-5.453-84.4-31.8Q21.535,175.008,21.536,130.3A135.921,135.921,0,0,1,32.694,76.14q11.159-26.17,35.5-52.7l44.835,26.17Q94.776,71.78,87.269,90.681a108.375,108.375,0,0,0-7.507,40.709q0,50.524,54.778,59.975V97.585q0-33.62,21.708-53.069,21.707-19.628,59.442-19.628,45.648,0,71.615,26.534t25.969,72.151q0,31.079-15.216,54.886-15.013,23.626-42.6,37.8-27.388,13.995-63.5,17.084v87.235Z" transform="translate(342.932 251.005)" fill="#fff"/>
  </g>
</svg>
