<svg xmlns="http://www.w3.org/2000/svg" xmlns:xlink="http://www.w3.org/1999/xlink" width="984.611" height="707.761" viewBox="0 0 984.611 707.761">
  <defs>
    <style>
      .cls-1 {
        fill: #f2f2f2;
      }

      .cls-2 {
        opacity: 0.03;
      }

      .cls-3 {
        fill: #3f3d56;
      }

      .cls-4 {
        fill: #cbceda;
      }

      .cls-5, .cls-6 {
        fill: #477b72;
      }

      .cls-17, .cls-6 {
        opacity: 0.2;
      }

      .cls-14, .cls-7, .cls-8 {
        fill: none;
        stroke-miterlimit: 10;
      }

      .cls-7, .cls-8 {
        stroke: #477b72;
      }

      .cls-7 {
        stroke-width: 2px;
      }

      .cls-9 {
        fill: url(#linear-gradient);
      }

      .cls-10 {
        fill: #ebbc8d;
      }

      .cls-11 {
        fill: #3c354c;
      }

      .cls-12 {
        opacity: 0.1;
      }

      .cls-13 {
        fill: #f7ba34;
      }

      .cls-14 {
        stroke: #3f3d56;
        stroke-width: 4px;
      }

      .cls-15 {
        fill: #57b894;
      }

      .cls-16 {
        fill: #656380;
      }
    </style>
    <linearGradient id="linear-gradient" x1="0.5" y1="1" x2="0.5" gradientUnits="objectBoundingBox">
      <stop offset="0" stop-color="gray" stop-opacity="0.251"/>
      <stop offset="0.54" stop-color="gray" stop-opacity="0.122"/>
      <stop offset="1" stop-color="gray" stop-opacity="0.102"/>
    </linearGradient>
  </defs>
  <g id="data_analysis" data-name="data analysis" transform="translate(0 -0.05)">
    <path id="Path_1" data-name="Path 1" class="cls-1" d="M495.7,133.969,480.833,143.4l9.022-16.417a14.7,14.7,0,0,0-8.984-3.209h-.239a17.328,17.328,0,0,1-3.084-.22l-5.038,3.189,2.155-3.927a17.93,17.93,0,0,1-8.812-6.7l-9.013,5.747,5.728-10.373c-5.268-6.321-12.375-10.21-20.2-10.21-9.377,0-17.729,5.584-23.121,14.271a17.24,17.24,0,0,1-15.325,8.237h-.5c-10.354,0-18.744,11.743-18.744,26.215s8.39,26.215,18.744,26.215a14.09,14.09,0,0,0,6.523-1.628,27.055,27.055,0,0,1,22.69-.45,23.667,23.667,0,0,0,19.29,0,27.077,27.077,0,0,1,22.479.431,14.1,14.1,0,0,0,6.465,1.6c10.354,0,18.744-11.733,18.744-26.215a33.3,33.3,0,0,0-3.917-15.986Z" transform="translate(-98.607 -81.375)"/>
    <path id="Path_2" data-name="Path 2" class="cls-2" d="M467.682,173.835a27.68,27.68,0,0,0-16.062,1.753,23.648,23.648,0,0,1-19.28,0,27.058,27.058,0,0,0-22.69.441,13.984,13.984,0,0,1-6.523,1.638c-9.2,0-16.848-9.262-18.447-21.483a17.652,17.652,0,0,0,4.6-4.961c5.392-8.687,13.744-14.262,23.121-14.262s17.633,5.507,22.987,14.108a17.738,17.738,0,0,0,15.277,8.39h.239C458.258,159.411,464.6,165.282,467.682,173.835Z" transform="translate(-98.607 -82.881)"/>
    <path id="Path_3" data-name="Path 3" class="cls-1" d="M358.7,546.985l-6.025-3.745c-.575-.354-1.14-.738-1.714-1.1a57.333,57.333,0,0,0,5.795-111.7l.3,23.619-12.978-25.7h-.163a57.343,57.343,0,0,0-59.939,54.594c-.057,1.1,0,2.174,0,3.257-4.511-5.153-8.62-10.679-11.331-16.733-5.488-12.25-5.594-26.129-5.163-43,.862-33.427,2.308-67.122,4.186-100.7a57.324,57.324,0,0,0,50.916-54.249c.077-1.753.048-3.477,0-5.2a8.243,8.243,0,0,0-.067-1.283c-.115-1.667-.268-3.314-.527-4.942a4.362,4.362,0,0,0-.144-.785c-.23-1.379-.517-2.739-.843-4.08-.125-.508-.249-1.006-.383-1.5-.4-1.465-.843-2.873-1.36-4.329-.172-.469-.374-.958-.556-1.4-.4-1.044-.843-2.078-1.312-3.094-.249-.536-.488-1.073-.747-1.6-.077-.134-.124-.278-.2-.412h0a57.314,57.314,0,0,0-67.314-29.079l.383,30.745-12.834-25.4a57.056,57.056,0,0,0-27.4,61.778h-.057c.086.412.211.8.307,1.207.182.757.374,1.5.584,2.251.268.958.575,1.916.891,2.873.239.709.469,1.408.738,2.107.393,1.015.833,2,1.274,2.988.259.575.488,1.168.766,1.734q1.092,2.222,2.375,4.339c.3.5.632.958.958,1.446.613.958,1.226,1.916,1.916,2.806.412.565.852,1.111,1.283,1.657.632.795,1.274,1.58,1.916,2.337.469.546.958,1.073,1.446,1.59.709.747,1.427,1.465,2.174,2.165.5.469.958.958,1.5,1.4.843.757,1.724,1.465,2.615,2.165.45.354.891.718,1.35,1.063q2.04,1.437,4.2,2.873c.268.163.565.3.833.46,1.216.709,2.442,1.389,3.707,2,.546.268,1.1.508,1.657.757,1.034.46,2.078.91,3.151,1.322l1.916.67c1.054.354,2.126.69,3.209.958.632.172,1.274.354,1.916.508,1.169.278,2.366.508,3.573.718l.23.048q-1.178,21.253-2.107,42.516a57.3,57.3,0,0,0-79.564-24.9l10.133,27.776-20.851-20.018a57.142,57.142,0,0,0-18.524,39.6,56.03,56.03,0,0,0,1.456,15.794,57.314,57.314,0,0,0,105.4,15.593c0,1.437-.1,2.873-.134,4.32-.383,14.884-.862,33.408,6.561,49.949,5.028,11.206,13.112,20.315,21.071,28.475,5.2,5.306,10.593,10.449,16.12,15.42a57.552,57.552,0,0,0,20.707,17.24c9.08,6.992,18.485,13.572,28.207,19.644l6.072,3.774c5.459,3.381,11.053,6.858,16.531,10.469-.958-.1-1.916-.2-2.873-.249a57.362,57.362,0,0,0-56.452,37.354L343.3,637.238,303.9,628.1a57.362,57.362,0,0,0,82.2,51.644l-2.615,3.3q-2.643,3.285-5.22,6.532C354.946,719.11,348.462,747.135,360,768.5l14.041-7.576c-11.283-20.8,5.6-47.43,16.685-61.433q2.529-3.189,5.134-6.417c14.894-18.5,31.77-39.48,31.358-65.206C426.579,589.07,388.948,565.739,358.7,546.985Z" transform="translate(-88.479 -86.026)"/>
    <path id="Path_4" data-name="Path 4" class="cls-1" d="M635.3,499.067l7.509-4.674c.718-.45,1.417-.958,2.136-1.379a71.517,71.517,0,0,1-7.183-139.349l-.374,29.471,16.158-32.057h.192a71.547,71.547,0,0,1,74.794,68.128c.067,1.37,0,2.711,0,4.061,5.641-6.427,10.756-13.323,14.137-20.87,6.858-15.325,6.992-32.565,6.446-53.636-1.073-41.712-2.873-83.74-5.22-125.634a71.509,71.509,0,0,1-63.521-67.687c-.1-2.184-.067-4.339,0-6.484a15.118,15.118,0,0,1,.086-1.609c.134-2.078.335-4.138.642-6.159.048-.335.124-.661.182-.958q.441-2.586,1.063-5.1c.153-.623.307-1.255.469-1.916.508-1.82,1.054-3.63,1.7-5.392.211-.594.46-1.159.689-1.743.517-1.312,1.063-2.6,1.647-3.831.306-.661.6-1.331.958-1.992.077-.163.153-.345.239-.508h0a71.451,71.451,0,0,1,83.979-36.272l-.479,38.312,16.014-31.684a71.135,71.135,0,0,1,34.155,77.074h.077c-.105.508-.268.958-.383,1.5-.23.958-.469,1.916-.728,2.806-.335,1.2-.718,2.366-1.111,3.534-.3.881-.584,1.762-.958,2.634-.489,1.264-1.034,2.5-1.59,3.726-.326.718-.613,1.456-.958,2.165-.958,1.849-1.916,3.659-2.96,5.412-.364.623-.785,1.207-1.178,1.81-.766,1.188-1.542,2.356-2.375,3.5-.517.709-1.063,1.379-1.6,2.069-.785.958-1.58,1.973-2.423,2.921q-.881.958-1.81,1.983c-.872.958-1.782,1.82-2.7,2.7-.623.584-1.236,1.178-1.916,1.743-1.063.958-2.155,1.82-3.276,2.691-.556.441-1.1.91-1.676,1.331-1.7,1.245-3.439,2.433-5.249,3.534-.335.2-.7.374-1.044.575q-2.251,1.341-4.617,2.5c-.68.335-1.379.623-2.069.958-1.293.584-2.6,1.14-3.927,1.647-.785.3-1.571.575-2.356.843-1.322.45-2.653.852-4,1.226-.795.22-1.59.441-2.4.642-1.465.345-2.95.632-4.454.891l-.3.057q1.494,26.521,2.634,53.052A71.47,71.47,0,0,1,865.631,244.6l-12.557,34.643,26-24.97a71.26,71.26,0,0,1,23.112,49.393,69.861,69.861,0,0,1-1.81,19.635,71.509,71.509,0,0,1-131.524,19.482c0,1.791.125,3.6.172,5.392.479,18.572,1.073,41.683-8.18,62.314-6.274,13.993-16.369,25.343-26.349,35.525q-9.741,9.942-20.114,19.242a71.775,71.775,0,0,1-25.86,21.483c-11.331,8.726-23.064,16.934-35.189,24.52l-7.567,4.722c-6.81,4.214-13.783,8.553-20.631,13.055,1.207-.115,2.394-.249,3.62-.306A71.566,71.566,0,0,1,699.186,575.3l-44.691,36.4,49.164-11.388A71.576,71.576,0,0,1,601.1,664.727c1.111,1.379,2.213,2.758,3.323,4.128,2.193,2.73,4.387,5.45,6.523,8.151,29.079,36.827,37.172,71.835,22.767,98.461L616.2,766.013c14.012-25.956-7.069-59.172-20.889-76.623-2.1-2.653-4.243-5.325-6.4-8.007-18.581-23.083-39.643-49.25-39.126-81.345C550.585,551.564,597.555,522.456,635.3,499.067Z" transform="translate(-105.575 -80.5)"/>
    <path id="Path_5" data-name="Path 5" class="cls-3" d="M933.891,268.406V604.189a6.906,6.906,0,0,1-6.906,6.906H242.556a6.9,6.9,0,0,1-6.9-6.906V268.406a6.9,6.9,0,0,1,6.9-6.906H926.985A6.906,6.906,0,0,1,933.891,268.406Z" transform="translate(-92.317 -88.137)"/>
    <path id="Path_6" data-name="Path 6" class="cls-4" d="M933.891,266.107v15.507H235.66V266.107a4.607,4.607,0,0,1,4.607-4.607H929.284A4.607,4.607,0,0,1,933.891,266.107Z" transform="translate(-92.317 -88.137)"/>
    <circle id="Ellipse_2" data-name="Ellipse 2" class="cls-5" cx="4.789" cy="4.789" r="4.789" transform="translate(153.879 178.151)"/>
    <circle id="Ellipse_3" data-name="Ellipse 3" class="cls-5" cx="4.789" cy="4.789" r="4.789" transform="translate(167.288 178.151)"/>
    <circle id="Ellipse_4" data-name="Ellipse 4" class="cls-5" cx="4.789" cy="4.789" r="4.789" transform="translate(180.697 178.151)"/>
    <path id="Path_7" data-name="Path 7" class="cls-6" d="M826.56,510.944v57.64l-474.3.259-.431-115.222c5.009,14.76,17.374,17.413,39.145-8.62,53.205-63.54,125.528-80.263,181.511-82.016,38.312-1.207,76.537,6.7,113.02,22.422,15.152,6.542,75.033,13.581,114.552,16.723a28.638,28.638,0,0,1,26.387,28.485Z" transform="translate(-97.22 -92.416)"/>
    <path id="Path_8" data-name="Path 8" class="cls-6" d="M826.56,456.759V571.311H351.83v-24.9c13.572-3.419,64.335-16.57,88.672-52.889,29.117-43.484,68.693-54.92,99.313-56.117,20.985-.833,41.875,4.559,61.816,15.325,22.431,12.107,65.676,26.713,98.528-15.689,36.339-46.884,92.159-8.247,106.315,5.957C811.532,448.014,826.56,456.759,826.56,456.759Z" transform="translate(-97.22 -94.596)"/>
    <path id="Path_9" data-name="Path 9" class="cls-7" d="M265.83,251.28V485.518H740.56" transform="translate(-11.22 -10.604)"/>
    <line id="Line_1" data-name="Line 1" class="cls-8" y1="142.797" transform="translate(314.424 332.117)"/>
    <line id="Line_2" data-name="Line 2" class="cls-8" y1="180.994" transform="translate(372.045 293.92)"/>
    <line id="Line_3" data-name="Line 3" class="cls-8" y1="199.163" transform="translate(429.666 275.751)"/>
    <line id="Line_4" data-name="Line 4" class="cls-8" y1="204.795" transform="translate(487.287 270.119)"/>
    <line id="Line_5" data-name="Line 5" class="cls-8" y1="198.531" transform="translate(544.907 276.383)"/>
    <line id="Line_6" data-name="Line 6" class="cls-8" y1="175.362" transform="translate(602.528 299.552)"/>
    <line id="Line_7" data-name="Line 7" class="cls-8" y1="163.466" transform="translate(660.149 311.447)"/>
    <circle id="Ellipse_5" data-name="Ellipse 5" class="cls-5" cx="10.651" cy="10.651" r="10.651" transform="translate(303.457 319.589)"/>
    <circle id="Ellipse_6" data-name="Ellipse 6" class="cls-5" cx="10.651" cy="10.651" r="10.651" transform="translate(361.078 283.269)"/>
    <circle id="Ellipse_7" data-name="Ellipse 7" class="cls-5" cx="10.651" cy="10.651" r="10.651" transform="translate(418.699 265.732)"/>
    <circle id="Ellipse_8" data-name="Ellipse 8" class="cls-5" cx="10.651" cy="10.651" r="10.651" transform="translate(476.31 259.468)"/>
    <circle id="Ellipse_9" data-name="Ellipse 9" class="cls-5" cx="10.651" cy="10.651" r="10.651" transform="translate(533.931 265.732)"/>
    <circle id="Ellipse_10" data-name="Ellipse 10" class="cls-5" cx="10.651" cy="10.651" r="10.651" transform="translate(591.552 289.524)"/>
    <circle id="Ellipse_11" data-name="Ellipse 11" class="cls-5" cx="10.651" cy="10.651" r="10.651" transform="translate(649.173 302.052)"/>
    <ellipse id="Ellipse_12" data-name="Ellipse 12" class="cls-3" cx="492.305" cy="20.114" rx="492.305" ry="20.114" transform="translate(0 667.583)"/>
    <path id="Path_24" data-name="Path 24" class="cls-9" d="M1090.614,457.734c-1.111-5.392-3.189-10.536-4.444-15.88a66.152,66.152,0,0,0-2.078-8.247,19.678,19.678,0,0,0-1.657-3.371l.594-.556c-1.973-3.333-2.05-7.509-2.979-11.3-.8-3.266-2.4-6.254-3.371-9.473-1.341-4.463-1.523-9.5-4.291-13.189-1.092-1.456-2.519-2.6-3.735-3.946-1.4-1.542-2.5-3.352-3.918-4.866-4.118-4.387-10.325-5.747-16.2-6.379s-11.944-.622-17.355-3.065c-2.27-1.025-4.665-2.49-7.04-2.318a33.866,33.866,0,0,1-3.668-4.166,56.7,56.7,0,0,1-4.9-6.944,25.561,25.561,0,0,0,2.624-6.168l.393-.278c1.542-1.169,2.873-2.691,4.387-3.831,1.331-.958,3.046-1.963,3.189-3.668s-1.4-3.007-2.356-4.415c-3.458-5.048.364-12.949-3.18-17.939-1.772-2.5-4.866-3.448-7.662-4.664-3.831-1.686-7.25-4.109-11.053-5.747s-8.2-2.529-12.03-.958c-7.164,2.969-9.741,13.17-17.02,15.832a3.573,3.573,0,0,0-2.021,1.2c-.891,1.456-2.069,10.028-1.858,11.8.278,2.347.843,3.506,2.462,4.329v1.513c0,12.193,8.448,22.317,19.587,24.4a16.944,16.944,0,0,1,2.7,3.764,14.364,14.364,0,0,1,.958,4.55,2.757,2.757,0,0,0-1.284-.268,3.7,3.7,0,0,0-3.036,2.653,13.081,13.081,0,0,0-.469,4.329,2.94,2.94,0,0,1-.843,2.481,2.576,2.576,0,0,1-1.159.364,27.152,27.152,0,0,1-4.482.46c-2.49,0-5.163-.623-7.356.594s-3.189,3.831-4.243,6.2a38.368,38.368,0,0,1-5.967,9.338c-2.682,3.1-6.015,6.044-6.772,10.153a1.43,1.43,0,0,0,0,.287c-2.1.958-4.243,3.257-5.747,4.415q-4.327,3.349-8.3,7.116c-2.692,2.6-6.321,5.814-7.988,9.281a13.056,13.056,0,0,1-3.333,3.831c-2.73,1.772-6.254.833-9.329-.163-8.524-2.749-17.1-5.526-25.046-9.731a1.964,1.964,0,0,0-1.341-.335,1.467,1.467,0,0,0-.67.441,3.135,3.135,0,0,0-.211-.287c-2.146-2.318-5.517-2.471-6.7-6.015a20.842,20.842,0,0,1-.7-3.438,37.689,37.689,0,0,0-3.611-9.712,3.62,3.62,0,0,0-1.188-1.59,2.193,2.193,0,0,0-2.873.91,5.345,5.345,0,0,0-.613,3.285c.077,1.245.259,2.691-.6,3.582a2.931,2.931,0,0,1-1.226.69c-2.768.9-5.814.1-8.4-1.255s-4.913-3.228-7.471-4.655a38.682,38.682,0,0,0-4.176-1.973c-1.475-.613-3.525-1.015-4.348.393-.661,1.13,0,2.576.766,3.649a29.106,29.106,0,0,0,4.454,5.057c4.981,4.454,11.254,6.934,17.1,10.038a87.228,87.228,0,0,1,14.367,9.578,7.416,7.416,0,0,0-.316,1.714,8.142,8.142,0,0,0,2.663,6.005,22.571,22.571,0,0,0,5.526,3.62q15.21,7.9,30.649,15.392a5.286,5.286,0,0,0,2.136.69c2.088.048,3.419-2.213,5.1-3.515s3.831-1.667,5.852-2.347c3.592-1.236,6.7-3.582,9.779-5.9l9.8-7.413c4.933-3.726,9.99-7.662,14.127-12.26a8.828,8.828,0,0,0,2.184,2.873c-.8,1.791.871,3.649,1.274,5.584a22.783,22.783,0,0,1,.105,3.831,35.091,35.091,0,0,0,.958,5.526,52.739,52.739,0,0,1,.651,8.955c0,3.343.105,6.7.153,10.038a57.17,57.17,0,0,1-.776,12.93c-1.235,5.747-4.262,11.206-4.023,17.106a6.59,6.59,0,0,1-.316,3.276c-2.5,4.789-4.473,10.066-7.164,14.779a16.186,16.186,0,0,0-1.916,3.7,6.273,6.273,0,0,0,.383,4.09,13.908,13.908,0,0,0-1.753,6.235c-.182,5.411,1.992,10.536,3.036,15.871.958,4.894.958,9.913,1.1,14.9.738,23.351,5.306,46.434,6.254,69.775a226.7,226.7,0,0,1-.958,32.258c-.7,6.915-1.734,13.811-2.117,20.765-1.1,19.731,3.017,39.27,7.107,58.617a7.663,7.663,0,0,1,4.866-2.634c-.5,1.916-1.159,4.406-1.849,6.245a7.251,7.251,0,0,0-2.816,1.015c-2.385,1.523-3.2,4.645-4.588,7.174-3.036,5.507-9,8.333-13.9,12.116-2.347,1.81-4.712,4.578-3.975,7.519,8.477,2.462,17.71,4.645,25.86,1.255,3.314-1.37,6.417-3.64,9.971-3.755,2.7-.086,5.459,1.092,8.045.287a2.873,2.873,0,0,0,1.59-1.1,3.831,3.831,0,0,0,.421-1.916,127.253,127.253,0,0,0-.058-13.514c-.22-3.831.172-6.7-2.94-7.241a30.323,30.323,0,0,1-1.714-5.967,10.071,10.071,0,0,0-.134-1.159,14.24,14.24,0,0,0,2.557-.211,12.453,12.453,0,0,0,1.542-.364c-.163-.661-.307-1.331-.441-1.992-.268-1.331-.479-2.663-.651-3.994s-.3-2.682-.392-4.023c0-.68-.077-1.35-.105-2.031-.057-1.351-.077-2.7-.067-4.061s0-2.711.1-4.071.134-2.72.23-4.08c.23-3.4.565-6.8.9-10.172q1.466-14.855,2.95-29.692c.287-2.969.584-5.948.623-8.927a39.681,39.681,0,0,0-.249-5.335c-.508-4.291-1.858-8.62-1.916-12.854a17.406,17.406,0,0,1,.077-2.117,14.652,14.652,0,0,1,.354-2.107c.086-.383.2-.766.316-1.14.24-.757.508-1.494.747-2.251.125-.374.239-.757.345-1.14a25.868,25.868,0,0,0,.7-4.933c0-.556.067-1.111.1-1.667l1.178-23.351c.192-3.745.508-7.787,1.973-11.13a11.885,11.885,0,0,1,2.71-3.917c-.3-.795,0-2.136.824-2.347a197.774,197.774,0,0,1-.354,35.8c-.422,3.735-1.044,7.442-1.216,11.2-.364,8.275,1.465,16.464,2.107,24.721s0,16.761,0,25.142c-.067,14.415,1.523,28.782,3.1,43.1l.958.632c0,1.264.144,2.643.125,3.831a3.48,3.48,0,0,0,.125,1.226h-.4a5.747,5.747,0,0,0-4.5,2.873,18.3,18.3,0,0,0-2.04,5.268,10.969,10.969,0,0,0-.575,4.253c.364,2.73,2.682,4.789,3.295,7.471,1.121,4.856-3.64,10.1-1.475,14.558,1.379,2.873,4.856,3.668,7.892,4.166,4.636.757,9.913,1.36,13.563-1.714a9.031,9.031,0,0,0,3.113-6.934c0-3.506-2.078-6.628-2.988-10-1.283-4.731.632-11.091-1.389-15.459a3.709,3.709,0,0,0-.747-1.245h.69c-.163-1.6-.326-3.209-.5-4.789l1.609-.824c1.657-.833,3.572-1.465,5.3-.814-.642-8.227-.824-17.317,1.073-25.324,1.475-6.321,4.119-12.317,5.344-18.7A91.218,91.218,0,0,0,1047.7,683.4c0-9.942,0-19.951-1.667-29.692-.67-3.908-1.628-7.911-.9-11.819.479-2.576,1.647-4.952,2.337-7.48,1.609-5.91.431-12.26,1.389-18.323,2.279-14.482,3.486-29.6,5.22-44.145a180.384,180.384,0,0,0,.881-24.826v-.1l3.438-6.7c2.461-4.789,4.961-9.655,6.455-14.8a9.806,9.806,0,0,1,1.235,2.346l15.114-25.113a19.84,19.84,0,0,0,2.308-4.789c.345-1.216.46-2.49.718-3.726.68-3.209,2.308-6.1,3.611-9.089A46.138,46.138,0,0,0,1090.614,457.734ZM1068,470.339a100.566,100.566,0,0,1-2.873,12.212c-1.992,6.877-4.3,13.639-6.609,20.41l-1.983,5.747a24.2,24.2,0,0,1-3.046,6.523,13.476,13.476,0,0,0-.814,1.561c-2.05-7.662.172-16.283-.3-24.452-.354-6.178-2.27-12.451-.833-18.437.958-4.032,3.371-7.5,5.067-11.273,1.58-3.506,2.567-7.327,4.349-10.708a.2.2,0,0,0,.067.182,87.991,87.991,0,0,0,5.68,12.078,9.809,9.809,0,0,1,1.389,2.873,8.369,8.369,0,0,1-.067,3.3Z" transform="translate(-118.454 -90.419)"/>
    <path id="Path_25" data-name="Path 25" class="cls-10" d="M890.079,433.2a19.873,19.873,0,0,1-.728-3.448,37.071,37.071,0,0,0-3.774-9.741,3.554,3.554,0,0,0-1.236-1.6,2.366,2.366,0,0,0-2.969.91,5.277,5.277,0,0,0-.642,3.295c.086,1.264.278,2.711-.613,3.6a3.13,3.13,0,0,1-1.293.69c-2.873.91-6.063.1-8.773-1.255s-5.124-3.247-7.8-4.674A41.534,41.534,0,0,0,857.9,419c-1.542-.623-3.678-1.025-4.54.393-.69,1.13,0,2.576.795,3.659a28.842,28.842,0,0,0,4.655,5.067C864,432.6,870.56,435.086,876.661,438.2a91.867,91.867,0,0,1,18.964,12.892,4.118,4.118,0,0,0,.958-2.347c.46-2.442,2.481-7.385.441-9.5C894.792,436.916,891.315,436.762,890.079,433.2Z" transform="translate(-118.376 -94.752)"/>
    <path id="Path_26" data-name="Path 26" class="cls-11" d="M992,776.612a24.673,24.673,0,0,0,18.035,5.057c1.341-.163,2.873-.642,3.314-1.916a3.753,3.753,0,0,0-.249-2.3,40.866,40.866,0,0,1-2.327-7.471c-.335-2.328-.249-5.1-2.146-6.494-2.739-2.021-9.9-1.915-11.685,1.216C996.521,765.377,993.839,778.154,992,776.612Z" transform="translate(-124.24 -109.268)"/>
    <path id="Path_27" data-name="Path 27" class="cls-11" d="M1032.285,765.107a1.83,1.83,0,0,0,1.561,2.28,51.294,51.294,0,0,0,13.563,2.27l-.958-9.214a1.427,1.427,0,0,0-1.523-1.552c-2.644-.441-8.2-2.232-10.737-1.312C1031.336,758.613,1032.342,762.358,1032.285,765.107Z" transform="translate(-125.935 -109.065)"/>
    <path id="Path_28" data-name="Path 28" class="cls-10" d="M1004.091,380.576a16.28,16.28,0,0,1,1.082,6.063c.24,7.423-1.034,15.44-6.206,20.765,5.8-1.734,12.327-.69,17.805-3.276,2.538-1.2,4.674-3.1,7.049-4.588,4.233-2.644,9.166-3.927,13.572-6.283s8.486-6.331,8.735-11.311c-1.916-2.011-4.99-2.3-7.5-3.515-2.7-1.322-4.7-3.735-6.609-6.063a48.419,48.419,0,0,1-5.881-8.342,16.2,16.2,0,0,1-1.915-9.865c-4.894.881-8.448,5.153-13.074,6.982-1.8.709-3.745,1.034-5.5,1.849-2.5,1.149-7.567,5.057-7.662,8.122C998,374.456,1002.789,377.626,1004.091,380.576Z" transform="translate(-124.493 -92.048)"/>
    <path id="Path_29" data-name="Path 29" class="cls-12" d="M1004.091,380.576a16.28,16.28,0,0,1,1.082,6.063c.24,7.423-1.034,15.44-6.206,20.765,5.8-1.734,12.327-.69,17.805-3.276,2.538-1.2,4.674-3.1,7.049-4.588,4.233-2.644,9.166-3.927,13.572-6.283s8.486-6.331,8.735-11.311c-1.916-2.011-4.99-2.3-7.5-3.515-2.7-1.322-4.7-3.735-6.609-6.063a48.419,48.419,0,0,1-5.881-8.342,16.2,16.2,0,0,1-1.915-9.865c-4.894.881-8.448,5.153-13.074,6.982-1.8.709-3.745,1.034-5.5,1.849-2.5,1.149-7.567,5.057-7.662,8.122C998,374.456,1002.789,377.626,1004.091,380.576Z" transform="translate(-124.493 -92.048)"/>
    <path id="Path_30" data-name="Path 30" class="cls-13" d="M1066.14,581.29c-1.81,14.6-3.065,29.768-5.45,44.3-.958,6.082.23,12.451-1.446,18.39-.718,2.538-1.916,4.923-2.443,7.5-.757,3.927.239,7.94.958,11.867,1.762,9.817,1.762,19.865,1.734,29.845,0,5.373,0,10.794-1.082,16.072-1.283,6.407-4.042,12.451-5.584,18.753-1.983,8.046-1.791,17.164-1.121,25.42-1.8-.651-3.831,0-5.536.814s-3.429,1.916-5.335,2.04c-2.576.239-5-1.121-7.222-2.442-1.7-1.006-3.189-1.916-4.885-2.95-1.657-14.367-3.314-28.791-3.247-43.264,0-8.409.661-16.838,0-25.228s-2.586-16.512-2.193-24.807c.182-3.774.824-7.49,1.255-11.235a189.959,189.959,0,0,0,.373-35.927c-.833.211-1.168,1.552-.862,2.347a12.02,12.02,0,0,0-2.873,3.936c-1.532,3.352-1.858,7.413-2.059,11.168l-1.236,23.437a30.644,30.644,0,0,1-.824,6.618c-.431,1.542-1.082,3-1.475,4.55-1.408,5.613.853,11.4,1.571,17.135.584,4.789.086,9.578-.4,14.309l-3.074,29.807c-1.121,10.842-2.213,21.914,0,32.565.144.661.287,1.331.46,2a13.883,13.883,0,0,1-1.609.364,20.651,20.651,0,0,1-5.747,0c-1.782-.182-3.582-.489-5.345-.7-4.233-.479-8.457-.661-11.264,2.538-4.272-19.367-8.563-39.03-7.423-58.828.4-6.973,1.475-13.9,2.213-20.842A217.387,217.387,0,0,0,986,648.479c-.958-23.427-5.747-46.6-6.542-70.034-.163-5-.144-10.047-1.14-14.951-1.092-5.316-3.362-10.536-3.18-15.928s4.118-11.379,9.578-11.082c15.066.833,28.83-7.48,43.857-8.9,6.82-.651,13.754-1.619,20.506-.4s13.476,5.038,16.129,11.359c1.437,3.438,1.552,7.25,1.657,10.967C1067.174,560.123,1067.452,570.764,1066.14,581.29Z" transform="translate(-123.528 -99.327)"/>
    <path id="Path_31" data-name="Path 31" class="cls-4" d="M990.09,775.619c-2.49,1.532-3.343,4.664-4.789,7.2-3.17,5.526-9.4,8.362-14.51,12.154-2.452,1.829-4.923,4.6-4.147,7.557,8.85,2.462,18.485,4.655,27.019,1.255,3.458-1.379,6.7-3.659,10.411-3.774,2.825-.086,5.747,1.1,8.4.287a2.874,2.874,0,0,0,1.667-1.1,3.83,3.83,0,0,0,.441-1.916,121.064,121.064,0,0,0-.067-13.572c-.268-4.415.326-7.538-4.712-7.346C1004.017,776.615,995.109,772.525,990.09,775.619Z" transform="translate(-123.164 -109.788)"/>
    <path id="Path_32" data-name="Path 32" class="cls-4" d="M1034.938,767.438a10.61,10.61,0,0,0-3.276-.737,6.082,6.082,0,0,0-4.7,2.873,17.689,17.689,0,0,0-2.126,5.287,10.533,10.533,0,0,0-.594,4.262c.373,2.739,2.8,4.789,3.438,7.49,1.159,4.875-3.831,10.133-1.552,14.616,1.446,2.873,5.076,3.678,8.246,4.176,4.847.766,10.354,1.37,14.166-1.724a8.936,8.936,0,0,0,3.257-6.944c-.058-3.525-2.174-6.657-3.132-10.047-1.331-4.789.67-11.13-1.446-15.507C1045.406,767.438,1038.8,768.673,1034.938,767.438Z" transform="translate(-125.6 -109.461)"/>
    <circle id="Ellipse_14" data-name="Ellipse 14" class="cls-10" cx="24.893" cy="24.893" r="24.893" transform="translate(856.324 235.37)"/>
    <path id="Path_33" data-name="Path 33" class="cls-5" d="M1017.582,394.092a13.275,13.275,0,0,0-8.5-.642l-2.27-3.956c-.958-1.743-2.385-3.716-4.387-3.64a3.831,3.831,0,0,0-3.17,2.672,12.669,12.669,0,0,0-.5,4.339,2.873,2.873,0,0,1-.871,2.5,3.055,3.055,0,0,1-1.207.364,30.773,30.773,0,0,1-4.684.46c-2.605,0-5.392-.632-7.662.594s-3.323,3.831-4.425,6.226a38.554,38.554,0,0,1-6.226,9.367c-2.806,3.113-6.283,6.063-7.078,10.181-.335,1.753,1.255,3.055,2.519,4.32,5.028,4.99,12.039,8.055,15.765,14.089.872,1.408,1.58,3,2.921,3.965-.833,1.81.958,3.668,1.331,5.613a21.892,21.892,0,0,1,.105,3.831,34.187,34.187,0,0,0,.958,5.546,51.194,51.194,0,0,1,.68,8.984l.163,10.076a55.464,55.464,0,0,1-.814,12.978c-1.293,5.747-4.454,11.254-4.2,17.164a6.351,6.351,0,0,1-.326,3.295c-2.615,4.789-4.674,10.1-7.48,14.827a15.706,15.706,0,0,0-1.916,3.716c-.747,2.73.785,5.689,3.046,7.394s5.115,2.4,7.892,2.931c25.8,4.942,52.592-1.006,76.978-10.775a5.112,5.112,0,0,0,1.753-.958c1.781-1.734.383-4.655-.632-6.915-3.831-8.419-.776-18.2-1.322-27.393a57.321,57.321,0,0,1,1.954-17.827c.958-4.042.7-8.206,2.471-11.98,1.916-4.09,2.988-8.62,5.5-12.356a37.479,37.479,0,0,1,6.542-6.9l15.564-13.869c-2.059-3.343-2.146-7.538-3.113-11.34-.843-3.276-2.519-6.283-3.525-9.5-1.4-4.482-1.59-9.578-4.483-13.246-1.14-1.465-2.624-2.605-3.9-3.956-1.456-1.552-2.605-3.362-4.09-4.885-4.3-4.406-10.785-5.8-16.905-6.4s-12.451-.623-18.121-3.074c-2.778-1.2-5.747-3.008-8.62-2.107-2.279.709-3.745,2.94-4.674,5.153s-1.58,4.6-3.1,6.446C1023.645,391.611,1020.321,393.067,1017.582,394.092Z" transform="translate(-123.166 -93.036)"/>
    <path id="Path_34" data-name="Path 34" class="cls-5" d="M940.411,445.759a13.349,13.349,0,0,1-3.486,3.831c-2.873,1.772-6.522.833-9.731-.163-8.9-2.768-17.853-5.546-26.157-9.769a2.068,2.068,0,0,0-1.4-.335,1.916,1.916,0,0,0-.958.69,40.7,40.7,0,0,0-3.592,4.607A10.536,10.536,0,0,0,893,449.782a8.046,8.046,0,0,0,2.768,6.025,23.877,23.877,0,0,0,5.747,3.63q15.89,7.931,31.99,15.449a5.66,5.66,0,0,0,2.232.69c2.184.048,3.573-2.222,5.316-3.525s4.032-1.667,6.111-2.356c3.754-1.236,7.021-3.592,10.219-5.919l10.229-7.432c8.965-6.513,18.38-13.61,22.3-23.945l-12.451-4.1c-3.735-1.236-7.662-3.113-11.541-3.831-2.873-.556-6.331,3.237-8.486,4.856a110.062,110.062,0,0,0-8.726,7.193C945.947,439.045,942.154,442.283,940.411,445.759Z" transform="translate(-120.061 -95.014)"/>
    <path id="Path_35" data-name="Path 35" class="cls-10" d="M22.273,6.812c-3.515,1.4-7.5-.709-11.225-.086A13.95,13.95,0,0,0,6.571,9.062l-5.6,7.682s-1.414,4.226-.829,4.7a1.168,1.168,0,0,0,.565.192c3.63.469,3.882-4.208,6.351-5.687,1.308-.985,1.76-1.813,3.358-1.718a1.915,1.915,0,0,1,.776.115,1.609,1.609,0,0,1,.8,1.523c0,.613-.182,1.207-.2,1.82C11.9,19.1,5.906,28.356,7.388,31.407c1.523,2.422,10.8,7.334,12.786,7.116,2.339-.4,6.063-5.446,6.822-6.981l4.194-7.011c3.716-6.915,7.519-14.089,8.113-21.914C36.62,1.765,31.64-1.061,28.872.424S25.462,5.788,22.273,6.812Z" transform="matrix(0.985, -0.174, 0.174, 0.985, 927.648, 436.494)"/>
    <path id="Path_36" data-name="Path 36" class="cls-3" d="M1001.69,346.686c7.011.747,13.409,4.061,19.683,7.318-1.073,1.686.287,4.109,2.193,4.684s3.994-.239,5.613-1.418,2.95-2.7,4.578-3.831c1.4-.958,3.18-1.973,3.333-3.678s-1.456-3.017-2.461-4.435c-3.611-5.067.383-13-3.314-18.006-1.858-2.509-5.086-3.458-7.95-4.684-3.965-1.686-7.576-4.118-11.551-5.795s-8.553-2.548-12.556-.958c-7.49,2.979-10.172,13.218-17.777,15.89a3.831,3.831,0,0,0-2.117,1.207c-.958,1.456-2.155,10.066-1.916,11.838.364,2.96,1.178,4.051,4.09,4.933C987.764,351.609,995.024,345.967,1001.69,346.686Z" transform="translate(-123.625 -90.398)"/>
    <path id="Path_37" data-name="Path 37" class="cls-5" d="M1095.732,431a19.892,19.892,0,0,1,5.124,7.413,62.952,62.952,0,0,1,2.165,8.275c1.312,5.383.6,11.578,1.762,16.98,1.973,9.23.624,13.939,0,24.312a52.523,52.523,0,0,1-.891,8.983,63.121,63.121,0,0,1-.871,7.956c-.171.5-.269,5.877-.612,6.659-.372.862-.832,3.89-1.552,4.939l-6.674,18.745c-1.219-2.983-4.933-3.707-7.977-4.767a17.929,17.929,0,0,0-9.386-.565c1.168-1.839,1.685-3.9,2.873-5.747a22.7,22.7,0,0,0,1.538-3.631,19.485,19.485,0,0,0,1.084-4.035l.567-4.939a196.971,196.971,0,0,0,0-23.6c-.111-4.984-1.107-7.334-1.651-11.679a20.66,20.66,0,0,1-.835-3.257c-.321-1.05.1-1.992-.545-2.882-2.285-3.877-1.393-8.967-3.055-13.149-1.245-2.921-2.5-6.207-1.379-9.176a11.633,11.633,0,0,1,3.084-4.08A91.13,91.13,0,0,1,1095.732,431Z" transform="translate(-126.896 -95.292)"/>
    <path id="Path_38" data-name="Path 38" class="cls-12" d="M1013.938,761.1l1.149-2.366c-2.2-10.631-1.111-21.7,0-32.565l3.075-29.807a65.738,65.738,0,0,0,.4-14.309c-.718-5.747-2.979-11.493-1.571-17.135.393-1.552,1.044-3.007,1.475-4.549a30.651,30.651,0,0,0,.824-6.618l1.236-23.437c.2-3.755.527-7.816,2.059-11.168V618.5l-3.946-33.963L1008.22,761.1Z" transform="translate(-124.925 -101.772)"/>
    <path id="Path_39" data-name="Path 39" class="cls-14" d="M920.06,779.049c2.873-5.278-.383-11.752-4.109-16.455s-8.247-9.578-8.151-15.6c.144-8.62,9.291-13.706,16.6-18.284a80.459,80.459,0,0,0,14.9-11.982,21.836,21.836,0,0,0,4.578-6.13c1.513-3.371,1.475-7.2,1.379-10.89q-.488-18.447-1.829-36.865" transform="translate(-120.686 -105.077)"/>
    <path id="Path_40" data-name="Path 40" class="cls-15" d="M958.329,661.575a13.409,13.409,0,0,0-6.7-11.015l-3.008,5.957.1-7.212a13.615,13.615,0,0,0-4.435-.536,13.409,13.409,0,1,0,14.06,12.806Z" transform="translate(-121.688 -104.483)"/>
    <path id="Path_41" data-name="Path 41" class="cls-15" d="M933.364,756.268a13.409,13.409,0,1,1,.651-10.823l-8.4,6.867,9.243-2.136A13.408,13.408,0,0,1,933.364,756.268Z" transform="translate(-120.696 -108.195)"/>
    <path id="Path_42" data-name="Path 42" class="cls-15" d="M926.917,728.7a13.409,13.409,0,0,1-4.262-26.368l-.077,5.536,3.046-6.025h0a13.409,13.409,0,0,1,14.051,12.8,13.256,13.256,0,0,1-.575,4.588A13.409,13.409,0,0,1,926.917,728.7Z" transform="translate(-120.887 -106.722)"/>
    <path id="Path_43" data-name="Path 43" class="cls-15" d="M961.007,706.029a13.409,13.409,0,1,1,5.948-25.161l-2.375,6.513,4.885-4.693a13.409,13.409,0,0,1,4.339,9.281,13.206,13.206,0,0,1-.335,3.707,13.409,13.409,0,0,1-12.461,10.354Z" transform="translate(-122.345 -105.768)"/>
    <path id="Path_44" data-name="Path 44" class="cls-12" d="M956.522,665.481c-3.1.335-6.12,1.3-9.233,1.494s-6.532-.546-8.505-2.969c-1.054-1.3-1.59-2.95-2.481-4.377a9.576,9.576,0,0,0-3.39-3.189,13.409,13.409,0,1,0,25.133,8.927Q957.288,665.4,956.522,665.481Z" transform="translate(-121.691 -104.807)"/>
    <path id="Path_45" data-name="Path 45" class="cls-12" d="M961,706.366a13.409,13.409,0,0,1-12.787-19.156,9.937,9.937,0,0,1,2.7,2.7c.958,1.446,1.542,3.122,2.662,4.444,2.1,2.462,5.67,3.266,8.917,3.122s6.379-1.073,9.578-1.37c.45,0,.9-.067,1.36-.077A13.409,13.409,0,0,1,961,706.366Z" transform="translate(-122.337 -106.106)"/>
    <path id="Path_46" data-name="Path 46" class="cls-12" d="M926.929,729.046a13.409,13.409,0,0,1-12.892-18.926,11,11,0,0,1,2.873,2.73c1.044,1.475,1.7,3.18,2.921,4.54,2.27,2.519,6.082,3.41,9.511,3.333s6.542-.891,9.846-1.149a13.409,13.409,0,0,1-12.26,9.473Z" transform="translate(-120.899 -107.073)"/>
    <path id="Path_47" data-name="Path 47" class="cls-12" d="M933.348,756.647a13.426,13.426,0,1,1-24.51-10.967,13.261,13.261,0,0,1,2.95,2.634c1.284,1.552,2.126,3.324,3.6,4.789,2.749,2.7,7.183,3.831,11.139,3.917a57.468,57.468,0,0,0,6.819-.373Z" transform="translate(-120.68 -108.574)"/>
    <path id="Path_48" data-name="Path 48" class="cls-16" d="M899.43,777.567s10.612-.326,13.811-2.605,16.283-4.99,17.106-1.341,15.947,18.2,3.975,18.255-27.834-1.858-31.033-3.831S899.43,777.567,899.43,777.567Z" transform="translate(-120.333 -109.677)"/>
    <path id="Path_49" data-name="Path 49" class="cls-17" d="M934.533,790.864c-11.982.1-27.833-1.916-31.023-3.831-2.433-1.485-3.4-6.791-3.726-9.243h-.354s.671,8.563,3.831,10.536,19.051,3.9,31.033,3.831c3.458,0,4.645-1.255,4.578-3.074C938.422,790.155,937.11,790.835,934.533,790.864Z" transform="translate(-120.333 -109.929)"/>
  </g>
</svg>
