<svg xmlns="http://www.w3.org/2000/svg" width="40.938" height="40.938" viewBox="0 0 40.938 40.938">
  <defs>
    <style>
      .cls-1 {
        opacity: 0.8;
      }

      .cls-2 {
        fill: #477b72;
      }
    </style>
  </defs>
  <g id="Instagram" class="cls-1" transform="translate(-1139 -7589)">
    <g id="instagram-logo" transform="translate(1139 7589)">
      <path id="Path_292" data-name="Path 292" class="cls-2" d="M29.64,0H11.3A11.31,11.31,0,0,0,0,11.3V29.641a11.31,11.31,0,0,0,11.3,11.3H29.64a11.31,11.31,0,0,0,11.3-11.3V11.3A11.31,11.31,0,0,0,29.64,0Zm7.666,29.641a7.674,7.674,0,0,1-7.665,7.665H11.3a7.674,7.674,0,0,1-7.665-7.665V11.3A7.674,7.674,0,0,1,11.3,3.632H29.64A7.674,7.674,0,0,1,37.306,11.3V29.641Z"/>
      <path id="Path_293" data-name="Path 293" class="cls-2" d="M51.517,40.97A10.548,10.548,0,1,0,62.065,51.519,10.561,10.561,0,0,0,51.517,40.97Zm0,17.464a6.916,6.916,0,1,1,6.916-6.916A6.924,6.924,0,0,1,51.517,58.434Z" transform="translate(-31.048 -31.049)"/>
      <path id="Path_294" data-name="Path 294" class="cls-2" d="M121.585,28.251a2.662,2.662,0,1,0,1.884.78A2.674,2.674,0,0,0,121.585,28.251Z" transform="translate(-90.125 -21.41)"/>
    </g>
  </g>
</svg>
