<svg xmlns="http://www.w3.org/2000/svg" width="102.796" height="90.316" viewBox="0 0 102.796 90.316">
  <defs>
    <style>
      .cls-1 {
        fill: #477b72;
        stroke: #477b72;
      }
    </style>
  </defs>
  <path id="online_classs" data-name="online classs" class="cls-1" d="M99.595,43.551H22.45a2.312,2.312,0,0,0-2.2,2.409v20.6C12.2,67.738,5.974,75.3,5.974,84.421A18.466,18.466,0,0,0,13.713,99.7C5.662,103.433,0,112.17,0,122.328v8.13a2.312,2.312,0,0,0,2.2,2.409,2.312,2.312,0,0,0,2.2-2.409v-8.13c0-10.89,8.1-19.75,18.047-19.75s18.048,8.86,18.048,19.75v8.13a2.21,2.21,0,1,0,4.4,0v-8.13a26.173,26.173,0,0,0-3.207-12.641H58.82v4.633H49.653a2.418,2.418,0,0,0,0,4.817H72.39a2.418,2.418,0,0,0,0-4.817H63.223v-4.633H99.595a2.312,2.312,0,0,0,2.2-2.409V45.96A2.312,2.312,0,0,0,99.595,43.551Zm-2.2,4.817V95.093H74.933V92.051a15.9,15.9,0,0,0-7.369-13.659,12.162,12.162,0,0,0,3.809-8.951c0-6.46-4.8-11.715-10.706-11.715S49.963,62.981,49.963,69.44a12.163,12.163,0,0,0,3.809,8.951A15.9,15.9,0,0,0,46.4,92.051v3.043H35.718a19.079,19.079,0,0,0,3.207-10.673c0-9.124-6.227-16.682-14.274-17.864V48.368H97.394ZM60.668,76.339c-3.476,0-6.3-3.095-6.3-6.9s2.828-6.9,6.3-6.9,6.3,3.095,6.3,6.9S64.144,76.339,60.668,76.339Zm9.863,15.712v3.043H50.806V92.051c0-5.951,4.425-10.793,9.863-10.793S70.531,86.1,70.531,92.051Zm-60.156-7.63c0-7.286,5.416-13.213,12.073-13.213s12.074,5.927,12.074,13.213S29.107,97.634,22.449,97.634,10.376,91.706,10.376,84.421Zm27.851,20.448a22.593,22.593,0,0,0-6.6-4.958H97.393v4.958Z" transform="translate(0.5 -43.051)"/>
</svg>
