<svg xmlns="http://www.w3.org/2000/svg" width="115.769" height="89.419" viewBox="0 0 115.769 89.419">
  <defs>
    <style>
      .cls-1 {
        fill: #477b72;
      }
    </style>
  </defs>
  <path id="practice" class="cls-1" d="M29.379,65.31A11.927,11.927,0,1,0,17.452,53.383,11.94,11.94,0,0,0,29.379,65.31Zm0-18.133a6.206,6.206,0,1,1-6.206,6.206A6.213,6.213,0,0,1,29.379,47.177Zm31.09,65.776v15.062a2.86,2.86,0,0,1-2.86,2.86H12.756a2.86,2.86,0,0,1-2.86-2.86V124.67a2.86,2.86,0,1,1,5.721,0v.485H54.748v-9.341H24.221a2.86,2.86,0,1,1,0-5.721H57.608A2.86,2.86,0,0,1,60.469,112.953Zm52.44-15.223H86.253V90.809h20.924a2.86,2.86,0,0,0,2.86-2.86V56.8a2.86,2.86,0,0,0-2.86-2.86H59.609a2.86,2.86,0,0,0-2.86,2.86V87.949a2.86,2.86,0,0,0,2.86,2.86H80.533V97.73H15.344l.331-11.043c.1-3.3,1.193-11,9.2-11.079.051,0,.1,0,.151-.005s.126.006.19.006h8.72c7.959.114,9.049,7.782,9.148,11.078a2.86,2.86,0,1,0,5.718-.171C48.5,76.5,42.669,69.977,33.941,69.888H25.216c-.06,0-.12,0-.18.006s-.146-.007-.219-.006C16.09,69.977,10.257,76.5,9.957,86.516L9.621,97.73H2.86a2.86,2.86,0,1,0,0,5.721H9.45l-.165,5.506a2.86,2.86,0,0,0,2.774,2.944h.087A2.86,2.86,0,0,0,15,109.128l.17-5.677h97.736a2.86,2.86,0,0,0,0-5.721ZM62.47,85.089V59.664h41.847V85.089Z" transform="translate(0 -41.456)"/>
</svg>
