<svg xmlns="http://www.w3.org/2000/svg" xmlns:xlink="http://www.w3.org/1999/xlink" width="789" height="627.257" viewBox="0 0 789 627.257">
  <defs>
    <style>
      .cls-1, .cls-2 {
        fill: #477b72;
      }

      .cls-1, .cls-16, .cls-17, .cls-5 {
        opacity: 0.1;
      }

      .cls-3 {
        fill: #444053;
      }

      .cls-4 {
        fill: #d5d6db;
      }

      .cls-6, .cls-8 {
        fill: #fff;
      }

      .cls-6 {
        opacity: 0.3;
      }

      .cls-7 {
        fill: #3a3768;
      }

      .cls-8 {
        opacity: 0.45;
      }

      .cls-9 {
        fill: url(#linear-gradient);
      }

      .cls-10 {
        fill: #ebbc8d;
      }

      .cls-11 {
        fill: #3e373a;
      }

      .cls-12 {
        fill: #4b4b5b;
      }

      .cls-13 {
        opacity: 0.02;
      }

      .cls-14 {
        fill: #e7c7ca;
      }

      .cls-15 {
        fill: #c3c7d9;
      }

      .cls-17 {
        fill: none;
        stroke: #000;
        stroke-miterlimit: 10;
      }

      .cls-18 {
        fill: #ffd037;
      }

      .cls-19 {
        fill: #65617d;
      }

      .cls-20 {
        fill: #9d9cb5;
      }
    </style>
    <linearGradient id="linear-gradient" x1="0.5" y1="1" x2="0.5" gradientUnits="objectBoundingBox">
      <stop offset="0" stop-color="gray" stop-opacity="0.251"/>
      <stop offset="0.54" stop-color="gray" stop-opacity="0.122"/>
      <stop offset="1" stop-color="gray" stop-opacity="0.102"/>
    </linearGradient>
  </defs>
  <g id="study_ds" data-name="study ds" transform="translate(0 -0.008)">
    <path id="Path_52" data-name="Path 52" class="cls-1" d="M554.342,155.371c-49.924-1.736-97.479-17.85-142.883-35.483s-90.375-37.173-139.1-46.514c-31.341-6.009-67.187-6.858-92.434,9.943-24.306,16.2-32.159,44.084-36.378,69.987-3.178,19.485-5.045,39.988,3.664,58.231,6.04,12.666,16.77,23.311,24.183,35.483,25.818,42.21,7.575,94.263-20.4,135.477-13.113,19.339-28.348,37.8-38.469,58.363s-14.81,44.161-5.955,65.158c8.786,20.827,29.714,36.44,52.377,47.432,46.044,22.331,100.279,28.718,153.2,32.336C429.263,593.8,547,590.329,664.426,586.858c43.46-1.288,87.1-2.592,129.854-9.311,23.743-3.733,48.25-9.65,65.49-23.951,21.876-18.151,27.3-48.89,12.643-71.646-24.6-38.176-92.566-47.656-109.783-88.632-9.457-22.547.262-47.664,14.008-68.583,29.5-44.863,78.935-84.227,81.543-135.508,1.79-35.229-21.984-70.5-58.733-87.166C760.933,84.528,707.507,86.749,679.1,115.668,649.839,145.467,598.418,156.9,554.342,155.371Z" transform="translate(-91.622 -49.367)"/>
    <path id="Path_53" data-name="Path 53" class="cls-2" d="M349.423,623.647,85.395,622.359,59.16,560.826l92.766-6.734-16.168-67.465,183.48-23.782-175.7-61.078,15.52-3.687,282.518,46.09L426.021,549.456l-22.239,57.861Z" transform="translate(-13.525 -91.007)"/>
    <path id="Path_54" data-name="Path 54" class="cls-2" d="M187,698.765s16.2-2.592,25.918,8.855c0,0-7.128,5.616-22.463-2.16Z" transform="translate(-111.081 -193.186)"/>
    <path id="Path_55" data-name="Path 55" class="cls-2" d="M182.828,698.51s-10.337,12.72-5.245,26.883c0,0,8.423-3.371,9.341-20.542Z" transform="translate(-108.605 -193.185)"/>
    <path id="Path_56" data-name="Path 56" class="cls-2" d="M172.76,670.181s6.48-11.887,32.4,4.752c0,0-3.456,7.991-14.9,7.344S175.784,676.444,172.76,670.181Z" transform="translate(-107.825 -185.768)"/>
    <path id="Path_57" data-name="Path 57" class="cls-2" d="M166.219,670.286s-13.445-1.543-14.749,29.235c0,0,8.524,1.766,14.579-7.968S169.621,676.357,166.219,670.286Z" transform="translate(-102.958 -186.73)"/>
    <path id="Path_58" data-name="Path 58" class="cls-2" d="M160.44,635.081s7.56-20.951,34.99-6.048c0,0-6.264,19.223-32.182,13.175Z" transform="translate(-105.009 -176.078)"/>
    <path id="Path_59" data-name="Path 59" class="cls-2" d="M149.52,594.931s14.255-21.167,39.525-1.543c0,0-8.855,19.871-37.366,9.071Z" transform="translate(-102.512 -167.246)"/>
    <path id="Path_60" data-name="Path 60" class="cls-2" d="M145.6,556.658s16.631-19.446,41.654,0c0,0-15.767,17.063-41.654,4.968Z" transform="translate(-101.616 -158.779)"/>
    <path id="Path_61" data-name="Path 61" class="cls-2" d="M142.24,518.918s16.847-20.3,40.821-1.08c0,0-19.007,17.927-40.821,5.832Z" transform="translate(-100.848 -149.989)"/>
    <path id="Path_62" data-name="Path 62" class="cls-2" d="M144.2,484.049s17.742-26.134,40.173-8.423c0,0-19.007,22.463-40.173,13.391Z" transform="translate(-101.296 -140.822)"/>
    <path id="Path_63" data-name="Path 63" class="cls-2" d="M149.52,445.436s18.791-25.918,40.605-6.048c0,0-22.247,22.463-40.605,10.8Z" transform="translate(-102.512 -132.231)"/>
    <path id="Path_64" data-name="Path 64" class="cls-2" d="M157.352,409.639s22.247-24.36,41.655-14.656c0,0-23.18,25.872-42.626,21.12Z" transform="translate(-104.08 -123.271)"/>
    <path id="Path_65" data-name="Path 65" class="cls-2" d="M167.18,375.187s25.672-29.837,40.605-19.871c0,0-18.914,23.141-42.426,25.456Z" transform="translate(-106.133 -114.258)"/>
    <path id="Path_66" data-name="Path 66" class="cls-2" d="M181.376,337.717s22.47-24.36,38.885-18.313c0,0-19.223,25.27-41.9,25.918Z" transform="translate(-109.106 -106.293)"/>
    <path id="Path_67" data-name="Path 67" class="cls-2" d="M195.12,301.809s24.838-23.327,35.638-19.223c0,0-17.927,25.918-36.718,24.406Z" transform="translate(-112.69 -97.986)"/>
    <path id="Path_68" data-name="Path 68" class="cls-2" d="M208.32,266.955s21.383-27.87,33.054-25.71c0,0-12.967,24.846-33.054,28.541Z" transform="translate(-115.955 -88.618)"/>
    <path id="Path_69" data-name="Path 69" class="cls-2" d="M222.069,223.743s18.9-21.36,29.112-21.313c0,0-14.919,28.541-29.891,28.279Z" transform="translate(-118.92 -79.771)"/>
    <path id="Path_70" data-name="Path 70" class="cls-2" d="M229.892,187.213,248.15,142.72s.91,40.22-20.58,52.747Z" transform="translate(-120.356 -66.12)"/>
    <path id="Path_71" data-name="Path 71" class="cls-2" d="M240.153,124.881s3.024-37.157,1.08-40.181c0,0,13.052,30.894-1.2,56.6Z" transform="translate(-123.205 -52.856)"/>
    <path id="Path_72" data-name="Path 72" class="cls-2" d="M150.277,637.116s-18.93-11.733-31.187,16.97c0,0,16.847,11.185,33.416-9.65Z" transform="translate(-95.555 -178.606)"/>
    <path id="Path_73" data-name="Path 73" class="cls-2" d="M138.511,595.772s-23.219-10.591-34.481,19.377c0,0,17.935,12.342,36.594-11.8Z" transform="translate(-92.112 -169.282)"/>
    <path id="Path_74" data-name="Path 74" class="cls-2" d="M131.855,558.969s-16.631-19.447-41.655,0c0,0,15.767,17.063,41.655,4.968Z" transform="translate(-88.95 -159.307)"/>
    <path id="Path_75" data-name="Path 75" class="cls-2" d="M129.4,518.918s-16.847-20.3-40.821-1.08c0,0,19.007,17.927,40.821,5.832Z" transform="translate(-88.58 -149.989)"/>
    <path id="Path_76" data-name="Path 76" class="cls-2" d="M133.084,483.453s-11.818-29.274-37.5-16.685c0,0,13.885,25.957,36.455,21.545Z" transform="translate(-90.18 -139.485)"/>
    <path id="Path_77" data-name="Path 77" class="cls-2" d="M140.248,443.443s-11.748-29.783-37.8-15.975c0,0,15.952,27.3,36.641,20.573Z" transform="translate(-91.751 -130.384)"/>
    <path id="Path_78" data-name="Path 78" class="cls-2" d="M153.117,404.306s-4.628-32.653-26.227-35.576c0,0,4.582,34.434,23.319,41.462Z" transform="translate(-97.338 -117.791)"/>
    <path id="Path_79" data-name="Path 79" class="cls-2" d="M162.6,369.693s-1.805-39.34-19.662-40.713c0,0,.6,29.86,17.649,46.283Z" transform="translate(-101.008 -108.703)"/>
    <path id="Path_80" data-name="Path 80" class="cls-2" d="M178.04,331.12s-5.323-32.714-22.37-36.71c0,0,2.114,31.681,20.681,44.74Z" transform="translate(-103.918 -100.8)"/>
    <path id="Path_81" data-name="Path 81" class="cls-2" d="M194.482,296.416s-.177-34.08-10.591-39.086c0,0-6.456,30.855,7.575,43.436Z" transform="translate(-110.031 -92.322)"/>
    <path id="Path_82" data-name="Path 82" class="cls-2" d="M205.6,262.245s-1.458-35.09-12.242-40.035c0,0-3.687,27.77,10.63,42.333Z" transform="translate(-112.436 -84.293)"/>
    <path id="Path_83" data-name="Path 83" class="cls-2" d="M221.2,223.247s-.062-28.541-7.76-35.237c0,0-7.652,31.264,3.741,40.976Z" transform="translate(-116.552 -76.474)"/>
    <path id="Path_84" data-name="Path 84" class="cls-2" d="M226.342,184.5l-7.49-47.5s-10.174,38.924,7.845,56.079Z" transform="translate(-117.708 -64.813)"/>
    <path id="Path_85" data-name="Path 85" class="cls-2" d="M225.718,126.853S206.495,94.918,206.888,91.37c0,0,2.044,33.47,26.227,50.14Z" transform="translate(-115.626 -54.381)"/>
    <path id="Path_86" data-name="Path 86" class="cls-2" d="M226.41,110.609S208.267,65.252,200.06,61.58c0,0,25.918,13.175,27.862,47.733Z" transform="translate(-114.067 -47.57)"/>
    <path id="Path_87" data-name="Path 87" class="cls-3" d="M220.8,212.449l-1.242-.378c15.312-49.931,19.13-81.766,10.761-89.75l.887-.941C240.086,129.8,236.484,161.291,220.8,212.449Z" transform="translate(-118.525 -61.242)"/>
    <path id="Path_88" data-name="Path 88" class="cls-3" d="M165.966,355.269l-1.836-.656c1.628-4.574,3.379-9.218,5.215-13.792,15.983-39.834,29.59-76.891,38.314-105.34l1.6-.771c-8.74,28.5-22.108,66.979-38.106,106.867C169.321,346.066,167.578,350.687,165.966,355.269Z" transform="translate(-105.852 -87.151)"/>
    <path id="Path_89" data-name="Path 89" class="cls-3" d="M199.045,664.542c-.247-.27-25.062-28.217-42.364-75.927a280.922,280.922,0,0,1-16.716-87c-1.188-37.127,6.6-78.58,19.948-116.239l1.45,1.7C131.4,471.6,143.3,544.022,159.1,587.636c17.117,47.278,41.655,74.916,41.894,75.194Z" transform="translate(-100.3 -121.597)"/>
    <path id="Path_90" data-name="Path 90" class="cls-4" d="M671.062,670.36s-17.487,21.344-3.6,53.611L527.84,784.524l-13.4,2.808-6.171-27,4.127-34.072V707.641Z" transform="translate(-184.53 -186.749)"/>
    <path id="Path_91" data-name="Path 91" class="cls-2" d="M59.16,598.619,252.406,563.39l256.06,40.791L349.423,661.44Z" transform="translate(-13.525 -128.801)"/>
    <path id="Path_92" data-name="Path 92" class="cls-2" d="M59.16,598.619,252.406,563.39l256.06,40.791L349.423,661.44Z" transform="translate(-13.525 -128.801)"/>
    <path id="Path_93" data-name="Path 93" class="cls-2" d="M145.584,652.47s-18.073,34.242,2.754,65.868l286.568,62.1s-17.788-27.276.918-65.135Z" transform="translate(-99.949 -182.659)"/>
    <path id="Path_94" data-name="Path 94" class="cls-5" d="M145.584,652.47s-18.073,34.242,2.754,65.868l286.568,62.1s-17.788-27.276.918-65.135Z" transform="translate(-99.949 -182.659)"/>
    <path id="Path_95" data-name="Path 95" class="cls-5" d="M157.449,667.86s-10.329,25.055,0,41.269" transform="translate(-103.275 -186.178)"/>
    <path id="Path_96" data-name="Path 96" class="cls-2" d="M437.878,798.127,597.862,729.86s8.948,1.928,3.163,8.485-160.061,66.339-160.061,66.339L151.31,736.031Z" transform="translate(-102.921 -200.352)"/>
    <path id="Path_97" data-name="Path 97" class="cls-5" d="M437.878,798.127,597.862,729.86s8.948,1.928,3.163,8.485-160.061,66.339-160.061,66.339L151.31,736.031Z" transform="translate(-102.921 -200.352)"/>
    <path id="Path_98" data-name="Path 98" class="cls-5" d="M503.778,742.86s-15.428,18.513,0,46.283" transform="translate(-181.935 -203.324)"/>
    <rect id="Rectangle_3" data-name="Rectangle 3" class="cls-5" width="72.949" height="0.771" transform="translate(327.335 562.308) rotate(-18.45)"/>
    <rect id="Rectangle_4" data-name="Rectangle 4" class="cls-5" width="88.886" height="0.771" transform="translate(327.309 568.519) rotate(-20.82)"/>
    <rect id="Rectangle_5" data-name="Rectangle 5" class="cls-5" width="103.025" height="0.771" transform="translate(327.774 575.839) rotate(-22.26)"/>
    <rect id="Rectangle_6" data-name="Rectangle 6" class="cls-5" width="118.592" height="0.771" transform="translate(328.886 582.294) rotate(-24.31)"/>
    <rect id="Rectangle_7" data-name="Rectangle 7" class="cls-5" width="129.708" height="0.771" transform="matrix(0.916, -0.401, 0.401, 0.916, 329.743, 585.435)"/>
    <rect id="Rectangle_8" data-name="Rectangle 8" class="cls-5" width="155.217" height="0.771" transform="translate(331.537 590.711) rotate(-23.36)"/>
    <path id="Path_99" data-name="Path 99" class="cls-6" d="M152.23,605.481,287.993,576.94,370.7,592.753,259.452,628.622Z" transform="translate(-34.803 -131.898)"/>
    <path id="Path_100" data-name="Path 100" class="cls-2" d="M683.066,659.69s7.019,2.831,2.9,7.2S524,716.949,524,716.949Z" transform="translate(-188.126 -184.31)"/>
    <path id="Path_101" data-name="Path 101" class="cls-4" d="M770.354,574.18s-17.479,21.336-3.595,53.611L627.14,688.344l-13.4,2.823-6.171-27,4.189-34.064V611.461Z" transform="translate(-207.232 -164.761)"/>
    <path id="Path_102" data-name="Path 102" class="cls-7" d="M158.46,502.431,351.7,467.21,607.766,508,448.722,565.26Z" transform="translate(-36.227 -106.812)"/>
    <path id="Path_103" data-name="Path 103" class="cls-7" d="M244.842,556.29s-18.081,34.242,2.746,65.868l286.568,62.1s-17.78-27.3.949-65.143Z" transform="translate(-122.64 -160.671)"/>
    <path id="Path_104" data-name="Path 104" class="cls-5" d="M244.842,556.29s-18.081,34.242,2.746,65.868l286.568,62.1s-17.78-27.3.949-65.143l-90.622-19.616Z" transform="translate(-122.64 -160.671)"/>
    <path id="Path_105" data-name="Path 105" class="cls-5" d="M256.74,571.68s-10.321,25.047,0,41.269" transform="translate(-125.976 -164.189)"/>
    <path id="Path_106" data-name="Path 106" class="cls-7" d="M537.168,701.947,697.159,633.68s8.94,1.928,3.155,8.485S540.253,708.5,540.253,708.5L250.6,639.851Z" transform="translate(-125.621 -178.364)"/>
    <path id="Path_107" data-name="Path 107" class="cls-5" d="M537.168,701.947,697.159,633.68s8.94,1.928,3.155,8.485S540.253,708.5,540.253,708.5L250.6,639.851Z" transform="translate(-125.621 -178.364)"/>
    <path id="Path_108" data-name="Path 108" class="cls-5" d="M603.068,646.68s-15.428,18.513,0,46.283" transform="translate(-204.635 -181.336)"/>
    <rect id="Rectangle_9" data-name="Rectangle 9" class="cls-5" width="72.949" height="0.771" transform="translate(403.931 488.125) rotate(-18.45)"/>
    <rect id="Rectangle_10" data-name="Rectangle 10" class="cls-5" width="88.886" height="0.771" transform="translate(403.915 494.332) rotate(-20.82)"/>
    <rect id="Rectangle_11" data-name="Rectangle 11" class="cls-5" width="103.025" height="0.771" transform="translate(404.368 501.642) rotate(-22.26)"/>
    <rect id="Rectangle_12" data-name="Rectangle 12" class="cls-5" width="118.592" height="0.771" transform="translate(405.489 508.099) rotate(-24.31)"/>
    <rect id="Rectangle_13" data-name="Rectangle 13" class="cls-5" width="129.708" height="0.771" transform="matrix(0.916, -0.401, 0.401, 0.916, 406.336, 511.23)"/>
    <rect id="Rectangle_14" data-name="Rectangle 14" class="cls-5" width="155.217" height="0.771" transform="translate(408.135 516.505) rotate(-23.36)"/>
    <path id="Path_109" data-name="Path 109" class="cls-8" d="M251.53,509.3,387.293,480.76,470,496.573,358.752,532.442Z" transform="translate(-57.505 -109.91)"/>
    <path id="Path_110" data-name="Path 110" class="cls-7" d="M782.373,563.51s7.012,2.831,2.9,7.2S623.33,620.762,623.33,620.762Z" transform="translate(-210.835 -162.321)"/>
    <path id="Path_111" data-name="Path 111" class="cls-4" d="M779.761,464.15s-17.487,38.314-3.6,70.581l-139.62,43.583-13.368,2.831-6.171-27,4.127-34.072V501.431Z" transform="translate(-209.387 -139.606)"/>
    <path id="Path_112" data-name="Path 112" class="cls-2" d="M167.89,392.409,361.136,357.18,617.2,397.971,458.152,455.23Z" transform="translate(-38.383 -81.657)"/>
    <path id="Path_113" data-name="Path 113" class="cls-2" d="M254.307,446.26s-18.1,34.242,2.723,65.868l286.568,62.1s-17.788-27.3.941-65.135Z" transform="translate(-124.801 -135.516)"/>
    <path id="Path_114" data-name="Path 114" class="cls-5" d="M254.307,446.26s-18.1,34.242,2.723,65.868l286.568,62.1s-17.788-27.3.941-65.135Z" transform="translate(-124.801 -135.516)"/>
    <path id="Path_115" data-name="Path 115" class="cls-5" d="M266.179,461.65s-10.329,25.054,0,41.269" transform="translate(-128.133 -139.034)"/>
    <path id="Path_116" data-name="Path 116" class="cls-2" d="M546.607,593.746l159.984-51.3s8.948,1.928,3.163,8.485S549.693,600.3,549.693,600.3L260.04,531.65Z" transform="translate(-127.779 -155.037)"/>
    <path id="Path_117" data-name="Path 117" class="cls-5" d="M546.607,593.746l159.984-51.3s8.948,1.928,3.163,8.485S549.693,600.3,549.693,600.3L260.04,531.65Z" transform="translate(-127.779 -155.037)"/>
    <path id="Path_118" data-name="Path 118" class="cls-5" d="M612.508,536.65s-15.428,18.513,0,46.283" transform="translate(-206.793 -156.181)"/>
    <rect id="Rectangle_15" data-name="Rectangle 15" class="cls-5" width="72.949" height="0.771" transform="translate(411.215 403.248) rotate(-18.45)"/>
    <rect id="Rectangle_16" data-name="Rectangle 16" class="cls-5" width="88.886" height="0.771" transform="translate(411.194 409.46) rotate(-20.82)"/>
    <rect id="Rectangle_17" data-name="Rectangle 17" class="cls-5" width="103.025" height="0.771" transform="translate(411.639 416.773) rotate(-22.26)"/>
    <rect id="Rectangle_18" data-name="Rectangle 18" class="cls-5" width="118.592" height="0.771" transform="translate(412.772 423.223) rotate(-24.31)"/>
    <rect id="Rectangle_19" data-name="Rectangle 19" class="cls-5" width="129.708" height="0.771" transform="matrix(0.916, -0.401, 0.401, 0.916, 413.622, 426.362)"/>
    <rect id="Rectangle_20" data-name="Rectangle 20" class="cls-5" width="155.217" height="0.771" transform="translate(415.419 431.642) rotate(-23.36)"/>
    <path id="Path_119" data-name="Path 119" class="cls-6" d="M260.96,399.271,396.723,370.73l82.707,15.813L368.182,422.412Z" transform="translate(-59.661 -84.755)"/>
    <path id="Path_120" data-name="Path 120" class="cls-2" d="M791.8,453.48s7.02,2.831,2.9,7.2S632.76,510.74,632.76,510.74Z" transform="translate(-212.99 -137.166)"/>
    <path id="Path_121" data-name="Path 121" class="cls-2" d="M391.245,149.909s-29.312-1.766-25.888,18.8a5.017,5.017,0,0,0,2.607,5.284s.054-1.543,3.008-1.01a13.154,13.154,0,0,0,3.194.154,6.65,6.65,0,0,0,3.9-1.6h0s8.246-3.41,11.455-16.893c0,0,2.376-2.939,2.314-3.695l-4.968,2.114s1.689,3.572.363,6.541c0,0-.162-6.41-1.118-6.264-.193,0-2.569,1.242-2.569,1.242s2.908,6.225.71,10.745c0,0,.833-7.668-1.62-10.3l-3.487,2.036s3.4,6.426,1.1,11.671c0,0,.594-8.046-1.828-11.177l-3.163,2.468s3.2,6.333,1.25,10.684c0,0-.255-9.365-1.928-10.074,0,0-2.769,2.438-3.186,3.44,0,0,2.191,4.628.825,7.027,0,0-.825-6.24-1.543-6.271,0,0-2.754,4.135-3.039,6.942a15.011,15.011,0,0,1,2.368-7.359,8.261,8.261,0,0,0-4.212,2.183s.424-2.924,4.9-3.178c0,0,2.276-3.14,2.885-3.325,0,0-4.451-.378-7.143.818,0,0,2.376-2.754,7.953-1.543l3.086-2.546s-5.847-.771-8.331.085c0,0,2.862-2.438,9.172-.663l3.4-2.029s-4.991-1.072-7.961-.687c0,0,3.132-1.689,8.956.139l2.422-1.088s-3.649-.717-4.721-.833-1.126-.409-1.126-.409a12.735,12.735,0,0,1,6.865.771S391.345,150.233,391.245,149.909Z" transform="translate(-151.793 -67.755)"/>
    <path id="Path_122" data-name="Path 122" class="cls-1" d="M925.845,259.489s-29.312-1.767-25.888,18.8a5.017,5.017,0,0,0,2.607,5.284s.054-1.543,3.008-1.011a13.59,13.59,0,0,0,3.193.154,6.626,6.626,0,0,0,3.857-1.6h0s8.254-3.41,11.455-16.893c0,0,2.376-2.939,2.314-3.695l-4.952,2.114s1.689,3.571.363,6.541c0,0-.162-6.41-1.111-6.264-.193,0-2.576,1.242-2.576,1.242s2.908,6.225.717,10.745c0,0,.833-7.667-1.628-10.3l-3.487,2.036s3.4,6.426,1.1,11.671c0,0,.594-8.045-1.828-11.177l-3.155,2.468s3.194,6.333,1.242,10.684c0,0-.255-9.365-1.929-10.074,0,0-2.761,2.438-3.186,3.44,0,0,2.191,4.628.833,7.027,0,0-.833-6.24-1.543-6.271,0,0-2.754,4.135-3.039,6.942a14.964,14.964,0,0,1,2.376-7.359,8.3,8.3,0,0,0-4.219,2.183s.432-2.924,4.9-3.178c0,0,2.276-3.139,2.885-3.332,0,0-4.443-.37-7.143.825,0,0,2.376-2.754,7.953-1.543l3.086-2.546s-5.855-.771-8.331.085c0,0,2.854-2.438,9.172-.663l3.394-2.029s-4.991-1.072-7.961-.687c0,0,3.132-1.689,8.956.139l2.43-1.088s-3.656-.717-4.729-.833-1.126-.409-1.126-.409a12.643,12.643,0,0,1,6.865.771S925.937,259.813,925.845,259.489Z" transform="translate(-274.014 -92.807)"/>
    <path id="Path_123" data-name="Path 123" class="cls-1" d="M453.4,309.568s-12.774-26.481-29.035-13.43a5.01,5.01,0,0,0-3.34,4.852s1.35-.7,2.314,2.137a13.669,13.669,0,0,0,1.419,2.854,6.657,6.657,0,0,0,3.309,2.623h0s7,5.538,20.334,1.759c0,0,3.726.64,4.335.193l-4.258-3.294s-2.314,3.217-5.539,3.5c0,0,5.523-3.263,4.929-4.019-.123-.154-2.314-1.643-2.314-1.643s-4.019,5.577-9.033,5.863c0,0,7.1-3.008,8.192-6.441l-3.471-2.052s-3.957,6.109-9.658,6.649c0,0,7.313-3.4,8.863-7.043l-3.687-1.543s-3.973,5.878-8.724,6.3c0,0,8.053-4.79,7.853-6.6,0,0-3.479-1.219-4.559-1.1,0,0-2.947,4.158-5.724,4.158,0,0,5.037-3.772,4.729-4.381,0,0-4.952-.386-7.559.771a15.018,15.018,0,0,1,7.583-1.543,8.307,8.307,0,0,0-3.965-2.615s2.762-1.049,5.161,2.723c0,0,3.857.455,4.312.895,0,0-1.844-4.057-4.2-5.824,0,0,3.564.717,5.191,6.171l3.741,1.481s-2.152-5.492-4.135-7.228c0,0,3.517,1.3,5.053,7.714l3.425,1.975s-1.489-4.883-3.278-7.282c0,0,3,1.913,4.243,7.884l2.137,1.589s-1.157-3.541-1.543-4.528-.193-1.188-.193-1.188A12.658,12.658,0,0,1,449,306.267S453.125,309.8,453.4,309.568Z" transform="translate(-164.583 -100.368)"/>
    <path id="Path_124" data-name="Path 124" class="cls-1" d="M837.183,205.948s-12.766-26.481-29.035-13.43a5.02,5.02,0,0,0-3.34,4.852s1.358-.694,2.314,2.137a13.374,13.374,0,0,0,1.427,2.862,6.618,6.618,0,0,0,3.3,2.615h0s7,5.538,20.333,1.766c0,0,3.726.633,4.343.185l-4.235-3.3s-2.314,3.224-5.531,3.51c0,0,5.515-3.271,4.921-4.027-.123-.154-2.314-1.643-2.314-1.643s-4.011,5.577-9.033,5.862c0,0,7.1-3.008,8.2-6.433l-3.525-2.036s-3.949,6.1-9.658,6.649c0,0,7.313-3.41,8.871-7.05l-3.695-1.543s-3.973,5.886-8.717,6.3c0,0,8.045-4.79,7.845-6.6,0,0-3.471-1.226-4.551-1.1,0,0-2.947,4.15-5.731,4.15,0,0,5.045-3.772,4.736-4.381,0,0-4.952-.386-7.567.771a15.011,15.011,0,0,1,7.583-1.543,8.26,8.26,0,0,0-3.957-2.615s2.762-1.049,5.161,2.723c0,0,3.857.463,4.312.9,0,0-1.844-4.065-4.2-5.832,0,0,3.564.725,5.191,6.21l3.749,1.481s-2.152-5.5-4.135-7.236c0,0,3.518,1.3,5.045,7.714l3.433,1.975s-1.5-4.875-3.286-7.282c0,0,3.008,1.913,4.243,7.884l2.137,1.589s-1.149-3.541-1.543-4.528-.193-1.18-.193-1.18a12.69,12.69,0,0,1,2.677,6.364S836.944,206.195,837.183,205.948Z" transform="translate(-252.323 -76.679)"/>
    <path id="Path_125" data-name="Path 125" class="cls-1" d="M890.066,375.756s-12.766-26.489-29.058-13.437a5.02,5.02,0,0,0-3.34,4.852s1.358-.694,2.314,2.137a13.365,13.365,0,0,0,1.419,2.862,6.619,6.619,0,0,0,3.3,2.615h0s7,5.546,20.341,1.766c0,0,3.718.64,4.335.185l-4.258-3.294s-2.314,3.224-5.539,3.51c0,0,5.515-3.271,4.921-4.027-.123-.154-2.314-1.643-2.314-1.643s-4.011,5.577-9.033,5.87c0,0,7.1-3.016,8.2-6.441l-3.479-2.052s-3.95,6.109-9.658,6.649c0,0,7.313-3.409,8.871-7.05l-3.695-1.543s-3.973,5.878-8.717,6.3c0,0,8.053-4.79,7.853-6.6,0,0-3.479-1.227-4.559-1.1,0,0-2.947,4.15-5.731,4.15,0,0,5.045-3.772,4.736-4.381,0,0-4.952-.386-7.567.771a15.056,15.056,0,0,1,7.59-1.543,8.246,8.246,0,0,0-3.965-2.615s2.762-1.057,5.16,2.723c0,0,3.857.455,4.312.895,0,0-1.844-4.057-4.2-5.832,0,0,3.564.725,5.191,6.21l3.741,1.481s-2.152-5.5-4.135-7.228c0,0,3.517,1.3,5.045,7.714l3.433,1.967s-1.5-4.875-3.286-7.282c0,0,3.008,1.913,4.25,7.891l2.137,1.543s-1.157-3.541-1.543-4.528-.193-1.18-.193-1.18a12.612,12.612,0,0,1,2.677,6.364S889.827,375.988,890.066,375.756Z" transform="translate(-264.408 -115.499)"/>
    <ellipse id="Ellipse_19" data-name="Ellipse 19" class="cls-1" cx="17.734" cy="1.982" rx="17.734" ry="1.982" transform="translate(138.046 600.922)"/>
    <ellipse id="Ellipse_20" data-name="Ellipse 20" class="cls-1" cx="17.734" cy="1.982" rx="17.734" ry="1.982" transform="translate(21.791 567.228)"/>
    <ellipse id="Ellipse_21" data-name="Ellipse 21" class="cls-1" cx="17.734" cy="1.982" rx="17.734" ry="1.982" transform="translate(226.662 623.3)"/>
    <ellipse id="Ellipse_22" data-name="Ellipse 22" class="cls-1" cx="17.734" cy="1.982" rx="17.734" ry="1.982" transform="translate(680.773 574.556)"/>
    <ellipse id="Ellipse_23" data-name="Ellipse 23" class="cls-1" cx="17.734" cy="1.982" rx="17.734" ry="1.982" transform="translate(533.201 564.937)"/>
    <ellipse id="Ellipse_24" data-name="Ellipse 24" class="cls-1" cx="20.974" cy="3.602" rx="20.974" ry="3.602" transform="translate(434.495 608.613)"/>
    <path id="Path_126" data-name="Path 126" class="cls-2" d="M685.7,790.14S656.5,805.228,671.587,823a5.645,5.645,0,0,0,5.523,3.587s-.818-1.5,2.314-2.692a15.044,15.044,0,0,0,3.155-1.674,7.413,7.413,0,0,0,2.823-3.772h0s5.97-7.991,1.342-22.779c0,0,.6-4.181.077-4.86l-3.548,4.867s3.664,2.461,4.088,6.078c0,0-3.857-6.071-4.628-5.4-.17.139-1.759,2.661-1.759,2.661s6.356,4.312,6.827,9.912c0,0-3.579-7.845-7.444-8.964l-2.214,3.949s6.942,4.227,7.714,10.583c0,0-4.034-8.061-8.154-9.688l-1.628,4.173s6.7,4.258,7.313,9.55c0,0-5.6-8.848-7.613-8.57,0,0-1.265,3.919-1.1,5.13,0,0,4.729,3.163,4.813,6.271,0,0-4.366-5.515-5.037-5.153,0,0-.278,5.546,1.064,8.431a16.645,16.645,0,0,1-1.936-8.431,9.257,9.257,0,0,0-2.8,4.5s-1.257-3.047,2.885-5.855c0,0,.393-4.312.872-4.844,0,0-4.482,2.191-6.387,4.875,0,0,.7-4,6.781-5.994l1.543-4.227s-6.079,2.576-7.953,4.844c0,0,1.35-3.973,8.431-5.878l2.1-3.857s-5.4,1.82-8.038,3.857c0,0,2.044-3.417,8.686-4.991l1.7-2.43s-3.919,1.4-5.014,1.9-1.311.255-1.311.255a14.184,14.184,0,0,1,7.027-3.193S685.973,790.4,685.7,790.14Z" transform="translate(-220.878 -214.134)"/>
    <path id="Path_127" data-name="Path 127" class="cls-9" d="M726,334.456c-5.045-13.707-32.814-15-44.863-11.5-8.562,2.492-26.613,5.3-36.255,6.711l-.625-.594c1.25-.37,1.28-1.281,1.126-2.63a41.15,41.15,0,0,1,.077-5.338c5.909,1.836,11.17-2.507,11.17-2.507h0c6.942-3.086,5.076-16.292,6.4-19.9,1-2.7,2.067-18.606,2.546-26.535h.1l.054-2.661c.069-1.149.1-1.82.1-1.82s.679-19.393,2.005-23.319c1.234-3.61,2.237-21.8,2.391-24.684V219.3l-.1-1.682c.069-1.227.1-2.592.093-4.027,0-6.6-.687-14.9-.771-16.245v-.7c.054-2.816-.3-16.916-12.3-22.247-4.42-1.975-9.735-4.327-14.88-6.618-1.327-11.455-4.358-22.848-4.1-34.388,0-1.736.154-3.471.324-5.2,0,.5-.054,1.01-.062,1.543v3.363c.455-14.433,5.909-28.942,5.4-43.066-.046,1.381-.147,2.769-.278,4.158A44.837,44.837,0,0,0,642.08,80a8.394,8.394,0,0,0-2.422-4.4,9.974,9.974,0,0,0-4.227-1.674,85.011,85.011,0,0,0-11.1-2.067,17.137,17.137,0,0,0-2.5-4.852c-7.822-10.738-19.408-20.827-33.108-23.141-6.873-1.157-14.78-.193-19.454,4.721a14.578,14.578,0,0,0-1.373,1.388c-2.515,3-3.595,6.942-6.171,9.935-.17.2-.363.386-.548.579C556.133,65,548.272,65.946,542.665,70A22.229,22.229,0,0,0,539.9,72.41a46.961,46.961,0,0,0-6.048,7.351c-2.522,3.548-5.114,7.243-5.917,11.478-1.612,8.485,4.166,16.531,5.238,25.07,2.391,19.107-18.752,36.062-14.749,54.915a25.147,25.147,0,0,0,6.8,12.211c-8.246,7.467-15.266,14.71-15.266,14.71v.432h-1.3l.131,1.543h-.131l.717,8.369-.717,12.188v1.149h.046c.239,4.466,1.188,20.526,2.314,23.913,1.327,3.926,2,23.319,2,23.319s1.466,27.407,2.808,31.033-.563,16.793,6.4,19.9h0a14.657,14.657,0,0,0,7,2.9c-.355,2.885-.131,4.975,1.018,5.631a3.363,3.363,0,0,0,1.62.463,17.2,17.2,0,0,0-1.257,2.2,32.674,32.674,0,0,1-8.084-1.905c-7.482-3.086-32.313-10.028-39.526-5.145s-24.568,9.311-16.554,28.965,11.748,20.148,11.748,20.148a28.541,28.541,0,0,1,6.41,6.441c2.407,3.618,24.831,11.895,30.439,11.895a54.92,54.92,0,0,1,7.135.355s-6.086,5.338-5.276,8.439-1.851,27.924-1.851,27.924,6.171,6.217,8.809-1.936l.093.123c.494.671,3.163,3.7,8.184-.123a45.872,45.872,0,0,1,6.526-4.135l24.314-3.44a68.823,68.823,0,0,1,7.614-.054c3.857.316,7.644-1.967,10.028-3.734,5.037,1.913,10.7,4,13.391,4.767,5.461,1.543,30.562,8.277,36.432,6.171a8.154,8.154,0,0,0,3.163-2.252l5.6.177-2.623.525s5.107.085,12.049.177l-.293.17,8.709-.077c12.743.116,27.06.154,28.942-.27,2.947-.656,18.258-.193,22.771,0h1.257s16.824-3.355,9.881-20.426c-5.338-13.113-21.745-16.924-29.027-17.973,2.052-.409,3.818-.725,4.991-.91,5.083-.771,14.957-5.4,15.759-6.981s9.079-6.171,11.216-8.786S731.066,348.163,726,334.456Zm-139.35,38.361-.825.27-.555.185-1.064,1.049c-.849-.571-1.759-1.172-2.708-1.79C583.17,372.631,584.89,372.731,586.649,372.816Zm73.52,21.737Z" transform="translate(-174.493 -43.42)"/>
    <path id="Path_128" data-name="Path 128" class="cls-10" d="M686.65,336.8s11.8,30.855,18.513,27.77,4.891-16.2,6.171-19.794,2.7-30.855,2.7-30.855.648-19.284,1.928-23.188c1.188-3.587,2.152-21.676,2.314-24.522v-.378L717,243.467l-7.2-1.8-16.708,6.171-2.314,13.214-.9,5.161-.386,2.2Z" transform="translate(-225.311 -88.742)"/>
    <path id="Path_129" data-name="Path 129" class="cls-5" d="M691.69,358.3s11.262,9.218,14.656,10.028,5.477,8,5.477,8" transform="translate(-226.463 -115.406)"/>
    <path id="Path_130" data-name="Path 130" class="cls-10" d="M557.627,338.554s-11.8,30.855-18.513,27.77-4.891-16.2-6.171-19.794-2.7-30.855-2.7-30.855-.648-19.284-1.928-23.188c-1.188-3.587-2.152-21.676-2.314-24.522v-.378l1.28-22.37,7.2-1.8,16.708,6.171,2.314,13.214.9,5.161.386,2.2Z" transform="translate(-188.583 -89.142)"/>
    <rect id="Rectangle_21" data-name="Rectangle 21" class="cls-11" width="26.343" height="41.061" transform="translate(419.554 84.29)"/>
    <rect id="Rectangle_22" data-name="Rectangle 22" class="cls-5" width="26.343" height="41.061" transform="translate(419.554 84.29)"/>
    <path id="Path_131" data-name="Path 131" class="cls-12" d="M559.1,405.862s-9,9.9-5.662,11.694,24.946,35.484,24.946,35.484,70.967,8.74,84.35-4.374,13.113-36.54,13.113-36.54-10.753,2.314-11.926,1.057-7.613-7.32-7.613-7.32S565.273,400.339,559.1,405.862Z" transform="translate(-194.686 -125.719)"/>
    <path id="Path_132" data-name="Path 132" class="cls-13" d="M559.1,405.862s-9,9.9-5.662,11.694,24.946,35.484,24.946,35.484,70.967,8.74,84.35-4.374,13.113-36.54,13.113-36.54-10.753,2.314-11.926,1.057-7.613-7.32-7.613-7.32S565.273,400.339,559.1,405.862Z" transform="translate(-194.686 -125.719)"/>
    <path id="Path_133" data-name="Path 133" class="cls-10" d="M681.134,223.378l-23.141,18.513-7,.509-2.569.185-43.143,3.163-44.74-3.271-6.657-.486-8.485-.617L527.66,224.4s12.558-13.453,23.558-22.532c4.335-3.587,8.431-6.487,11.416-7.629l.509-.177a12.7,12.7,0,0,0,4.891-3.41C576.72,181.7,584.75,159.6,584.75,159.6s38.314-19.794,33.686,6.171,17.225,19.547,17.225,19.547l7.2,3.286,2.846,1.3,7.259,3.325,16.376,7.513C682.2,206.662,681.134,223.378,681.134,223.378Z" transform="translate(-188.963 -68.329)"/>
    <circle id="Ellipse_25" data-name="Ellipse 25" class="cls-5" cx="34.458" cy="34.458" r="34.458" transform="translate(380.067 43.5)"/>
    <path id="Path_134" data-name="Path 134" class="cls-5" d="M680.808,260.264H526v-.378l1.28-22.37s12.558-13.453,23.558-22.532l97.194-3.857,4.52-4.767,16.376,7.513c12.859,5.909,11.825,22.625,11.825,22.625S682.513,255.867,680.808,260.264Z" transform="translate(-188.583 -80.67)"/>
    <path id="Path_135" data-name="Path 135" class="cls-14" d="M680.808,259.264H526v-.378l1.28-22.37s12.558-13.453,23.558-22.532l97.194-3.857,4.52-4.767,16.376,7.513c12.859,5.909,11.825,22.625,11.825,22.625S682.513,254.867,680.808,259.264Z" transform="translate(-188.583 -80.441)"/>
    <path id="Path_136" data-name="Path 136" class="cls-5" d="M590.932,191.923s24.422,31.117,56.951-.64,3.6,70.836,3.6,70.836l-70.2,8.331Z" transform="translate(-201.223 -75.828)"/>
    <path id="Path_137" data-name="Path 137" class="cls-14" d="M590.932,193.922s24.422,31.117,56.951-.64,3.6,70.836,3.6,70.836l-70.2,8.331Z" transform="translate(-201.223 -76.285)"/>
    <path id="Path_138" data-name="Path 138" class="cls-5" d="M651.132,202.623l2.584,39.41,2.769,13.113,2.114,10.028s5.4,77.138,3.857,80.995.771,6.942,1.1,8.994-.324,7.2-.07,9.519,0,3.34-5.909,2.515-14.147-2.26-14.147-2.26-20.827,1.543-28.024-1.026-20.827-2.576-20.827-2.576-20.573.517-27.253-.255-10.29,8.231-14.656,5.654,5.137-27.507,8.223-34.712-4.112-25.456-4.112-25.456l9.257-51.351,2.06-11.64V206.981l.509-.177a12.7,12.7,0,0,0,4.891-3.409l2.314,36.826,72.51,2.576V201.35" transform="translate(-194.422 -79.524)"/>
    <path id="Path_139" data-name="Path 139" class="cls-14" d="M651.132,200.623l2.584,39.41,2.769,13.113,2.114,10.028s5.4,77.138,3.857,80.995.771,6.942,1.1,8.994-.324,7.2-.07,9.519,0,3.34-5.909,2.515-14.147-2.26-14.147-2.26-20.827,1.543-28.024-1.026-20.827-2.576-20.827-2.576-20.573.517-27.253-.255-10.29,8.231-14.656,5.654,5.137-27.507,8.223-34.712-4.112-25.456-4.112-25.456l9.257-51.351,2.06-11.64V204.981l.509-.177a12.7,12.7,0,0,0,4.891-3.409l2.314,36.826,72.51,2.576V199.35" transform="translate(-194.422 -79.067)"/>
    <path id="Path_140" data-name="Path 140" class="cls-5" d="M656.273,83.607a8.5,8.5,0,0,0-2.314-4.366,9.473,9.473,0,0,0-4.073-1.666,80.474,80.474,0,0,0-10.707-2.052,17.139,17.139,0,0,0-2.314-4.806c-7.56-10.676-18.745-20.742-31.9-23.018-6.888-1.2-14.872-.123-19.285,5.307-2.422,2.985-3.463,6.942-5.909,9.874-4.713,5.693-13.221,6.395-19.161,10.8-3.17,2.314-5.469,5.67-7.714,8.925-2.43,3.525-4.929,7.2-5.7,11.409-1.543,8.416,4.019,16.438,5.045,24.931,2.314,19-18.05,35.854-14.2,54.6,2.245,10.93,12.342,18.629,22.787,22.532,3.68,1.381,7.883,2.754,9.6,6.287.771,1.543.9,3.325,1.628,4.883,2.438,5.2,10.452,5.4,14.757,1.612s5.662-9.912,6.171-15.628c2.067-24.962-7.93-49.623-6.765-74.646.347-7.567,2.476-16.153,9.257-19.578,9.125-4.628,20.1,3.086,30.146,1.612A59.806,59.806,0,0,1,628.5,137.11c-1.6,6.657-4.358,13.113-4.559,19.979-.3,10.452,5.338,20,10.213,29.243a15.558,15.558,0,0,1,2.06,5.639,13.591,13.591,0,0,1-1.1,5.9c-2.754,7.413-7.506,14.294-8.046,22.185a3.587,3.587,0,0,0,.578,2.638,3.317,3.317,0,0,0,1.99.895c8.331,1.427,15.536-5.955,19.6-13.368a62.666,62.666,0,0,0,7.729-26.628c.841-15.705-4.79-31.156-4.443-46.877C652.925,118.844,661,100.848,656.273,83.607Z" transform="translate(-191.224 -44.296)"/>
    <path id="Path_141" data-name="Path 141" class="cls-11" d="M657.273,82.607a8.5,8.5,0,0,0-2.314-4.366,9.473,9.473,0,0,0-4.073-1.666,80.468,80.468,0,0,0-10.707-2.052,17.137,17.137,0,0,0-2.314-4.806c-7.56-10.676-18.745-20.742-31.9-23.018-6.888-1.2-14.872-.123-19.284,5.307-2.422,2.985-3.464,6.942-5.909,9.874-4.713,5.693-13.221,6.395-19.161,10.8-3.17,2.314-5.469,5.67-7.714,8.925-2.43,3.525-4.929,7.2-5.7,11.409-1.543,8.416,4.019,16.438,5.045,24.931,2.314,19-18.05,35.854-14.2,54.6,2.245,10.93,12.342,18.629,22.787,22.532,3.68,1.381,7.883,2.754,9.6,6.287.771,1.543.9,3.325,1.628,4.883,2.438,5.2,10.452,5.4,14.757,1.612s5.662-9.912,6.171-15.628c2.067-24.962-7.93-49.623-6.765-74.646.347-7.567,2.476-16.153,9.257-19.578,9.125-4.628,20.1,3.086,30.146,1.612A59.805,59.805,0,0,1,629.5,136.11c-1.6,6.657-4.358,13.113-4.559,19.979-.3,10.452,5.338,20,10.213,29.243a15.562,15.562,0,0,1,2.06,5.639,13.593,13.593,0,0,1-1.1,5.9c-2.754,7.413-7.506,14.294-8.046,22.185a3.587,3.587,0,0,0,.579,2.638,3.317,3.317,0,0,0,1.99.895c8.331,1.427,15.536-5.955,19.6-13.368a62.666,62.666,0,0,0,7.729-26.628c.841-15.705-4.79-31.156-4.443-46.877C653.925,117.844,662,99.848,657.273,82.607Z" transform="translate(-191.452 -44.067)"/>
    <path id="Path_142" data-name="Path 142" class="cls-15" d="M581.79,486.294l30.6.98L608,464.58l-23.442,2.229Z" transform="translate(-133.009 -106.211)"/>
    <path id="Path_143" data-name="Path 143" class="cls-12" d="M751.148,452.249c-2.06,2.569-10.028,7.2-10.8,8.74s-10.282,6.171-15.173,6.942-20.311,4.119-23.141,5.917c-2.029,1.3-18.313,5.4-29.012,7.675a82.333,82.333,0,0,1-8.786,1.581c-4.628.255-55.277-16.97-55.277-16.97l9.766-10.028.54-.185c2.762-.933,15.52-5.245,22.6-7.3C649.843,446.309,659.1,436.8,659.1,436.8s13.622-4.628,15.428-5.145-4.628-18-4.628-18,29.567-4.1,41.138-7.583,38.314-2.191,43.2,11.44S753.239,449.68,751.148,452.249Z" transform="translate(-207.549 -125.953)"/>
    <path id="Path_144" data-name="Path 144" class="cls-14" d="M599.265,514.673s-5.909,6.171-11.825,5.662-26.6,1.543-26.6,1.543a41.472,41.472,0,0,0-10.421,6.04c-4.837,3.811-7.405.771-7.883.123l-.085-.123c-2.576,8.107-8.485,1.928-8.485,1.928s2.569-24.684,1.782-27.77,5.083-8.385,5.083-8.385l6.942-1.766,17.587-4.5,25.2,8.74Z" transform="translate(-190.403 -144.926)"/>
    <path id="Path_145" data-name="Path 145" class="cls-5" d="M547.737,493.26l-5.207,36.116-.085-.123c-2.576,8.107-8.485,1.928-8.485,1.928s2.569-24.684,1.782-27.77,5.083-8.385,5.083-8.385Z" transform="translate(-190.403 -146.261)"/>
    <path id="Path_146" data-name="Path 146" class="cls-5" d="M599,360.08s13.622,4.628,25.455,0" transform="translate(-205.272 -115.813)"/>
    <path id="Path_147" data-name="Path 147" class="cls-5" d="M659.29,371.42s5.654,2.823,10.028,0" transform="translate(-219.056 -118.406)"/>
    <path id="Path_148" data-name="Path 148" class="cls-5" d="M659.29,379.716s9.511,1.273,11.316-1.3" transform="translate(-219.056 -120.006)"/>
    <path id="Path_149" data-name="Path 149" class="cls-5" d="M655.29,397.15s17.865-2.314,22.3-5.4" transform="translate(-218.141 -123.054)"/>
    <path id="Path_150" data-name="Path 150" class="cls-5" d="M584.62,391.75s10.028,5.654,17.487,5.4" transform="translate(-201.985 -123.054)"/>
    <path id="Path_151" data-name="Path 151" class="cls-5" d="M673.013,496.782a82.374,82.374,0,0,1-8.786,1.581c-4.628.255-55.277-16.97-55.277-16.97l9.766-10.028.54-.185c1.543,1.088,2.808,2.021,3.71,2.731,4.25,3.348,8.354-1.026,9.9-1.026s14.911,11.054,14.911,11.054,12.342,2.831,14.4,5.4,9.257,2.06,10.537,3.857C673.1,493.751,673.144,495.116,673.013,496.782Z" transform="translate(-207.547 -141.213)"/>
    <path id="Path_152" data-name="Path 152" class="cls-12" d="M546.375,415.044s-12.481.717-19.678-2.314-31.11-10.028-38.052-5.114-23.658,9.257-15.944,28.8,11.316,20.056,11.316,20.056a27.848,27.848,0,0,1,6.171,6.4C492.5,466.48,514.1,474.7,519.5,474.7s14.911,0,28.279,9.257,25.456,10.29,25.456,10.29,16.97,6.942,22.254,8.485,29.428,8.223,35.09,6.171,9.257-14.919,9.257-14.919,2.569-11.571,1.28-13.368-8.485-1.288-10.537-3.857-14.4-5.4-14.4-5.4S602.839,460.3,601.3,460.3s-5.647,4.366-9.9,1.026a225.783,225.783,0,0,0-26.62-16.97C555.014,439.212,546.375,415.044,546.375,415.044Z" transform="translate(-175.943 -126.292)"/>
    <path id="Path_153" data-name="Path 153" class="cls-5" d="M536.27,427.332a14.734,14.734,0,0,1,12.643,3.34c6.171,5.145,26.937,15.474,26.937,15.474" transform="translate(-190.931 -131.12)"/>
    <path id="Path_154" data-name="Path 154" class="cls-5" d="M726.612,427s-27.515,4.165-32.653,9.82" transform="translate(-226.982 -131.112)"/>
    <path id="Path_155" data-name="Path 155" class="cls-14" d="M756.332,525.989h-1.211c-4.351-.154-19.092-.617-21.93,0-3.34.771-47.571,0-47.571,0l8.647-1.8s-3.209-11.247-1.173-12.18c0,0-11.571-7.621-2.846-12.766a27.065,27.065,0,0,1,18.127-2.978l21.9-7.421,4.2-1.427s24.684,1.288,31.364,18.259S756.332,525.989,756.332,525.989Z" transform="translate(-225.075 -144.926)"/>
    <path id="Path_156" data-name="Path 156" class="cls-5" d="M769.567,526h-1.211c7.182-5.924,23.427-23.959-24.846-37.1l4.2-1.427s24.684,1.288,31.364,18.259S769.567,526,769.567,526Z" transform="translate(-238.31 -144.937)"/>
    <circle id="Ellipse_26" data-name="Ellipse 26" class="cls-12" cx="1.35" cy="1.35" r="1.35" transform="translate(484.527 358.369)"/>
    <circle id="Ellipse_27" data-name="Ellipse 27" class="cls-12" cx="1.35" cy="1.35" r="1.35" transform="translate(476.682 360.599)"/>
    <g id="Group_2" data-name="Group 2" class="cls-16" transform="translate(347.308 48.514)">
      <path id="Path_157" data-name="Path 157" d="M645.723,134.561a59.851,59.851,0,0,0-4.428-24.792c-10.028,1.5-21.012-6.24-30.145-1.612-6.757,3.425-8.879,12.01-9.257,19.578-.093,2-.108,4-.069,5.994,0-.71,0-1.427.069-2.137.355-7.567,2.476-16.153,9.257-19.578,9.133-4.628,20.1,3.086,30.145,1.612A59.692,59.692,0,0,1,645.723,134.561Z" transform="translate(-553.222 -106.391)"/>
      <path id="Path_158" data-name="Path 158" d="M556.4,133.609a25.7,25.7,0,0,0-.1-5.045c-.818-6.788-4.528-13.275-5.2-19.894-.864,7.984,4.219,15.651,5.2,23.751A4.818,4.818,0,0,1,556.4,133.609Z" transform="translate(-541.607 -106.85)"/>
      <path id="Path_159" data-name="Path 159" d="M594.26,224.016c-.478,5.724-1.828,11.841-6.171,15.636s-12.342,3.587-14.757-1.612c-.771-1.543-.887-3.34-1.635-4.883-1.712-3.533-5.924-4.906-9.6-6.287-10.452-3.911-20.534-11.571-22.779-22.532a23.7,23.7,0,0,1-.409-3.008,24.312,24.312,0,0,0,.409,6.865c2.245,10.93,12.342,18.621,22.779,22.532,3.68,1.381,7.891,2.754,9.6,6.287.771,1.543.9,3.325,1.635,4.883,2.43,5.2,10.445,5.4,14.757,1.612s5.654-9.912,6.171-15.636a88.152,88.152,0,0,0,.239-9.056C594.5,220.568,594.4,222.3,594.26,224.016Z" transform="translate(-538.823 -128.034)"/>
      <path id="Path_160" data-name="Path 160" d="M687.93,145.789v3.34c.432-14.348,5.693-28.772,5.176-42.819C692.7,119.3,688.223,132.583,687.93,145.789Z" transform="translate(-572.912 -106.31)"/>
      <path id="Path_161" data-name="Path 161" d="M662.884,222.353a9.943,9.943,0,0,0,.177-2.785A15.426,15.426,0,0,0,661,213.929c-4.459-8.485-9.542-17.171-10.144-26.589,0,.4-.054.771-.062,1.2-.309,10.444,5.33,20,10.205,29.243A18.519,18.519,0,0,1,662.884,222.353Z" transform="translate(-564.419 -124.835)"/>
      <path id="Path_162" data-name="Path 162" d="M684.785,217.8A62.77,62.77,0,0,1,677,244.431c-4.073,7.413-11.27,14.8-19.608,13.368a3.278,3.278,0,0,1-1.99-.9,1.93,1.93,0,0,1-.363-.6c-.093.6-.17,1.211-.216,1.828a3.556,3.556,0,0,0,.578,2.63,3.278,3.278,0,0,0,1.99.9c8.339,1.427,15.536-5.955,19.609-13.368a62.77,62.77,0,0,0,7.783-26.628c.093-1.805.1-3.6.046-5.4C684.816,216.777,684.816,217.286,684.785,217.8Z" transform="translate(-565.331 -131.447)"/>
    </g>
    <path id="Path_163" data-name="Path 163" class="cls-17" d="M695.31,516.355s19.524,8.192,32.4-9.935" transform="translate(-227.291 -149.269)"/>
    <path id="Path_164" data-name="Path 164" class="cls-17" d="M700.29,536.464s15.944-10.367,36.255-.339" transform="translate(-228.429 -155.061)"/>
    <path id="Path_165" data-name="Path 165" class="cls-17" d="M561.93,532.464s6.7-15.1,24.576-3.587" transform="translate(-196.797 -153.414)"/>
    <path id="Path_166" data-name="Path 166" class="cls-5" d="M533.79,240.777l13.653-12.342s52.94-3.471,55.13,14.525c0,0,18.768-21.336,58.239-16.585l16.7,13.3L631.354,259.93,586.5,275.489,553.46,260.7Z" transform="translate(-190.364 -85.088)"/>
    <path id="Path_167" data-name="Path 167" class="cls-4" d="M533.79,241.777l13.653-12.342s52.94-3.471,55.13,14.525c0,0,18.768-21.336,58.239-16.585l16.7,13.3L631.354,260.93,586.5,276.489,553.46,261.7Z" transform="translate(-190.364 -85.316)"/>
    <path id="Path_168" data-name="Path 168" class="cls-5" d="M437.38,204.83l6.04,72.255,64.025,3.217-2.777-71.947-.054-1.211Z" transform="translate(-99.994 -46.827)"/>
    <path id="Path_169" data-name="Path 169" class="cls-2" d="M437.38,202.83l6.04,72.255,64.025,3.217-2.777-71.947-.054-1.211Z" transform="translate(-99.994 -46.369)"/>
    <path id="Path_170" data-name="Path 170" class="cls-5" d="M615.755,202.83l-66.046,9.9v72.579l64.541-9.326Z" transform="translate(-125.675 -46.369)"/>
    <path id="Path_171" data-name="Path 171" class="cls-2" d="M615.755,200.83l-66.046,9.9v72.579l64.541-9.326Z" transform="translate(-125.675 -45.912)"/>
    <path id="Path_172" data-name="Path 172" class="cls-6" d="M604.566,223.79l-35.676,3.965.779,12.157,34.874-3.811Z" transform="translate(-130.06 -51.161)"/>
    <path id="Path_173" data-name="Path 173" class="cls-10" d="M537.83,371.008l3.633,9.773s5.4,4.628,11.308,2.314,11.062-3.464,13.63-5.716,6.171-13.569,6.171-13.569,3.6-12.342,7.2-15.428,13.113-45.6,0-41.439-23.141,42.727-23.141,42.727a9.146,9.146,0,0,1-5.654,3.086c-3.34.262-10.028-.517-11.316,2.314S533.974,365.354,537.83,371.008Z" transform="translate(-190.933 -103.6)"/>
    <path id="Path_174" data-name="Path 174" class="cls-5" d="M632.549,257.649a22.216,22.216,0,0,1-19.369-4.829l2.785,71.939s6.557,7.1,16.585,5.477Z" transform="translate(-208.514 -91.291)"/>
    <path id="Path_175" data-name="Path 175" class="cls-2" d="M632.549,255.649a22.216,22.216,0,0,1-19.369-4.829l2.785,71.939s6.557,7.1,16.585,5.477Z" transform="translate(-208.514 -90.834)"/>
    <path id="Path_176" data-name="Path 176" class="cls-5" d="M632.549,255.649a22.216,22.216,0,0,1-19.369-4.829l2.785,71.939s6.557,7.1,16.585,5.477Z" transform="translate(-208.514 -90.834)"/>
    <path id="Path_177" data-name="Path 177" class="cls-5" d="M640.29,244.445s26.867-8.215,33.871-7.058" transform="translate(-214.712 -87.737)"/>
    <path id="Path_178" data-name="Path 178" class="cls-5" d="M592.322,240.517s-26.042-6.171-30.392-4.42" transform="translate(-196.797 -87.397)"/>
    <path id="Path_179" data-name="Path 179" class="cls-5" d="M662.25,246.625s17.965-6.588,24.46-3.456" transform="translate(-219.733 -88.892)"/>
    <path id="Path_180" data-name="Path 180" class="cls-5" d="M650.52,458.125a59.06,59.06,0,0,1,8.855-5.5c4.628-2.229,13.113-8.015,13.113-8.015" transform="translate(-217.051 -135.138)"/>
    <path id="Path_181" data-name="Path 181" class="cls-5" d="M555.963,360.08s-11.27,9.218-14.656,10.028-5.477,8-5.477,8" transform="translate(-190.83 -115.813)"/>
    <path id="Path_182" data-name="Path 182" class="cls-10" d="M700.909,369.235l-3.595,9.8s-5.4,4.628-11.316,2.314-11.054-3.464-13.63-5.716-6.171-13.569-6.171-13.569-3.595-12.342-7.2-15.428-13.113-45.6,0-41.439,23.141,42.727,23.141,42.727a9.146,9.146,0,0,0,5.654,3.086c3.34.262,10.028-.517,11.316,2.314S704.766,363.6,700.909,369.235Z" transform="translate(-217.455 -103.2)"/>
    <path id="Path_183" data-name="Path 183" class="cls-5" d="M707.15,364.94s7.367,4.736,7.336,10.4" transform="translate(-229.998 -116.924)"/>
    <circle id="Ellipse_28" data-name="Ellipse 28" class="cls-10" cx="34.458" cy="34.458" r="34.458" transform="translate(380.19 41.811)"/>
    <path id="Path_184" data-name="Path 184" class="cls-11" d="M593.013,119.533c4.181-.656,7.845-3.086,11.841-4.482,8.94-3.14,18.829-.987,27.878,1.844,3.471,1.088,7,2.314,10.637,2.314s7.506-1.489,9.365-4.628c1.712-2.885,1.381-6.634-.062-9.665s-3.857-5.469-6.294-7.768C638.355,89.573,628.4,82.492,617.4,83.263c-4.428.316-8.663,1.9-12.736,3.649a140.407,140.407,0,0,0-14.949,7.529c-3.71,2.152-10.583,5.029-12.72,8.963C572.132,112.267,585.454,120.721,593.013,119.533Z" transform="translate(-200.003 -52.514)"/>
    <path id="Path_185" data-name="Path 185" class="cls-5" d="M652.732,117.869c-1.859,3.14-5.724,4.628-9.365,4.628s-7.166-1.18-10.645-2.268c-9.048-2.831-18.93-4.991-27.878-1.844-3.988,1.4-7.66,3.857-11.841,4.474-6.094.957-15.906-4.351-16.97-11.1-1.2,7.8,10.182,14.479,16.97,13.414,4.181-.656,7.853-3.086,11.841-4.474,8.948-3.147,18.829-.987,27.878,1.844,3.479,1.088,7,2.314,10.645,2.268s7.505-1.481,9.365-4.628a9.033,9.033,0,0,0,1.08-5.639,8.316,8.316,0,0,1-1.08,3.325Z" transform="translate(-200.002 -59.042)"/>
    <path id="Path_186" data-name="Path 186" class="cls-2" d="M1034.269,661.63s4.574,5.978-2.114,15.011-12.2,16.654-9.974,22.285c0,0,10.09-16.77,18.3-17.009S1043.286,671.712,1034.269,661.63Z" transform="translate(-301.906 -184.754)"/>
    <path id="Path_187" data-name="Path 187" class="cls-5" d="M1034.347,661.63a7.4,7.4,0,0,1,.933,1.874c8.007,9.411,12.28,18.2,4.574,18.413-7.174.208-15.775,13.036-17.834,16.268a7.542,7.542,0,0,0,.239.771s10.09-16.77,18.3-17.009S1043.364,671.712,1034.347,661.63Z" transform="translate(-301.983 -184.754)"/>
    <path id="Path_188" data-name="Path 188" class="cls-18" d="M1048.687,671.111c0,2.106-.239,3.811-.525,3.811s-.532-1.7-.532-3.811.293-1.111.586-1.111S1048.687,669.005,1048.687,671.111Z" transform="translate(-307.838 -186.613)"/>
    <path id="Path_189" data-name="Path 189" class="cls-18" d="M1051.722,674.33c-1.844,1-3.456,1.612-3.595,1.358s1.242-1.28,3.085-2.314,1.118-.278,1.257,0S1053.573,673.32,1051.722,674.33Z" transform="translate(-307.95 -187.318)"/>
    <path id="Path_190" data-name="Path 190" class="cls-2" d="M1003.619,661.63s-4.574,5.978,2.114,15.011,12.2,16.654,9.966,22.285c0,0-10.082-16.77-18.3-17.009S994.625,671.712,1003.619,661.63Z" transform="translate(-295.431 -184.754)"/>
    <path id="Path_191" data-name="Path 191" class="cls-5" d="M1003.619,661.63a7.4,7.4,0,0,0-.933,1.874c-8.007,9.411-12.28,18.2-4.574,18.413,7.166.208,15.775,13.036,17.834,16.268a5.968,5.968,0,0,1-.247.771s-10.082-16.77-18.3-17.009S994.625,671.712,1003.619,661.63Z" transform="translate(-295.431 -184.754)"/>
    <path id="Path_192" data-name="Path 192" class="cls-18" d="M995.64,671.111c0,2.106.232,3.811.525,3.811s.532-1.7.532-3.811S996.4,670,996.11,670,995.64,669.005,995.64,671.111Z" transform="translate(-295.952 -186.613)"/>
    <path id="Path_193" data-name="Path 193" class="cls-18" d="M991.527,674.33c1.844,1,3.456,1.612,3.595,1.358s-1.242-1.28-3.086-2.314-1.118-.278-1.257,0S989.676,673.32,991.527,674.33Z" transform="translate(-294.755 -187.318)"/>
    <ellipse id="Ellipse_29" data-name="Ellipse 29" class="cls-1" cx="47.826" cy="7.336" rx="47.826" ry="7.336" transform="translate(672.45 545.259)"/>
    <path id="Path_194" data-name="Path 194" class="cls-19" d="M1039.644,698.7l-.231,1.867-.324,2.638-.131,1.1-.324,2.638-.139,1.1-.316,2.63-3.664,30.007c-.324,2.677-4.7,4.767-9.982,4.767h-19.014c-5.284,0-9.65-2.091-9.982-4.767l-3.664-30.007-.324-2.63-.131-1.1-.324-2.638-.139-1.1-.316-2.638-.231-1.867c-.177-1.543,2.183-2.792,5.176-2.792h38.893C1037.461,695.91,1039.83,697.183,1039.644,698.7Z" transform="translate(-294.754 -192.591)"/>
    <path id="Path_195" data-name="Path 195" class="cls-20" d="M950.9,658.53l-.316,2.638H902.454l-.324-2.638Z" transform="translate(-206.245 -150.552)"/>
    <path id="Path_196" data-name="Path 196" class="cls-20" d="M950.584,663.38l-.316,2.638H903.044l-.324-2.638Z" transform="translate(-206.38 -151.66)"/>
    <path id="Path_197" data-name="Path 197" class="cls-20" d="M950.266,668.23l-.324,2.638H903.636l-.316-2.638Z" transform="translate(-206.517 -152.769)"/>
  </g>
</svg>
