<svg xmlns="http://www.w3.org/2000/svg" width="836.463" height="963.778" viewBox="0 0 836.463 963.778">
  <defs>
    <style>
      .cls-1 {
        fill: #3f3d56;
      }

      .cls-2 {
        fill: #f7ba34;
      }

      .cls-3 {
        fill: #fff;
      }

      .cls-4 {
        fill: #2f2e41;
      }

      .cls-5 {
        fill: #ebbc8d;
      }

      .cls-6 {
        opacity: 0.1;
      }

      .cls-7 {
        fill: #d0cde1;
      }
    </style>
  </defs>
  <g id="think" transform="translate(-91.601 -46.441)">
    <ellipse id="Ellipse_30" data-name="Ellipse 30" class="cls-1" cx="418.019" cy="73.848" rx="418.019" ry="73.848" transform="translate(91.601 862.523)"/>
    <path id="Path_201" data-name="Path 201" class="cls-2" d="M192.875,350.554a105.121,105.121,0,1,1,48.774,39.161,34,34,0,1,1-48.774-39.161Z" transform="translate(542.841 72.08)"/>
    <rect id="Rectangle_24" data-name="Rectangle 24" class="cls-3" width="125.048" height="9.872" transform="translate(760.522 342.933)"/>
    <rect id="Rectangle_25" data-name="Rectangle 25" class="cls-3" width="125.048" height="9.872" transform="translate(760.522 359.387)"/>
    <rect id="Rectangle_26" data-name="Rectangle 26" class="cls-3" width="125.048" height="9.872" transform="translate(760.522 375.841)"/>
    <path id="Path_202" data-name="Path 202" class="cls-2" d="M1028.8,330.917a162.648,162.648,0,1,0-75.465,60.592,52.612,52.612,0,1,0,75.465-60.592Z" transform="translate(-620.77 -31.041)"/>
    <rect id="Rectangle_27" data-name="Rectangle 27" class="cls-3" width="193.479" height="15.275" transform="translate(176.166 176.561)"/>
    <rect id="Rectangle_28" data-name="Rectangle 28" class="cls-3" width="193.479" height="15.275" transform="translate(176.166 202.018)"/>
    <rect id="Rectangle_29" data-name="Rectangle 29" class="cls-3" width="193.479" height="15.275" transform="translate(176.166 227.476)"/>
    <path id="Path_203" data-name="Path 203" class="cls-2" d="M690.527,753.831a111.128,111.128,0,1,0-51.561,41.4,35.947,35.947,0,1,0,51.561-41.4Z" transform="translate(19.345 101.154)"/>
    <path id="Path_204" data-name="Path 204" class="cls-4" d="M642.988,366.381s-57.38,1.56-66.856,5.008-13.714,28.1-13.714,28.1l44.552,14,33.322-1.888,25.078,1.772-14-36.674Z" transform="translate(-38.431 25.079)"/>
    <path id="Path_205" data-name="Path 205" class="cls-5" d="M633.727,352.486s-3.775,14.581,4.6,24.905S602.311,424.5,602.311,424.5l-23.422-4.026s5.162-44.8-1.772-56.147S633.727,352.486,633.727,352.486Z" transform="translate(-31.646 20.147)"/>
    <path id="Path_206" data-name="Path 206" class="cls-6" d="M633.727,352.486s-3.775,14.581,4.6,24.905S602.311,424.5,602.311,424.5l-23.422-4.026s5.162-44.8-1.772-56.147S633.727,352.486,633.727,352.486Z" transform="translate(-31.646 20.147)"/>
    <path id="Path_207" data-name="Path 207" class="cls-5" d="M515.21,590.132l51.679,68.532L531.62,679.255l-48.539-79.416Z" transform="translate(-68.895 208.811)"/>
    <path id="Path_208" data-name="Path 208" class="cls-4" d="M762.686,723.224s19.03-22.112,18.183-17.181,13.541,46.747.154,50.792-128.184,14.773-129.764,1.81,34.247-22.035,34.247-22.035,21.284-20.455,26-18.375S762.686,723.224,762.686,723.224Z" transform="translate(-280.123 145.407)"/>
    <path id="Path_209" data-name="Path 209" class="cls-5" d="M585.1,639.823l-41.277,70.322L512.663,692.1l41.623-57.573Z" transform="translate(-127.196 224.571)"/>
    <path id="Path_210" data-name="Path 210" class="cls-4" d="M727.874,593.213l12.25,17.335s58.4,81.11,52.2,87.659-32.032,31.3-45.168,26.5-59.806-87.7-59.806-87.7l12.173-48.673Z" transform="translate(-335.126 103.876)"/>
    <path id="Path_211" data-name="Path 211" class="cls-4" d="M862.468,604.59s-13.078,24.4-46.227,32.667S748.46,662.412,747.227,662.2s-4.719-2.08-5.567,2.851-9.939,13.522-9.939,13.522S695.105,803,681.121,803.135,638.4,793.254,637.8,789.344,680.621,658.367,681.045,655.9l5.085-29.586s-57.418,9.168-62.773,10.786-52.988,27.7-52.988,27.7-48.558-35-3.139-70.342,123.485-61.27,123.485-61.27l28.006-7.878,24.408-1.457,3.594-13.782,57.807,3.335L864.857,539Z" transform="translate(-218.147 76.09)"/>
    <path id="Path_212" data-name="Path 212" class="cls-7" d="M649,367.627l-5.416-.931s-9.782,37.662-40.041,43.884c0,0-14.931-17.887-14.294-20.9s-11.825-19.12-18.451-10.106,1.617,167.805-3.949,170.656-17.509,5.875-7.9,16.411,47.787,24.713,56.243,19.82,25.733-46.343,33.207-60.288,19.435-61.386,19.435-61.386,15.274-51.948,5.875-63.717S649,367.627,649,367.627Z" transform="translate(-40.239 25.191)"/>
    <path id="Path_213" data-name="Path 213" class="cls-4" d="M530.586,564.551a256.89,256.89,0,0,0,5.158,32.883c2.208,8.818,4.78,14.143,7.714,13.916,7.487-.56,10.891,10.422,12.645,23.082,1.876,13.432,1.876,28.754,2.9,34.169,1.361,7.155,10.074,12.615,27.483,11.012a122.845,122.845,0,0,0,30.282-7.427c23.505-8.546,22.81-77.852,18.877-129.28-2.4-31.522-6.02-56.344-6.02-56.344s7.139-21.3,9.423-35.893a47.71,47.71,0,0,0,.681-8.062c-.348-12.751-23.626-47.207-37.693-68.671s-33.292-5.717-33.292-5.717l6.686,20.178S565.073,404.385,565,419.6s-24.806,26.2-33.685,33.564C525.731,457.793,525.868,519.581,530.586,564.551Z" transform="translate(35.084 23.755)"/>
    <path id="Path_214" data-name="Path 214" class="cls-4" d="M686.142,372.081s-1.623,1.918-9.053.982c-8.911-1.122-21.163,1.961-24.009,10.468-5.22,15.6-19.936,79.068-19.936,79.068s-6.125,72.558-8.88,88.583-1.387,30.221-4.1,38.638,26.812-15.7,37.695-12.558,17.875-37.54,16.507-51.736-2.523-29.624,1.252-44.2-2.918-53.171-2.668-62.012S696.944,388.187,686.142,372.081Z" transform="translate(-140.024 27.103)"/>
    <path id="Path_225" data-name="Path 225" class="cls-5" d="M45.029,0A45.029,45.029,0,0,1,90.058,45.029c0,24.869-20.16,62.687-45.029,62.687s-46.3-30.358-46.3-55.227S20.16,0,45.029,0Z" transform="translate(522.999 311.597)"/>
    <path id="Path_215" data-name="Path 215" class="cls-5" d="M689.527,538.507s-47.677,26.01-52.24,63.031,63.769-35.846,63.769-35.846Z" transform="translate(-175.271 86.185)"/>
    <path id="Path_216" data-name="Path 216" class="cls-5" d="M710.651,520.242s-14.609,73.638-37.367,69.726S686,516,686,516Z" transform="translate(-223.611 78.197)"/>
    <path id="Path_217" data-name="Path 217" class="cls-4" d="M783.944,758.828s11.653,13.425,14.542,11.384,9.534,25.752,3.544,31.069-29.065,14.041-29.316,22.883-62.137,7.088-64.352-2.177,7.762-30.394,14.773-34.266,32.935-39.5,32.935-39.5S776.374,751.182,783.944,758.828Z" transform="translate(-374.843 160.633)"/>
    <path id="Path_218" data-name="Path 218" class="cls-6" d="M552.511,624.579c11.057-7.8,41.929-9.741,69.337-11.541,12.025-.771,23.384-1.528,32.112-2.753,8.41-1.165,15.973-8.849,22.689-20.3,10.18-17.349,18.408-43.366,24.746-68.474-2.4-31.522-6.02-56.343-6.02-56.343s7.139-21.3,9.423-35.893a19.208,19.208,0,0,0-6.081-5.476c-29.072-12.479-56.828,110.327-60.352,129.6-.061.318-.106.62-.151.877-1.709,9.923-20.178,18.408-36.725,21.766-10.195,2.072-19.679,2.208-24.05-.484-11.48-7.049-46.784,21.161-49.461,21.963C525.3,598.337,536.629,635.818,552.511,624.579Z" transform="translate(-30.66 45.148)"/>
    <path id="Path_219" data-name="Path 219" class="cls-4" d="M692.721,418.221s21.13,9.977,11.846,56.609-27.987,125.912-56.59,129.879S562.417,607.772,546.526,619s-27.216-26.253-24.539-27.062,37.984-29.008,49.463-21.958,58.015-5.258,60.77-21.284S663.175,405.529,692.721,418.221Z" transform="translate(-24.669 43.167)"/>
    <path id="Path_220" data-name="Path 220" class="cls-4" d="M708.038,401.484l-23.222,53.885s-2.338-1.166-5.054,7.251-3.987,15.814-8.745,21.342-25.926,84.384-26.562,88.082,29.237,16.448,35.912,6.173S708.038,401.484,708.038,401.484Z" transform="translate(-192.247 37.541)"/>
    <path id="Path_221" data-name="Path 221" class="cls-4" d="M643,355.892c-1.726-.461-1.979-2.752-2.037-4.537-.31-9.56-6.067-19.37-15.218-22.153a25.584,25.584,0,0,0-10.784-.593,40.848,40.848,0,0,0-14.6,4.872c-2.383,1.34-5.669,3.265-8.373,3.674-1.785.27-8.479,3.234-10.256,3.55-3.909.7-7.631,3.166-11.382,1.865-3.589-1.245-4.383-5.891-4.47-9.689-.2-8.651-5.785-10.592,0-17.028,4.39-4.884,23.154-17.171,29.615-18.343,7.548-1.213,11.831-4.037,19.47-3.748,10.34.184,24.631-.726,33.955,3.748s14.057,14,16.44,22.288c1.561,6.312,3.369,13.238,3.55,15.385a52.981,52.981,0,0,0,1.892,11.624c1.886,7.554,4.336,23.631,0,30.1-3.46,5.092-12.747,1.62-12.547,7.773l-7.5-7.773a6.161,6.161,0,0,1-1.833-7.528l2.656-10.359a9.347,9.347,0,0,0,.23-5.765C648.951,346.217,645.872,356.66,643,355.892Z" transform="translate(-49.349 0.107)"/>
    <path id="Path_222" data-name="Path 222" class="cls-1" d="M841.53,813.084c-.311-.508-7.643-12.751-10.185-38.173-2.332-23.324-.832-62.637,19.556-117.477,38.626-103.89-8.9-187.713-9.387-188.548l2.345-1.36c.123.212,12.387,21.583,19.632,55.615a242.629,242.629,0,0,1-10.049,135.239c-38.559,103.712-9.893,152.808-9.6,153.293Z" transform="translate(-21.992 77.986)"/>
    <circle id="Ellipse_35" data-name="Ellipse 35" class="cls-2" cx="17.615" cy="17.615" r="17.615" transform="translate(786.82 505.541)"/>
    <circle id="Ellipse_36" data-name="Ellipse 36" class="cls-1" cx="17.615" cy="17.615" r="17.615" transform="translate(842.375 570.581)"/>
    <circle id="Ellipse_37" data-name="Ellipse 37" class="cls-2" cx="17.615" cy="17.615" r="17.615" transform="translate(804.435 613.941)"/>
    <circle id="Ellipse_38" data-name="Ellipse 38" class="cls-2" cx="17.615" cy="17.615" r="17.615" transform="translate(850.505 650.527)"/>
    <circle id="Ellipse_39" data-name="Ellipse 39" class="cls-1" cx="17.615" cy="17.615" r="17.615" transform="translate(790.885 707.437)"/>
    <path id="Path_223" data-name="Path 223" class="cls-1" d="M847.238,742.907s-17.615-43.36,35.23-75.88Z" transform="translate(-17.058 148.81)"/>
    <path id="Path_224" data-name="Path 224" class="cls-1" d="M848.869,734.425s-8.017-46.11-70.065-45.715Z" transform="translate(-40.352 156.507)"/>
  </g>
</svg>
