<svg id="time" xmlns="http://www.w3.org/2000/svg" width="35.626" height="35.626" viewBox="0 0 35.626 35.626">
  <defs>
    <style>
      .cls-1 {
        fill: #406f66;
      }
    </style>
  </defs>
  <g id="Group_3" data-name="Group 3">
    <path id="Path_198" data-name="Path 198" class="cls-1" d="M17.813,0A17.813,17.813,0,1,0,35.626,17.813,17.833,17.833,0,0,0,17.813,0Zm0,31.732A13.919,13.919,0,1,1,31.732,17.813,13.935,13.935,0,0,1,17.813,31.732Z"/>
    <path id="Path_199" data-name="Path 199" class="cls-1" d="M259.807,148.23v-7.466a1.509,1.509,0,1,0-3.018,0v7.948c0,.024.006.046.007.07a1.5,1.5,0,0,0,.435,1.14l5.62,5.62a1.509,1.509,0,0,0,2.134-2.134Z" transform="translate(-240.452 -130.396)"/>
  </g>
</svg>
