<svg width="144" height="144" viewBox="0 0 144 144" fill="none" xmlns="http://www.w3.org/2000/svg">
<g clip-path="url(#clip0_57_136)">
<mask id="mask0_57_136" style="mask-type:alpha" maskUnits="userSpaceOnUse" x="0" y="0" width="145" height="145">
<path d="M122.924 122.92C151.043 94.8003 151.043 49.2095 122.924 21.0899C94.8042 -7.0297 49.2133 -7.02971 21.0937 21.0899C-7.02586 49.2095 -7.02586 94.8003 21.0937 122.92C49.2133 151.039 94.8042 151.039 122.924 122.92Z" fill="#F4DDD4"/>
</mask>
<g mask="url(#mask0_57_136)">
<path d="M122.924 122.92C151.043 94.8003 151.043 49.2095 122.924 21.0899C94.8042 -7.0297 49.2133 -7.0297 21.0937 21.0899C-7.02586 49.2095 -7.02586 94.8003 21.0937 122.92C49.2133 151.039 94.8042 151.039 122.924 122.92Z" fill="#F4DDD4"/>
<path d="M103.431 95.4902C94.3448 100.963 80.6497 108.172 71.6949 108.05L71.9014 109.72C62.6462 109.842 47.1583 101.46 37.2367 95.4339C36.3383 94.8925 35.5687 94.1618 34.9815 93.2927C34.3943 92.4235 34.0036 91.4369 33.8365 90.4014C33.6694 89.3659 33.73 88.3064 34.0141 87.2967C34.2982 86.287 34.7989 85.3513 35.4814 84.5548C37.4056 82.1894 38.4288 78.9229 36.42 74.4079C31.3888 63.4162 30.1404 47.3557 37.3587 31.0981C43.9293 16.1452 61.2664 10.4006 70.3995 17.1965C79.5045 10.41 96.8228 16.1546 103.45 31.1075C110.659 47.3651 109.401 63.4256 104.388 74.4173C102.342 78.8853 103.365 82.1988 105.327 84.5642C106.007 85.3726 106.502 86.32 106.778 87.3399C107.053 88.3598 107.103 89.4276 106.922 90.4685C106.741 91.5094 106.335 92.4982 105.732 93.3657C105.129 94.2332 104.344 94.9583 103.431 95.4902Z" fill="#D88D48"/>
<path d="M128.08 144H15.9572C15.9572 144 21.1949 123.81 28.6291 111.851C36.0633 99.8926 63.3596 95.8188 63.3596 95.8188L72.014 97.2644L80.6591 95.8188C80.6591 95.8188 107.984 99.8833 115.39 111.851C122.796 123.819 128.08 144 128.08 144Z" fill="#9FC9C1"/>
<path d="M63.3502 95.8188C51.9924 98.3626 46.7547 106.632 56.9767 108.81C56.9767 108.81 53.0719 116.019 62.6087 119.135C72.1455 122.252 74.6799 114.226 74.6799 114.226C74.6799 114.226 80.3118 122.524 87.0139 119.135C93.7159 115.747 94.3636 109.392 88.0558 106.482C88.0558 106.482 91.7541 108.791 93.5 105.309C95.2459 101.826 88.3937 96.5134 78.0027 95.8001C67.6118 95.0867 63.3502 95.8188 63.3502 95.8188Z" fill="white"/>
<path d="M71.7888 106.501C69.552 106.488 67.4104 105.594 65.8288 104.013C64.2471 102.431 63.3531 100.29 63.3408 98.0528V81.7671H80.293V98.0059C80.2906 100.26 79.3935 102.42 77.7989 104.013C76.2043 105.606 74.0426 106.501 71.7888 106.501Z" fill="#F1B69A"/>
<path d="M80.293 79.8896V89.8582C80.293 89.8582 77.4771 94.8144 71.7888 94.8144C67.255 94.8144 63.3408 90.5153 63.3408 90.5153V79.8896H80.293Z" fill="#150A08"/>
<path d="M48.0219 62.4402C43.4224 55.4659 38.0908 59.9527 38.0908 64.8619C38.0908 71.977 45.816 78.1064 50.2277 73.0001C54.6394 67.8938 48.0219 62.4402 48.0219 62.4402Z" fill="#F1B69A"/>
<path d="M47.0175 65.7064C44.1546 60.3654 40.2029 65.3497 41.7141 67.3303" stroke="#E07E61" stroke-miterlimit="10" stroke-linecap="round"/>
<path d="M93.9224 62.4402C98.5124 55.4659 103.844 59.9527 103.844 64.8619C103.844 71.977 96.1282 78.1064 91.7165 73.0001C87.3048 67.8938 93.9224 62.4402 93.9224 62.4402Z" fill="#F1B69A"/>
<path d="M94.9268 65.7064C97.7427 60.3654 101.732 65.3497 100.23 67.3303" stroke="#E07E61" stroke-miterlimit="10" stroke-linecap="round"/>
<path d="M70.944 89.8584C52.7903 89.8584 42.052 70.0057 46.2948 49.6368C49.796 32.8535 92.139 32.8535 95.6402 49.6368C99.8829 70.0057 89.1165 89.8678 70.944 89.8584Z" fill="#F1B69A"/>
<g style="mix-blend-mode:multiply" opacity="0.5">
<path d="M68.5222 69.461C70.3995 70.3996 74.6047 68.3815 74.6892 69.461C74.7737 70.5404 72.4552 71.5072 71.6104 71.5072C70.7656 71.5072 68.5222 69.461 68.5222 69.461Z" fill="#F1B69A"/>
</g>
<path d="M68.5973 63.9888C65.9503 69.7146 69.9115 70.8316 70.9722 70.963" stroke="#E07E61" stroke-miterlimit="10" stroke-linecap="round"/>
<path d="M63.8289 48.3787C62.6931 45.8444 56.0474 47.0083 55.0994 48.8105C54.1513 50.6127 57.277 51.1196 59.5862 51.007C61.8953 50.8943 64.5141 49.9932 63.8289 48.3787Z" fill="#D88D48"/>
<path d="M78.1529 48.3787C79.2793 45.8444 85.9344 47.0083 86.873 48.8105C87.8117 50.6127 84.7047 51.1196 82.3956 51.007C80.0865 50.8943 77.4301 49.9932 78.1529 48.3787Z" fill="#D88D48"/>
<path d="M58.9854 58.1409C58.9837 58.5013 59.0884 58.8542 59.2864 59.1553C59.4844 59.4565 59.7669 59.6924 60.0984 59.8337C60.43 59.9749 60.7959 60.0152 61.1502 59.9493C61.5045 59.8835 61.8315 59.7145 62.0902 59.4636C62.3489 59.2126 62.5278 58.8909 62.6044 58.5388C62.681 58.1866 62.6519 57.8197 62.5208 57.484C62.3897 57.1483 62.1625 56.8587 61.8675 56.6517C61.5726 56.4446 61.223 56.3292 60.8628 56.3199C60.6193 56.3137 60.377 56.3561 60.1501 56.4447C59.9232 56.5333 59.7162 56.6663 59.5414 56.8359C59.3665 57.0055 59.2273 57.2083 59.1318 57.4324C59.0364 57.6565 58.9866 57.8974 58.9854 58.1409Z" fill="#150A08"/>
<path d="M82.9495 58.1409C82.9513 58.5037 82.8453 58.8588 82.6449 59.1613C82.4445 59.4637 82.1587 59.6998 81.8239 59.8395C81.489 59.9792 81.1202 60.0162 80.7643 59.9459C80.4084 59.8756 80.0814 59.701 79.8248 59.4445C79.5683 59.1879 79.3937 58.8609 79.3234 58.505C79.2531 58.1491 79.2901 57.7803 79.4298 57.4454C79.5695 57.1106 79.8056 56.8248 80.108 56.6244C80.4105 56.424 80.7656 56.318 81.1284 56.3198C81.6114 56.3198 82.0746 56.5117 82.4161 56.8532C82.7576 57.1947 82.9495 57.6579 82.9495 58.1409Z" fill="#150A08"/>
<path d="M64.5986 74.5486C71.601 75.8909 77.1579 74.7739 79.4107 72.9717" stroke="#150A08" stroke-width="0.35" stroke-miterlimit="10" stroke-linecap="round"/>
<g style="mix-blend-mode:multiply" opacity="0.5">
<path d="M69.3014 78.003C71.8451 78.003 75.4871 76.6889 76.0503 78.003C76.6135 79.3171 73.5066 81.9454 71.5823 81.7576C69.658 81.5699 66.3915 77.9936 69.3014 78.003Z" fill="#F1B69A"/>
</g>
<path d="M73.0935 42.6811C75.4965 36.6643 74.6141 29.2958 70.9721 29.1362C67.3301 28.9766 62.6368 34.5053 62.6368 34.5053L64.5986 42.6811H73.0935Z" fill="#F1B69A"/>
<path d="M69.6862 28.9767C67.8933 43.2538 92.4393 49.7493 97.7052 48.8857C102.971 48.0222 101.582 31.1638 88.3186 28.1225C75.0553 25.0813 70.3996 23.5137 69.6862 28.9767Z" fill="#D88D48"/>
<path d="M70.9721 29.0989C72.7556 43.3759 48.2565 49.7494 43 48.8108C37.7435 47.8721 39.1234 31.1639 52.3773 28.1602C65.6311 25.1565 70.2869 23.6734 70.9721 29.0989Z" fill="#D88D48"/>
</g>
</g>
<rect x="1.5" y="1.5" width="141" height="141" rx="70.5" stroke="#FDFDFD" stroke-width="3"/>
<defs>
<clipPath id="clip0_57_136">
<rect width="144" height="144" rx="72" fill="white"/>
</clipPath>
</defs>
</svg>
