<svg width="558" height="537" viewBox="0 0 558 537" fill="none" xmlns="http://www.w3.org/2000/svg">
<g clip-path="url(#clip0_33_139)">
<path d="M525.638 85.7692L454.162 86.0564L454.524 176.379L526 176.091L525.638 85.7692Z" fill="white"/>
<path d="M454.538 176.339H455.842H459.677L474.165 176.208L525.989 175.843L525.715 176.13C525.585 150.325 525.441 119.26 525.285 85.82L525.624 86.1594L454.147 86.4204L454.447 86.1071C454.447 112.891 454.525 135.432 454.565 151.304C454.565 159.227 454.565 165.492 454.565 169.799C454.565 171.94 454.565 173.585 454.565 174.72C454.565 175.268 454.565 175.686 454.565 176.025C454.565 176.365 454.565 176.469 454.565 176.469C454.552 176.335 454.552 176.199 454.565 176.065V174.825C454.565 173.702 454.565 172.084 454.565 169.969C454.565 165.675 454.473 159.436 454.408 151.539C454.304 135.615 454.16 113.008 453.991 86.1463V85.8461H454.291L525.781 85.5198H526.12V85.8591C526.237 119.313 526.341 150.377 526.433 176.182V176.456H526.146H474.152H455.895C454.956 176.365 454.538 176.339 454.538 176.339Z" fill="#E0E0E0"/>
<path d="M495.69 174.115L485.779 174.157L485.789 176.572L495.7 176.53L495.69 174.115Z" fill="#E0E0E0"/>
<path d="M501.327 117.467L479.64 117.554L479.766 148.893L501.452 148.806L501.327 117.467Z" fill="#E0E0E0"/>
<path d="M496.71 84.5854L486.799 84.627L486.808 86.6892L496.719 86.6477L496.71 84.5854Z" fill="#E0E0E0"/>
<path d="M124.084 28.2979H59.4923V112.604L124.084 114.222V28.2979Z" fill="#E0E0E0"/>
<path d="M119.832 31.2869H63.3133V107.761L119.832 109.667V31.2869Z" fill="white"/>
<path d="M109.934 45.188L72.4288 43.7522V97.202H109.934V45.188Z" fill="#E0E0E0"/>
<path d="M72.4288 97.202L109.934 69.7396L72.4288 43.7522V97.202Z" fill="#F5F5F5"/>
<path d="M72.4288 157.974H28.3508V215.509L72.4288 216.619V157.974Z" fill="#E0E0E0"/>
<path d="M69.5338 160.023H30.959V212.207L69.5338 213.512V160.023Z" fill="white"/>
<path d="M62.7786 169.499L37.1794 168.533V205.002H62.7786V169.499Z" fill="#E0E0E0"/>
<path d="M37.1794 205.002L62.7786 186.259L37.1794 168.533V205.002Z" fill="#F5F5F5"/>
<path d="M452.804 476.519C451.07 475.044 447.196 470.358 450.196 464.902C451.291 462.892 453.613 461.913 455.712 460.986C457.871 460.259 459.907 459.207 461.75 457.867C465.036 455.087 465.936 450.466 468.114 446.759C470.618 442.504 475.273 439.319 480.203 439.541C485.836 439.802 490.544 444.397 492.683 449.631C494.822 454.865 494.887 460.673 494.926 466.325C494.926 469.444 494.822 472.969 492.513 475.083C490.205 477.197 487.193 477.054 484.311 476.963L453.482 476.023" fill="#F5F5F5"/>
<path d="M506.793 403.321H433.086L446.362 482.197C446.64 483.844 447.379 485.378 448.494 486.621C449.609 487.865 451.054 488.765 452.661 489.219L452.921 489.297C453.13 489.297 453.352 489.428 453.573 489.467C454.069 489.557 454.57 489.614 455.073 489.637V489.702H455.425H488.288C488.893 489.701 489.495 489.64 490.088 489.519C492.003 489.232 493.77 488.323 495.118 486.931C496.466 485.539 497.32 483.743 497.547 481.818L503.95 427.468L504.237 425.301L506.78 403.778L506.793 403.321ZM492.944 453.573H485.38L486.149 430.679H494.913L492.944 453.573ZM495.552 430.731H502.789L500.103 453.625H493.583L495.552 430.731ZM473.943 479.025L473.474 459.133H484.376L483.815 478.947L473.943 479.025ZM462.206 459.133H472.783L473.252 479.025H463.758L462.206 459.133ZM463.015 479.025H454.147C453.3 473.66 452.204 466.677 451.017 459.133H461.45L463.015 479.025ZM461.776 453.651L459.989 430.731H472.078L472.613 453.625L461.776 453.651ZM473.395 453.651L472.861 430.731H485.354L484.598 453.625L473.395 453.651ZM472.73 425.262L472.248 404.065H486.254L485.536 425.262H472.73ZM472 425.262H459.559L457.903 404.065H471.518L472 425.262ZM458.829 425.262H445.658C445.188 422.338 444.758 419.558 444.354 417.065C442.984 408.503 442.463 405.318 442.176 404.013H457.173L458.829 425.262ZM459.259 430.757L461.046 453.651H450.157C449.792 451.328 449.413 448.978 449.048 446.629C448.188 441.225 447.34 435.821 446.531 430.757H459.259ZM449.413 453.651H442.293L438.381 430.757H445.723C446.91 437.753 448.161 445.624 449.413 453.573V453.651ZM450.274 459.133L453.404 479.025H446.57L443.219 459.133H450.274ZM484.48 479.025L485.119 459.055H492.396L490.688 478.947L484.48 479.025ZM486.28 425.262L486.984 404.065H497.143L495.33 425.262H486.28ZM441.485 404.065C441.771 405.592 443.115 413.932 444.914 425.262H437.52L433.947 404.065H441.485ZM497.143 479.025H491.457L493.152 459.133H499.464L497.143 479.025ZM503.481 425.262H496.06L497.873 404.065H505.984L503.481 425.262Z" fill="#E0E0E0"/>
<path d="M557.144 490.145C557.144 490.419 432.421 490.641 278.591 490.641C124.762 490.641 0 490.419 0 490.145C0 489.871 124.71 489.636 278.591 489.636C432.473 489.636 557.144 489.871 557.144 490.145Z" fill="#263238"/>
<path d="M261.605 66.1879L180.961 65.8779L180.529 178.507L261.173 178.817L261.605 66.1879Z" fill="#F5F5F5"/>
<path d="M199.055 144.986H200.255H203.672H216.53L216.347 145.169C216.347 139.478 216.282 132.443 216.23 124.377V123.998H216.491L229.062 123.776H229.349V123.998C229.48 130.42 229.623 137.494 229.766 144.882L229.454 144.569L247.372 144.686L247.033 145.026C246.876 138.943 246.707 132.587 246.537 126.113C246.42 121.205 246.289 116.388 246.172 111.677L246.302 111.938L221.316 92.7505H221.707L198.664 113.556L198.742 113.373C198.86 123.084 198.951 130.942 199.016 136.398C199.016 139.113 199.016 141.227 199.016 142.702V144.36C199.016 144.725 199.016 144.934 199.016 144.934C198.997 144.756 198.997 144.577 199.016 144.399C199.016 144.007 199.016 143.485 199.016 142.794C199.016 141.332 198.925 139.23 198.847 136.555C198.716 131.046 198.534 123.15 198.312 113.386V113.282L198.39 113.204L221.342 92.2284L221.538 92.0457L221.733 92.2023L246.772 111.455L246.902 111.546V111.716C247.033 116.428 247.163 121.244 247.28 126.139C247.45 132.665 247.619 138.969 247.776 145.065V145.417H247.437L229.519 145.313H229.206V144.999C229.075 137.546 228.958 130.472 228.854 124.116L229.141 124.403L216.569 124.559L216.817 124.298C216.817 132.378 216.817 139.413 216.817 145.104V145.3H216.478L203.515 145.156H200.138H199.277C199.134 144.999 199.042 144.999 199.055 144.986Z" fill="#263238"/>
<path d="M185.819 69.4388H190.814L205.158 69.5302L257.217 70.0131H257.491V70.2742C257.491 98.9896 257.491 134.74 257.491 173.532V173.871H256.618L185.988 174.302H185.675V173.989C185.675 143.133 185.675 116.963 185.675 98.4805C185.675 89.3438 185.675 82.0344 185.675 77.0223C185.675 74.5684 185.675 72.6628 185.675 71.3575C185.675 70.731 185.675 70.2481 185.675 69.9087C185.675 69.5694 185.675 69.4258 185.675 69.4258C185.675 69.4258 185.675 69.6085 185.675 69.9348V71.4228C185.675 72.7281 185.675 74.6729 185.675 77.1659C185.675 82.178 185.741 89.4743 185.806 98.6894C185.871 117.119 185.988 143.224 186.106 173.989L185.793 173.676L256.422 173.193H256.957L256.905 173.597C256.905 134.805 256.905 98.9896 256.905 70.3395L257.178 70.6136L205.289 69.8565L190.944 69.6216L187.162 69.5433L185.819 69.4388Z" fill="#263238"/>
<path d="M247.346 61.9077L264.325 78.7715L267.298 74.921L250.215 59.5974L247.346 61.9077Z" fill="#455A64"/>
<path d="M174.604 168.637L191.583 185.501L194.556 181.65L177.473 166.327L174.604 168.637Z" fill="#455A64"/>
<path d="M257.191 168.376C255.68 168.592 254.154 168.688 252.627 168.663C249.81 168.742 245.924 168.807 241.621 168.846C237.604 168.846 233.953 168.846 231.188 168.846L231.436 168.585C231.436 170.177 231.436 171.483 231.436 172.37C231.468 172.838 231.437 173.308 231.344 173.767C231.215 173.317 231.149 172.851 231.149 172.383C231.084 171.496 230.992 170.204 230.901 168.611V168.35H231.162C233.887 168.35 237.552 168.22 241.595 168.193C245.885 168.193 249.784 168.193 252.601 168.193C254.134 168.143 255.668 168.204 257.191 168.376Z" fill="#263238"/>
<path d="M363.156 86.2277L307.935 97.8447L324.129 174.957L379.35 163.34L363.156 86.2277Z" fill="#EBEBEB"/>
<path d="M331.889 149.346C331.889 149.346 331.955 149.346 332.098 149.346L332.711 149.202L335.045 148.654L343.809 146.709L343.665 146.918C342.805 143.002 341.748 138.212 340.535 132.717L340.47 132.469H340.718L349.299 130.459H349.573L349.638 130.746L353.002 144.882L352.624 144.634L364.909 142.023L364.648 142.428L361.531 129.558C360.736 126.23 359.94 122.941 359.171 119.743L359.353 119.965L339.427 110.423L339.818 110.319L327.09 127.979V127.783C328.564 134.309 329.764 139.726 330.598 143.446C331.007 145.282 331.32 146.718 331.537 147.753C331.642 148.223 331.72 148.602 331.772 148.902C331.824 149.202 331.85 149.294 331.85 149.307C331.85 149.32 331.85 149.202 331.733 148.954C331.615 148.706 331.576 148.315 331.459 147.871L330.416 143.629C329.503 139.857 328.212 134.492 326.621 127.848V127.744L326.686 127.653L339.297 109.927L339.453 109.719L339.688 109.823L359.627 119.312L359.771 119.39V119.534C360.553 122.745 361.336 126.06 362.144 129.362C363.213 133.774 364.244 138.095 365.248 142.232L365.326 142.572H364.987L352.703 145.091L352.403 145.156L352.324 144.856C351.151 139.778 350.042 134.949 349.025 130.576L349.364 130.785L340.783 132.743L340.979 132.43L343.978 146.67V146.853H343.796L334.98 148.798L332.659 149.241C332.405 149.294 332.148 149.329 331.889 149.346Z" fill="#263238"/>
<path d="M311.78 99.5899L312.628 99.3941L315.236 98.8459L325.043 96.7966L360.736 89.4351H361.009V89.6961C365.222 109.275 370.477 133.8 376.189 160.336L376.254 160.662L375.928 160.741L375.563 160.819L327.312 171.457L327.012 171.522L326.947 171.222C322.448 150.103 318.627 132.195 315.94 119.521C314.636 113.256 313.567 108.283 312.85 104.837C312.511 103.166 312.237 101.874 312.054 100.921C311.963 100.504 311.898 100.177 311.859 99.9292C311.839 99.8213 311.839 99.7108 311.859 99.6029C311.859 99.6029 311.859 99.7334 311.95 99.9553C312.041 100.177 312.093 100.556 312.185 100.973C312.393 101.9 312.693 103.205 313.071 104.889C313.841 108.335 314.949 113.321 316.332 119.599C319.096 132.208 323.008 150.025 327.599 171.039L327.234 170.791L375.485 160.101L375.837 160.023L375.589 160.427C369.929 133.879 364.713 109.366 360.54 89.7614L360.866 89.9702L325.264 97.0185L315.38 98.9372L312.771 99.4332C312.093 99.5507 311.78 99.5899 311.78 99.5899Z" fill="#263238"/>
<path d="M352.768 85.428L366.852 94.4734L368.325 91.4061L354.398 83.418L352.768 85.428Z" fill="#455A64"/>
<path d="M318.614 169.107L332.698 178.153L334.171 175.086L320.244 167.097L318.614 169.107Z" fill="#455A64"/>
<path d="M375.081 156.786C374.095 157.202 373.067 157.513 372.016 157.712C370.099 158.208 367.452 158.835 364.517 159.487C361.779 160.101 359.301 160.623 357.397 160.975L357.58 160.675C357.915 161.843 358.134 163.041 358.232 164.252C357.732 163.142 357.352 161.983 357.097 160.793L357.032 160.558L357.319 160.545C359.171 160.075 361.662 159.487 364.4 158.874C367.347 158.221 370.008 157.673 371.951 157.295C372.973 157.015 374.022 156.845 375.081 156.786Z" fill="#263238"/>
<path d="M322.521 2.53818L314.566 50.4229L381.319 61.5314L389.273 13.6468L322.521 2.53818Z" fill="#EBEBEB"/>
<path d="M339.166 43.8949C339.361 43.882 339.557 43.882 339.753 43.8949L341.383 44.0777L347.421 44.8347L347.212 44.9914L348.516 35.1759V34.9279H348.777L354.711 35.6327H354.998V35.9199C354.646 38.9611 354.254 42.3025 353.837 45.8267L353.576 45.4612L362.001 46.6882L361.622 46.9884C361.948 44.1038 362.287 41.1017 362.627 38.0344C362.887 35.7241 363.148 33.4399 363.396 31.208L363.487 31.4821L353.055 20.753H353.446L341.2 29.0413L341.305 28.8846C340.705 33.4008 340.209 37.0816 339.857 39.7051C339.688 40.9451 339.544 41.9371 339.44 42.6811C339.403 43.0415 339.342 43.399 339.257 43.7514C339.267 43.4196 339.293 43.0885 339.336 42.7594L339.622 39.8095C339.922 37.199 340.327 33.4138 340.835 28.8194V28.715L340.927 28.6497L353.094 20.2439L353.302 20.1003L353.485 20.2831L364.035 30.973L364.152 31.0905V31.2471C363.904 33.4791 363.657 35.7633 363.396 38.0736C363.044 41.1409 362.705 44.1429 362.379 47.0145V47.3669H362.04L353.602 46.0617H353.302V45.7614C353.733 42.2373 354.137 38.9089 354.515 35.8677L354.763 36.194L348.829 35.4239L349.116 35.202L347.695 45.0044V45.1871H347.512L341.396 44.2082L339.831 43.9472C339.608 43.9608 339.384 43.9433 339.166 43.8949Z" fill="#263238"/>
<path d="M317.127 47.8892C317.127 47.8892 317.127 47.6412 317.231 47.1452C317.336 46.6492 317.427 45.8399 317.584 44.9393C317.91 42.9553 318.379 40.0838 318.992 36.4422C320.296 29.0153 322.044 18.4167 324.208 5.50787V5.24683H324.482L385.774 15.1406H386.113V15.4669V15.7932C383.766 30.7644 381.549 44.9915 379.593 57.796V58.0962H379.28L334.471 50.7607L321.77 48.6331L318.196 48.098L317.349 47.9414H317.075C317.179 47.9267 317.284 47.9267 317.388 47.9414L318.288 48.0719L321.704 48.5809L334.498 50.5519L379.162 57.548L378.81 57.809C380.792 45.0176 382.996 30.7774 385.331 15.8063V15.4799L385.618 15.8715L324.326 5.86029L324.639 5.62535C322.343 18.4428 320.466 28.9762 319.148 36.3508C318.47 40.0055 317.949 42.877 317.584 44.874C317.401 45.8399 317.271 46.5839 317.166 47.1191C317.062 47.6542 317.127 47.8892 317.127 47.8892Z" fill="#263238"/>
<path d="M318.588 10.5986L330.233 2.1406L328.238 0L317.492 8.67987L318.588 10.5986Z" fill="#455A64"/>
<path d="M374.885 64.1003L386.517 55.6423L384.522 53.5017L373.79 62.1816L374.885 64.1003Z" fill="#455A64"/>
<path d="M382.657 15.01C382.519 18.1347 382.153 21.2451 381.562 24.3164C381.197 26.705 380.832 28.8848 380.519 30.4902L380.31 30.2031C381.349 30.2923 382.374 30.5071 383.362 30.8426C382.321 30.914 381.276 30.8702 380.245 30.7121H379.997V30.438C380.193 28.8195 380.506 26.6267 380.871 24.2511C381.242 21.1315 381.839 18.043 382.657 15.01Z" fill="#263238"/>
<path d="M197.373 287.154C197.138 288.46 197.373 490.198 197.373 490.198H188.427V287.154H197.373Z" fill="#455A64"/>
<path d="M352.233 304.84C352.011 306.145 352.233 489.78 352.233 489.78H343.287V304.84H352.233Z" fill="#455A64"/>
<path d="M397.237 271.139C397.002 272.444 397.237 489.78 397.237 489.78H388.291V271.139H397.237Z" fill="#455A64"/>
<path d="M394.003 211.319C394.72 210.105 394.003 276.986 394.003 276.986L385.748 278.291L387.704 212.168L394.003 211.319Z" fill="#455A64"/>
<path d="M347.46 308.834C346.847 310.688 413.968 185.88 413.968 185.88L412.729 180.255L249.497 170.818L187.397 289.034L347.46 308.834Z" fill="#263238"/>
<path d="M346.795 304.383C346.625 301.251 412.742 179.798 412.742 179.798L246.081 164.461L184.997 284.152L346.795 304.383Z" fill="#455A64"/>
<path d="M269.358 270.447L326.829 276.438L363.657 183.296L281.03 173.115L239.612 266.727L269.358 270.447Z" fill="#F5F5F5"/>
<path d="M322.109 196.883C322.551 196.975 322.987 197.097 323.413 197.249C324.7 197.689 325.917 198.313 327.025 199.102C328.785 200.351 330.268 201.951 331.381 203.801C332.898 206.256 333.635 209.114 333.493 211.998C333.302 215.497 331.974 218.839 329.711 221.513C328.468 223.018 326.904 224.227 325.134 225.05C323.321 225.899 321.391 226.512 319.435 227.204C318.47 227.543 317.479 227.909 316.514 228.3C316.032 228.509 315.549 228.718 315.08 228.953L314.375 229.318C314.177 229.455 313.993 229.613 313.828 229.788C313.098 230.567 312.483 231.446 312.002 232.399C311.493 233.339 311.22 234.435 310.698 235.479C310.201 236.586 309.389 237.521 308.364 238.168C307.244 238.672 306.004 238.844 304.79 238.664L297.748 237.842C296.549 237.685 295.375 237.515 294.201 237.28C292.977 237.086 291.82 236.588 290.837 235.832C290.575 235.605 290.374 235.317 290.251 234.994C290.128 234.67 290.087 234.321 290.133 233.978C290.264 233.381 290.48 232.805 290.772 232.268C291.293 231.237 291.841 230.232 292.389 229.24L293.993 226.316L294.371 225.585L294.566 225.22C294.602 225.128 294.624 225.031 294.632 224.933C294.63 224.424 294.555 223.919 294.41 223.432C293.875 221.356 293.106 219.346 292.741 217.271C292.031 213.291 292.871 209.19 295.088 205.811C296.933 202.855 299.524 200.437 302.6 198.802C305.109 197.445 307.837 196.539 310.659 196.126C312.785 195.869 314.935 195.869 317.062 196.126C318.809 196.322 320.153 196.557 321.065 196.7L322.096 196.909C322.215 196.927 322.332 196.953 322.448 196.988C322.327 197.007 322.203 197.007 322.083 196.988L321.039 196.857C320.126 196.74 318.783 196.557 317.036 196.4C314.931 196.191 312.808 196.226 310.711 196.505C307.965 196.954 305.318 197.877 302.886 199.233C299.905 200.849 297.4 203.221 295.623 206.111C293.501 209.373 292.708 213.324 293.406 217.154C293.81 219.164 294.54 221.148 295.101 223.275C295.263 223.835 295.342 224.415 295.336 224.998C295.323 225.174 295.279 225.347 295.205 225.507L295.01 225.886L294.632 226.617L293.015 229.566C292.48 230.558 291.932 231.55 291.424 232.568C291.171 233.043 290.979 233.547 290.85 234.07C290.811 234.311 290.836 234.559 290.923 234.789C291.01 235.018 291.156 235.22 291.345 235.375C292.235 236.054 293.279 236.503 294.384 236.68C295.531 236.902 296.705 237.072 297.879 237.228L304.895 238.064C305.979 238.232 307.089 238.083 308.09 237.633C309 237.061 309.718 236.229 310.15 235.244C310.659 234.278 310.933 233.182 311.454 232.164C311.975 231.159 312.633 230.232 313.41 229.41C313.615 229.189 313.847 228.996 314.102 228.835L314.832 228.457C315.327 228.222 315.81 228 316.306 227.791C317.297 227.387 318.301 227.034 319.279 226.695C321.235 226.003 323.191 225.39 324.912 224.593C326.613 223.812 328.119 222.662 329.32 221.226C331.515 218.662 332.823 215.457 333.05 212.089C333.219 209.294 332.537 206.513 331.094 204.114C330.028 202.29 328.604 200.7 326.908 199.441C325.838 198.635 324.662 197.98 323.413 197.497C322.967 197.317 322.532 197.112 322.109 196.883Z" fill="#0ACF83"/>
<path d="M310.841 234.514C310.665 235.106 310.438 235.683 310.163 236.237C309.694 237.32 308.99 238.847 308.194 240.831C307.79 241.81 307.373 242.88 306.89 244.055C306.508 245.373 305.84 246.589 304.934 247.618C303.789 248.634 302.385 249.312 300.878 249.576C297.728 250.262 294.451 250.077 291.398 249.041C289.961 248.595 288.631 247.863 287.485 246.887C286.954 246.419 286.533 245.84 286.251 245.19C285.969 244.54 285.834 243.836 285.855 243.128C286.02 241.946 286.434 240.811 287.068 239.8L289.441 235.375C289.707 234.823 290.025 234.298 290.393 233.809C290.2 234.393 289.961 234.96 289.676 235.506L287.485 240.009C286.925 240.976 286.562 242.046 286.416 243.154C286.413 243.777 286.546 244.392 286.805 244.958C287.064 245.524 287.443 246.026 287.916 246.431C289.008 247.341 290.278 248.012 291.645 248.401C293.109 248.891 294.63 249.185 296.171 249.276C297.71 249.365 299.253 249.246 300.761 248.924C302.15 248.699 303.45 248.094 304.517 247.175C305.371 246.215 306.011 245.085 306.395 243.859C306.825 242.684 307.281 241.614 307.699 240.648C308.559 238.703 309.329 237.176 309.876 236.119C310.141 235.552 310.465 235.014 310.841 234.514Z" fill="#0ACF83"/>
<path d="M308.39 240.4C307.375 240.549 306.347 240.58 305.325 240.492C303.434 240.492 300.826 240.361 297.944 240.204C295.062 240.048 292.454 239.891 290.576 239.735C289.547 239.707 288.525 239.572 287.524 239.33C288.54 239.19 289.568 239.164 290.589 239.252C292.48 239.252 295.088 239.382 297.983 239.526C300.878 239.669 303.473 239.852 305.351 240.009C306.375 240.026 307.395 240.157 308.39 240.4Z" fill="#0ACF83"/>
<path d="M306.381 244.577C303.058 244.904 299.716 245.008 296.379 244.89C293.041 244.992 289.699 244.87 286.377 244.525C289.7 244.198 293.042 244.093 296.379 244.211C299.718 244.101 303.06 244.224 306.381 244.577Z" fill="#0ACF83"/>
<path d="M298.413 249.55C298.492 249.55 298.322 250.229 297.514 250.855C296.439 251.594 295.131 251.915 293.836 251.756C293.122 251.735 292.419 251.58 291.763 251.299C291.466 251.186 291.196 251.011 290.971 250.786C290.746 250.561 290.572 250.291 290.458 249.994C290.298 249.601 290.298 249.16 290.458 248.767C290.602 248.506 290.745 248.427 290.771 248.453C290.679 248.891 290.72 249.345 290.889 249.759C291.215 250.555 292.415 250.973 293.81 251.064C294.973 251.205 296.152 250.987 297.188 250.437C298.009 250.007 298.322 249.498 298.413 249.55Z" fill="#0ACF83"/>
<path d="M301.348 237.868C301.548 237.339 301.802 236.832 302.104 236.354L304.399 232.347C305.403 230.624 306.577 228.627 307.868 226.447C308.651 225.421 309.174 224.221 309.394 222.949C309.341 222.294 309.043 221.682 308.56 221.237C308.076 220.792 307.443 220.545 306.786 220.548C306.111 220.532 305.44 220.661 304.819 220.927C304.198 221.192 303.641 221.588 303.186 222.088C302.293 223.067 301.494 224.129 300.8 225.259C299.54 227.149 298.382 229.106 297.331 231.12C296.431 232.843 295.753 234.266 295.31 235.258C295.105 235.785 294.852 236.292 294.553 236.772C294.662 236.215 294.833 235.672 295.062 235.153C295.603 233.705 296.217 232.285 296.901 230.898C297.909 228.84 299.033 226.84 300.265 224.907C300.974 223.733 301.795 222.632 302.717 221.618C303.237 221.046 303.875 220.594 304.586 220.292C305.297 219.99 306.066 219.846 306.838 219.869C307.652 219.902 308.426 220.235 309.01 220.803C309.595 221.371 309.95 222.135 310.007 222.949C309.983 223.696 309.767 224.424 309.381 225.064C309.029 225.664 308.677 226.212 308.351 226.774L304.751 232.595L302.287 236.511C302.02 236.994 301.706 237.449 301.348 237.868Z" fill="#0ACF83"/>
<path d="M304.491 212.324C304.961 213.622 305.208 214.99 305.221 216.37C305.438 217.737 305.438 219.129 305.221 220.495C304.757 219.191 304.51 217.82 304.491 216.436C304.274 215.074 304.274 213.686 304.491 212.324Z" fill="#0ACF83"/>
<path d="M303.852 211.567C303.917 211.567 303.852 211.828 304.008 212.024C304.165 212.22 304.347 212.324 304.556 212.128C304.764 211.933 304.673 211.724 304.464 211.58C304.256 211.437 304.073 211.489 304.008 211.411C303.943 211.332 304.125 211.058 304.595 211.11C304.718 211.138 304.834 211.191 304.935 211.267C305.036 211.342 305.12 211.438 305.182 211.548C305.243 211.658 305.281 211.78 305.293 211.906C305.305 212.031 305.29 212.158 305.249 212.278C305.209 212.397 305.144 212.507 305.058 212.6C304.973 212.692 304.869 212.766 304.753 212.816C304.637 212.866 304.512 212.891 304.386 212.889C304.26 212.888 304.136 212.86 304.021 212.807C303.894 212.745 303.784 212.654 303.7 212.54C303.616 212.427 303.56 212.294 303.539 212.154C303.526 211.685 303.852 211.45 303.852 211.567Z" fill="#0ACF83"/>
<path d="M317.883 215.64C315.434 218.099 312.534 220.062 309.342 221.422C310.619 220.266 312.013 219.247 313.502 218.381C314.865 217.32 316.333 216.401 317.883 215.64Z" fill="#0ACF83"/>
<path d="M318.275 214.622C318.21 214.622 318.483 214.23 319.057 214.387C319.23 214.441 319.383 214.543 319.499 214.682C319.614 214.821 319.687 214.99 319.709 215.17C319.742 215.395 319.701 215.624 319.593 215.824C319.485 216.024 319.315 216.183 319.109 216.279C318.903 216.371 318.672 216.396 318.451 216.352C318.229 216.308 318.026 216.195 317.87 216.031C317.742 215.893 317.66 215.718 317.637 215.53C317.614 215.343 317.65 215.153 317.74 214.987C317.802 214.881 317.896 214.796 318.008 214.745C318.12 214.693 318.245 214.678 318.366 214.7C318.536 214.7 318.575 214.843 318.562 214.883C318.549 214.922 318.223 214.948 318.17 215.196C318.159 215.268 318.167 215.342 318.192 215.41C318.217 215.479 318.259 215.54 318.314 215.587C318.387 215.644 318.473 215.682 318.564 215.695C318.656 215.709 318.749 215.699 318.835 215.666C318.913 215.621 318.977 215.556 319.02 215.478C319.064 215.4 319.086 215.311 319.083 215.222C319.085 215.143 319.065 215.065 319.026 214.996C318.987 214.927 318.93 214.87 318.862 214.83C318.588 214.635 318.327 214.7 318.275 214.622Z" fill="#0ACF83"/>
<path d="M318.196 214.765C315.941 214.629 313.705 214.27 311.52 213.695C309.293 213.338 307.108 212.756 304.999 211.959C307.25 212.095 309.482 212.453 311.663 213.029C313.894 213.385 316.083 213.967 318.196 214.765Z" fill="#0ACF83"/>
<path d="M276.466 230.715C276.531 230.885 275.422 231.525 273.975 232.125C272.527 232.725 271.302 233.091 271.236 232.908C271.171 232.725 272.267 232.112 273.714 231.498C274.56 231.032 275.501 230.764 276.466 230.715Z" fill="#263238"/>
<path d="M291.893 190.37C292.063 190.449 286.207 204.141 278.852 220.939C271.497 237.738 265.329 251.312 265.159 251.234C264.99 251.155 270.832 237.476 278.2 220.665C285.568 203.853 291.724 190.292 291.893 190.37Z" fill="#263238"/>
<path d="M319.109 192.485C319.279 192.563 313.124 206.96 305.338 224.633C297.553 242.306 291.111 256.586 290.993 256.507C290.876 256.429 296.992 242.045 304.777 224.359C312.563 206.673 318.94 192.407 319.109 192.485Z" fill="#263238"/>
<path d="M310.502 253.635C310.502 253.831 299.874 252.656 286.82 251.025C273.766 249.393 263.203 247.918 263.216 247.723C263.229 247.527 273.844 248.715 286.898 250.333C299.952 251.952 310.528 253.453 310.502 253.635Z" fill="#263238"/>
<path d="M317.831 237.398C317.204 237.413 316.576 237.378 315.953 237.294L310.868 236.759C306.59 236.289 300.67 235.584 294.149 234.762C287.629 233.939 281.708 233.169 277.444 232.569L272.384 231.825C271.762 231.76 271.147 231.642 270.545 231.472C271.173 231.439 271.802 231.47 272.423 231.564L277.496 232.099C281.786 232.569 287.694 233.274 294.227 234.096C300.761 234.918 306.668 235.688 310.933 236.289L315.98 237.033C316.608 237.088 317.229 237.21 317.831 237.398Z" fill="#263238"/>
<path d="M335.971 198.397C335.343 198.43 334.714 198.395 334.093 198.293L329.007 197.771C324.73 197.288 318.809 196.596 312.289 195.774C305.768 194.952 299.848 194.168 295.584 193.581L290.524 192.837C289.902 192.767 289.287 192.645 288.685 192.472C289.313 192.44 289.942 192.475 290.563 192.576L295.636 193.098C299.926 193.581 305.834 194.273 312.367 195.095C318.901 195.918 324.795 196.701 329.072 197.288L334.119 198.032C334.745 198.104 335.365 198.226 335.971 198.397Z" fill="#263238"/>
<path d="M293.419 191.297C293.51 191.453 292.623 192.132 291.45 192.811C290.276 193.49 289.22 193.894 289.128 193.724C289.037 193.555 289.924 192.889 291.111 192.21C292.297 191.532 293.419 191.127 293.419 191.297Z" fill="#263238"/>
<path d="M269.593 246.77C268.735 247.496 267.742 248.046 266.672 248.388C265.687 248.926 264.606 249.264 263.49 249.38C264.348 248.654 265.341 248.104 266.411 247.762C267.396 247.224 268.477 246.886 269.593 246.77Z" fill="#263238"/>
<path d="M293.98 252.722C293.999 251.989 294.108 251.261 294.306 250.555L294.553 250.934C293.954 250.868 293.249 250.79 292.493 250.686L292.871 250.451C292.636 251.208 292.402 251.913 292.18 252.5L291.945 252.121C292.648 252.236 293.336 252.433 293.993 252.709C294.071 252.8 293.262 252.839 291.867 252.709H291.541L291.632 252.356C291.789 251.743 291.984 251.051 292.219 250.281L292.31 250.007H292.597C293.341 250.111 294.045 250.229 294.632 250.346H294.984L294.879 250.659C294.41 252.082 294.032 252.839 293.98 252.722Z" fill="#263238"/>
<path d="M347.46 308.834L413.981 269.233H369.056L347.46 308.834Z" fill="#263238"/>
<path d="M350.186 178.362L364.713 196.217L367.491 190.84L356.067 176.6L350.186 178.362Z" fill="#263238"/>
<path d="M413.981 269.233V262.211L373.32 261.35L355.011 295.168L413.981 269.233Z" fill="#263238"/>
<path d="M237.734 408.842H230.588V536.847H237.734V408.842Z" fill="#455A64"/>
<path d="M290.459 398.726C290.459 408.15 266.855 415.799 237.747 415.799C208.64 415.799 185.023 408.15 185.023 398.726C185.023 395.776 183.719 389.589 185.61 383.651C188.857 373.77 217.743 381.654 237.774 381.654C259.239 381.654 286.298 377.738 289.728 387.253C291.228 391.573 290.459 396.246 290.459 398.726Z" fill="#263238"/>
<path d="M237.747 403.255C266.859 403.255 290.459 395.612 290.459 386.183C290.459 376.754 266.859 369.11 237.747 369.11C208.636 369.11 185.036 376.754 185.036 386.183C185.036 395.612 208.636 403.255 237.747 403.255Z" fill="#455A64"/>
<path d="M237.604 472.498C237.604 472.498 277.561 469.771 279.335 525.518H272.814C272.814 525.518 276.074 479.834 237.5 478.45V473.504" fill="#455A64"/>
<path d="M232.844 472.498C232.844 472.498 192.887 469.771 191.113 525.518H197.634C197.634 525.518 194.374 479.834 232.948 478.45V473.504" fill="#455A64"/>
<path d="M326.668 187.047L264.194 195.258L265.142 202.481L327.615 194.27L326.668 187.047Z" fill="#0ACF83"/>
<path d="M283.925 470.684L290.015 457.958L266.268 446.394L257.139 464.915L258.574 465.724C264.951 469.275 291.176 483.345 296.262 484.141C301.895 485.055 283.925 470.684 283.925 470.684Z" fill="#0ACF83"/>
<g opacity="0.3">
<path opacity="0.3" d="M265.864 468.935C266.489 466.765 266.289 464.44 265.303 462.409C264.338 460.4 262.659 458.822 260.595 457.984L257.361 464.667L265.864 468.935Z" fill="white"/>
</g>
<path opacity="0.3" d="M292.532 478.059C292.532 478.059 298.622 483.541 297.175 484.272C295.727 485.003 268.641 471.807 257.165 464.928L257.465 464.419L288.946 480.082C288.946 480.082 291.124 477.446 292.532 478.059Z" fill="white"/>
<path d="M257.1 464.223L257.491 464.458L258.626 465.098L262.851 467.395C266.424 469.301 271.406 471.872 276.974 474.587C282.543 477.302 287.629 479.651 291.319 481.296L295.727 483.228L296.927 483.724C297.063 483.794 297.208 483.846 297.357 483.88C297.229 483.798 297.094 483.729 296.953 483.672L295.779 483.11L291.41 481.1C287.733 479.39 282.66 477.015 277.066 474.3C271.471 471.585 266.502 469.079 262.903 467.186L258.626 464.993L257.465 464.406C257.349 464.335 257.227 464.274 257.1 464.223Z" fill="#263238"/>
<path d="M288.763 480.461C289.298 479.833 289.906 479.272 290.576 478.79C291.297 478.397 292.057 478.082 292.845 477.85C291.978 477.764 291.109 478.001 290.406 478.516C289.641 478.943 289.057 479.634 288.763 480.461Z" fill="#263238"/>
<path d="M283.495 473.49C283.495 473.569 284.069 473.321 284.681 472.942C285.294 472.564 285.751 472.198 285.712 472.12C285.673 472.042 285.125 472.29 284.512 472.668C283.899 473.047 283.443 473.412 283.495 473.49Z" fill="#263238"/>
<path d="M282.06 471.533C282.06 471.624 282.582 471.533 283.169 471.389C283.756 471.245 284.212 471.011 284.186 470.919C284.16 470.828 283.677 470.919 283.077 471.076C282.478 471.232 282.034 471.454 282.06 471.533Z" fill="#263238"/>
<path d="M281.943 468.7C281.943 468.779 282.425 469.118 283.104 469.457C283.498 469.711 283.943 469.876 284.408 469.94C284.408 469.862 283.925 469.509 283.247 469.17C282.853 468.917 282.408 468.756 281.943 468.7Z" fill="#263238"/>
<path d="M282.295 466.912C282.23 466.912 282.699 467.539 283.482 467.995C283.922 468.315 284.451 468.488 284.994 468.491C284.581 468.196 284.145 467.934 283.69 467.708C283.248 467.405 282.781 467.139 282.295 466.912Z" fill="#263238"/>
<path d="M285.307 471.807C285.791 472.132 286.33 472.367 286.898 472.499C287.483 472.701 288.085 472.846 288.698 472.929C289.068 472.997 289.444 473.023 289.82 473.008C290.048 472.99 290.262 472.887 290.419 472.721C290.492 472.613 290.531 472.485 290.531 472.355C290.531 472.225 290.492 472.097 290.419 471.99C290.131 471.626 289.766 471.33 289.351 471.124C288.935 470.918 288.479 470.807 288.015 470.798C287.552 470.789 287.092 470.884 286.669 471.074C286.246 471.264 285.87 471.545 285.568 471.898C285.464 472.011 285.384 472.145 285.333 472.29C285.711 471.897 286.152 471.57 286.638 471.324C287.176 471.095 287.768 471.023 288.346 471.115C288.693 471.158 289.027 471.27 289.329 471.445C289.632 471.62 289.896 471.854 290.106 472.133C290.263 472.42 290.028 472.668 289.676 472.694C289.333 472.727 288.989 472.727 288.646 472.694C288.046 472.626 287.453 472.508 286.872 472.342C285.907 472.042 285.32 471.755 285.307 471.807Z" fill="#263238"/>
<path d="M285.66 472.081C286 471.849 286.246 471.501 286.351 471.102C286.496 470.683 286.541 470.236 286.481 469.797C286.465 469.507 286.375 469.227 286.219 468.983C286.064 468.738 285.849 468.538 285.594 468.4C285.423 468.356 285.242 468.38 285.088 468.468C284.935 468.556 284.821 468.7 284.773 468.87C284.688 469.131 284.666 469.408 284.708 469.679C284.74 470.123 284.828 470.562 284.968 470.984C285.079 471.371 285.275 471.728 285.542 472.029C285.542 472.029 285.373 471.611 285.19 470.919C285.083 470.518 285.017 470.107 284.994 469.692C284.994 469.262 285.086 468.622 285.503 468.726C285.92 468.831 286.103 469.457 286.194 469.875C286.281 470.27 286.281 470.68 286.194 471.076C286.046 471.426 285.867 471.762 285.66 472.081Z" fill="#263238"/>
<path d="M260.817 457.958C260.817 457.958 261.521 458.219 262.538 458.872C263.854 459.716 264.91 460.909 265.59 462.318C266.258 463.732 266.515 465.306 266.333 466.86C266.203 468.061 265.903 468.752 265.968 468.779C266.067 468.629 266.146 468.466 266.203 468.296C266.368 467.838 266.49 467.366 266.568 466.886C266.816 465.282 266.576 463.641 265.878 462.176C265.18 460.712 264.057 459.492 262.656 458.676C262.244 458.429 261.806 458.228 261.351 458.076C260.934 457.971 260.817 457.932 260.817 457.958Z" fill="#263238"/>
<path d="M268.015 449.265C267.058 450.808 266.187 452.403 265.407 454.042C264.548 455.637 263.782 457.28 263.112 458.963C264.079 457.426 264.95 455.83 265.72 454.186C266.579 452.591 267.346 450.948 268.015 449.265Z" fill="#263238"/>
<path d="M269.945 468.074C270.955 468.886 272.063 469.566 273.245 470.097C274.381 470.728 275.596 471.206 276.857 471.52C276.857 471.429 275.292 470.763 273.388 469.81C271.484 468.857 270.037 467.996 269.945 468.074Z" fill="#263238"/>
<path d="M265.329 465.789C265.251 465.789 265.329 466.181 265.329 466.625C265.329 467.069 265.238 467.408 265.329 467.447C265.42 467.486 265.629 467.134 265.642 466.625C265.655 466.116 265.42 465.763 265.329 465.789Z" fill="#263238"/>
<path d="M264.638 462.761C264.559 462.761 264.638 463.101 264.716 463.479C264.794 463.858 265.016 464.119 265.094 464.093C265.172 464.067 265.094 463.74 265.016 463.375C264.938 463.009 264.729 462.722 264.638 462.761Z" fill="#263238"/>
<path d="M262.616 460.529C262.616 460.621 262.916 460.777 263.203 461.065C263.49 461.352 263.647 461.665 263.738 461.652C263.829 461.639 263.738 461.195 263.425 460.843C263.112 460.49 262.629 460.451 262.616 460.529Z" fill="#263238"/>
<path d="M261.064 459.198C260.999 459.198 261.064 459.446 261.234 459.615C261.404 459.785 261.573 459.876 261.638 459.824C261.703 459.772 261.638 459.576 261.469 459.394C261.299 459.211 261.13 459.133 261.064 459.198Z" fill="#263238"/>
<path d="M284.629 483.985L292.258 472.12L270.089 457.658L258.743 474.887L260.047 475.879C265.929 480.199 290.237 497.468 295.127 498.904C300.63 500.496 284.629 483.985 284.629 483.985Z" fill="#0ACF83"/>
<g opacity="0.3">
<path opacity="0.3" d="M266.933 479.965C267.809 477.893 267.902 475.573 267.194 473.438C266.492 471.318 265.022 469.539 263.073 468.452L259.03 474.626L266.933 479.965Z" fill="white"/>
</g>
<path opacity="0.3" d="M292.232 492.377C292.232 492.377 297.579 498.59 296.04 499.139C294.501 499.687 269.293 483.149 258.808 474.887L259.161 474.417L288.424 493.996C288.424 493.996 290.915 491.594 292.232 492.377Z" fill="white"/>
<path d="M258.821 474.182L259.174 474.469C259.487 474.704 259.839 474.952 260.217 475.252L264.129 478.046C267.441 480.395 272.058 483.567 277.235 486.974C282.412 490.38 287.159 493.343 290.628 495.445L294.749 497.911L295.883 498.564L296.288 498.773C296.288 498.773 296.17 498.669 295.923 498.512L294.814 497.807L290.745 495.197C287.316 493.043 282.582 490.041 277.405 486.647C272.227 483.254 267.598 480.121 264.259 477.811L260.347 475.096L259.265 474.365C259.128 474.281 258.978 474.219 258.821 474.182Z" fill="#263238"/>
<path d="M288.202 494.283C288.819 493.738 289.492 493.261 290.211 492.86C290.972 492.549 291.769 492.334 292.584 492.221C291.731 492.081 290.856 492.204 290.074 492.572C289.292 492.94 288.639 493.537 288.202 494.283Z" fill="#263238"/>
<path d="M283.834 486.699C283.834 486.791 284.434 486.608 285.138 486.308C285.842 486.008 286.299 485.707 286.259 485.629C285.799 485.648 285.35 485.783 284.955 486.021C284.29 486.321 283.795 486.621 283.834 486.699Z" fill="#263238"/>
<path d="M282.66 484.585C282.66 484.677 283.182 484.664 283.782 484.585C284.381 484.507 284.864 484.35 284.851 484.259C284.838 484.168 284.342 484.181 283.729 484.259C283.117 484.337 282.647 484.494 282.66 484.585Z" fill="#263238"/>
<path d="M282.895 481.753C282.895 481.831 283.325 482.236 283.951 482.666C284.577 483.097 285.138 483.371 285.19 483.293C285.242 483.215 284.76 482.823 284.134 482.392C283.769 482.097 283.347 481.879 282.895 481.753Z" fill="#263238"/>
<path d="M283.469 480.03C283.403 480.03 283.795 480.709 284.512 481.244C284.911 481.621 285.416 481.867 285.959 481.949C285.959 481.857 285.386 481.518 284.655 480.996C283.925 480.474 283.547 479.978 283.469 480.03Z" fill="#263238"/>
<path d="M285.842 485.264C286.265 485.651 286.75 485.964 287.277 486.191C287.828 486.463 288.404 486.682 288.998 486.843C289.355 486.952 289.722 487.022 290.093 487.052C290.208 487.061 290.324 487.048 290.434 487.012C290.543 486.976 290.645 486.919 290.732 486.843C290.828 486.756 290.894 486.642 290.922 486.516C290.95 486.39 290.939 486.258 290.889 486.139C290.518 485.522 289.944 485.055 289.265 484.817C288.587 484.578 287.847 484.584 287.172 484.833C286.769 484.965 286.4 485.183 286.09 485.473C285.881 485.682 285.79 485.825 285.803 485.838C286.231 485.484 286.722 485.214 287.25 485.042C287.812 484.872 288.411 484.872 288.972 485.042C289.309 485.127 289.625 485.277 289.903 485.486C290.18 485.694 290.414 485.956 290.589 486.256C290.706 486.569 290.445 486.778 290.093 486.765C289.749 486.742 289.407 486.681 289.076 486.582C288.49 486.445 287.918 486.252 287.368 486.008C286.416 485.551 285.868 485.225 285.842 485.264Z" fill="#263238"/>
<path d="M286.168 485.551C286.168 485.551 286.625 485.355 286.977 484.676C287.178 484.272 287.277 483.823 287.264 483.371C287.284 483.081 287.23 482.791 287.107 482.529C286.984 482.266 286.795 482.039 286.559 481.87C286.397 481.805 286.215 481.807 286.054 481.876C285.893 481.944 285.765 482.074 285.699 482.236C285.581 482.484 285.518 482.756 285.516 483.032C285.5 483.469 285.535 483.907 285.62 484.337C285.672 484.734 285.825 485.112 286.064 485.433C286.064 485.433 285.946 485.003 285.855 484.298C285.803 483.864 285.803 483.426 285.855 482.993C285.855 482.575 286.077 481.948 286.468 482.105C286.644 482.257 286.784 482.445 286.879 482.657C286.974 482.869 287.02 483.1 287.016 483.332C287.027 483.738 286.956 484.142 286.807 484.52C286.625 484.882 286.411 485.227 286.168 485.551Z" fill="#263238"/>
<path d="M263.229 468.426C263.229 468.426 263.907 468.779 264.82 469.549C266.034 470.54 266.939 471.859 267.429 473.348C267.919 474.837 267.973 476.436 267.585 477.955C267.311 479.129 266.92 479.782 266.972 479.808C267.024 479.834 267.102 479.665 267.272 479.364C267.497 478.95 267.676 478.512 267.807 478.059C268.256 476.499 268.229 474.84 267.728 473.295C267.213 471.745 266.251 470.383 264.964 469.379C264.558 469.08 264.121 468.826 263.66 468.622C263.425 468.466 263.242 468.4 263.229 468.426Z" fill="#263238"/>
<path d="M271.536 460.751C270.399 462.159 269.345 463.632 268.38 465.163C267.32 466.633 266.353 468.167 265.485 469.758C267.677 466.877 269.697 463.869 271.536 460.751Z" fill="#263238"/>
<path d="M271.119 479.625C272.013 480.562 273.026 481.379 274.131 482.053C275.183 482.815 276.327 483.442 277.535 483.919C277.535 483.828 276.074 482.98 274.314 481.792C272.553 480.604 271.249 479.547 271.119 479.625Z" fill="#263238"/>
<path d="M266.789 476.78C266.698 476.78 266.711 477.158 266.646 477.589C266.581 478.02 266.463 478.372 266.542 478.411C266.62 478.45 266.881 478.137 266.959 477.641C267.037 477.145 266.881 476.753 266.789 476.78Z" fill="#263238"/>
<path d="M266.49 473.673C266.398 473.673 266.398 474.026 266.49 474.404C266.581 474.783 266.698 475.083 266.776 475.057C266.855 475.031 266.881 474.717 266.776 474.339C266.672 473.96 266.581 473.66 266.49 473.673Z" fill="#263238"/>
<path d="M264.729 471.193C264.729 471.284 264.99 471.467 265.238 471.794C265.485 472.12 265.603 472.446 265.694 472.433C265.785 472.42 265.798 472.002 265.485 471.598C265.172 471.193 264.729 471.193 264.729 471.193Z" fill="#263238"/>
<path d="M263.425 469.692C263.36 469.692 263.425 469.94 263.542 470.136C263.66 470.332 263.855 470.436 263.92 470.384C263.986 470.332 263.92 470.136 263.803 469.94C263.686 469.744 263.425 469.64 263.425 469.692Z" fill="#263238"/>
<path opacity="0.2" d="M264.246 466.625L286.546 480.996L287.903 478.894L265.603 464.093L264.246 466.625Z" fill="black"/>
<path d="M287.107 368.444L261.052 454.16L284.16 463.153L317.649 386.183L287.107 368.444Z" fill="#263238"/>
<path d="M233.001 389.563C233.001 389.563 323.478 366.995 325.943 365.912C325.943 365.912 336.023 336.661 314.858 325.58C294.723 315.047 227.758 350.719 227.758 350.719L233.001 389.563Z" fill="#263238"/>
<path d="M204.285 383.742C214.613 385.334 226.232 388.963 232.975 389.576C251.232 391.247 259.93 383.768 275.11 387.84C275.188 376.746 274.366 356.175 274.366 356.175L189.901 344.963C189.901 344.963 191.466 374.422 204.285 383.742Z" fill="#263238"/>
<path d="M358.114 382.332C360.553 377.79 362.366 372.386 361.349 367.23C359.314 356.971 347.069 355.862 334.263 354.322C305.573 350.85 268.198 345.916 268.198 345.916L275.162 387.827L309.185 390.268L262.642 462.174L295.831 484.454L356.302 385.256C356.68 384.669 357.045 384.068 357.41 383.442L358.114 382.332Z" fill="#263238"/>
<path d="M331.615 353.982C330.837 354.027 330.056 354.005 329.281 353.917C327.794 353.826 325.63 353.643 322.956 353.395C317.623 352.899 310.281 352.011 302.169 350.941C294.058 349.871 286.742 348.918 281.421 348.33L275.123 347.6C274.345 347.551 273.573 347.437 272.814 347.26C273.593 347.226 274.374 347.252 275.149 347.338C276.648 347.417 278.8 347.6 281.473 347.848C286.807 348.357 294.162 349.244 302.261 350.301C310.359 351.359 317.701 352.338 323.008 352.912L329.307 353.656C330.083 353.714 330.854 353.823 331.615 353.982Z" fill="#455A64"/>
<path d="M310.372 349.949C310.476 350.119 310.189 350.458 309.824 350.811C309.459 351.163 309.094 351.424 308.937 351.307C308.781 351.189 308.937 350.719 309.355 350.315C309.772 349.91 310.255 349.805 310.372 349.949Z" fill="#455A64"/>
<path d="M310.776 386.535C310.655 386.798 310.506 387.047 310.333 387.279L309.029 389.341L303.943 396.899C299.652 403.281 293.784 412.131 287.472 422.011C281.16 431.892 275.618 440.964 271.641 447.542L266.933 455.373L265.629 457.475C265.483 457.727 265.317 457.967 265.133 458.193C265.223 457.916 265.35 457.652 265.511 457.41L266.698 455.23C267.728 453.35 269.306 450.648 271.21 447.333C275.123 440.689 280.574 431.592 286.859 421.685C293.145 411.778 299.118 402.981 303.499 396.664C305.703 393.505 307.503 390.973 308.716 389.237L310.189 387.24C310.357 386.983 310.554 386.746 310.776 386.535Z" fill="#455A64"/>
<path d="M308.194 390.268C306.683 390.376 305.167 390.376 303.656 390.268C300.852 390.177 296.979 390.046 292.715 389.798C288.45 389.55 284.577 389.159 281.786 388.793C280.404 388.611 279.282 388.441 278.5 388.31C278.094 388.265 277.695 388.168 277.313 388.023C278.827 388.017 280.339 388.117 281.838 388.323C284.629 388.558 288.489 388.859 292.754 389.12C297.018 389.381 300.878 389.577 303.682 389.785C305.197 389.824 306.705 389.986 308.194 390.268Z" fill="#455A64"/>
<path d="M334.054 224.163C334.054 224.163 335.567 222.14 337.301 223.445C339.036 224.75 346.665 230.924 346.665 230.924L351.881 245.073L344.461 258.634L331.641 253.126C332.322 249.959 333.255 246.851 334.432 243.833C334.432 243.833 325.838 237.176 328.512 234.566C328.512 234.566 329.229 233.26 332.867 236.289L336.519 239.304C336.519 239.304 330.129 230.376 330.52 228.353C330.551 227.985 330.663 227.628 330.847 227.308C331.031 226.988 331.283 226.712 331.585 226.5C331.888 226.289 332.233 226.146 332.596 226.083C332.96 226.019 333.333 226.037 333.689 226.134L334.054 224.163Z" fill="#FFBE9D"/>
<path d="M326.021 227.687L331.315 228.992L354.241 249.302C354.636 249.656 354.877 250.149 354.914 250.678C354.95 251.207 354.779 251.73 354.437 252.134C354.264 252.337 354.053 252.504 353.816 252.625C353.579 252.745 353.32 252.818 353.055 252.839C352.79 252.86 352.523 252.828 352.27 252.745C352.017 252.662 351.783 252.53 351.581 252.356L328.707 232.608L326.021 227.687Z" fill="#0ACF83"/>
<path opacity="0.4" d="M351.177 251.978L353.694 248.793L354.554 249.654C354.906 250.009 355.113 250.483 355.135 250.982C355.156 251.482 354.991 251.972 354.672 252.356C354.499 252.562 354.287 252.731 354.047 252.853C353.808 252.974 353.547 253.047 353.279 253.065C353.011 253.083 352.742 253.047 352.488 252.959C352.235 252.871 352.001 252.732 351.803 252.552L351.177 251.978Z" fill="white"/>
<path opacity="0.4" d="M326.869 229.162L327.755 228.118L331.368 229.032C331.468 229.22 331.521 229.431 331.521 229.645C331.521 229.859 331.468 230.07 331.368 230.259C331.016 230.715 330.337 230.337 330.337 230.337C330.44 230.539 330.494 230.763 330.494 230.989C330.494 231.216 330.44 231.44 330.337 231.642C330.011 232.112 329.203 231.903 329.203 231.903C329.272 231.973 329.325 232.058 329.358 232.15C329.392 232.243 329.404 232.342 329.396 232.44C329.387 232.538 329.357 232.633 329.308 232.718C329.259 232.804 329.192 232.877 329.112 232.934L328.772 232.647L326.869 229.162Z" fill="white"/>
<path opacity="0.4" d="M330.272 230.337L353.094 249.472L351.894 250.986L329.138 231.903C329.138 231.903 329.933 232.125 330.285 231.537C330.389 231.354 330.442 231.146 330.439 230.935C330.437 230.725 330.379 230.518 330.272 230.337Z" fill="black"/>
<path d="M332.463 249.302C333.418 247.236 334.233 245.108 334.902 242.932C335.189 241.366 332.45 231.094 336.558 230.284L337.862 230.898L341.266 247.422L334.458 253.949L332.463 249.302Z" fill="#FFBE9D"/>
<path d="M342.165 237.437C342.061 237.437 341.826 236.484 341.122 235.049C340.233 233.18 338.925 231.54 337.301 230.258C336.306 229.617 335.387 228.864 334.563 228.013C334.207 227.642 333.933 227.201 333.758 226.718C333.583 226.235 333.511 225.72 333.545 225.207C333.581 224.86 333.69 224.524 333.865 224.223C334.041 223.921 334.279 223.66 334.563 223.458C334.967 223.184 335.254 223.197 335.267 223.236C335.28 223.275 335.032 223.367 334.719 223.667C334.297 224.087 334.05 224.651 334.028 225.246C334.032 225.685 334.122 226.118 334.295 226.522C334.467 226.925 334.718 227.29 335.032 227.596C335.826 228.389 336.7 229.098 337.64 229.71C339.382 231.042 340.733 232.819 341.552 234.853C341.957 235.654 342.167 236.54 342.165 237.437Z" fill="#EB996E"/>
<path d="M340.522 244.838C340.365 244.415 340.252 243.978 340.183 243.532C339.988 242.684 339.622 241.496 339.218 239.995C339.005 239.166 338.844 238.325 338.736 237.476C338.618 236.549 338.553 235.583 338.397 234.591C338.333 234.091 338.224 233.597 338.071 233.117C337.921 232.625 337.724 232.148 337.484 231.694C337.445 231.619 337.384 231.558 337.309 231.518C337.235 231.478 337.15 231.462 337.066 231.472C336.824 231.508 336.59 231.588 336.375 231.707C335.921 231.962 335.55 232.343 335.306 232.803C334.779 233.765 334.526 234.853 334.576 235.949C334.592 237 334.723 238.046 334.967 239.068C335.195 240.035 335.304 241.025 335.293 242.018C335.232 242.896 334.997 243.752 334.602 244.537C334.009 245.591 333.603 246.739 333.402 247.931C333.39 248.368 333.416 248.804 333.48 249.236C333.224 248.852 333.105 248.392 333.141 247.931C333.237 246.687 333.583 245.475 334.158 244.368C334.5 243.629 334.695 242.831 334.732 242.018C334.707 241.068 334.58 240.123 334.354 239.199C334.087 238.14 333.938 237.054 333.911 235.962C333.855 234.744 334.135 233.534 334.719 232.464C334.881 232.19 335.073 231.936 335.293 231.707C335.513 231.459 335.779 231.255 336.075 231.106C336.369 230.957 336.687 230.86 337.014 230.819C337.212 230.806 337.411 230.844 337.589 230.931C337.768 231.018 337.92 231.151 338.031 231.315C338.304 231.826 338.523 232.364 338.683 232.921C338.845 233.44 338.958 233.973 339.023 234.513C339.166 235.544 339.205 236.523 339.283 237.424C339.376 238.253 339.511 239.076 339.688 239.891C340.027 241.392 340.327 242.632 340.444 243.493C340.537 243.935 340.564 244.388 340.522 244.838Z" fill="#EB996E"/>
<path d="M213.452 232.399L248.637 198.306L266.62 211.802L229.936 255.502L213.452 232.399Z" fill="#0ACF83"/>
<path opacity="0.4" d="M213.452 232.399L248.637 198.306L266.62 211.802L229.936 255.502L213.452 232.399Z" fill="black"/>
<path d="M269.867 194.808L285.803 192.706C284.642 191.727 280.847 189.156 271.458 187.485C259.578 185.423 249.536 198.919 249.536 198.919L264.129 209.961L269.554 204.532C269.554 204.532 277.992 203.305 282.595 202.247C283.157 202.105 283.681 201.842 284.131 201.477C284.581 201.112 284.947 200.653 285.203 200.133H284.981C278.109 199.702 271.98 197.797 269.867 194.808Z" fill="#FFBE9D"/>
<path d="M276.27 198.697C274.649 198.451 273.133 197.744 271.901 196.661C270.538 195.751 269.458 194.476 268.785 192.98C268.954 192.85 270.245 194.547 272.319 196.113C274.392 197.679 276.348 198.502 276.27 198.697Z" fill="#EB996E"/>
<path d="M212.305 160.141L212.122 222.427L238.817 223.732L239.586 208.578C239.586 208.578 249.067 210.458 251.519 201.647C253.084 196.022 252.692 152.505 252.692 152.505L212.305 160.141Z" fill="#FFBE9D"/>
<path d="M251.153 142.82C243.029 145.43 241.073 146.331 237.434 146.631C233.796 146.931 209.071 146.931 206.815 160.884L206.645 162.594C206.645 162.594 201.311 160.441 202.733 170.099C203.463 175.138 205.537 179.784 207.454 185.319C208.758 193.516 204.089 195.552 200.255 198.267C199.303 198.932 198.155 199.781 198.312 200.877C198.468 201.974 199.616 202.47 200.672 202.639C202.923 202.997 205.224 202.463 207.088 201.151C206.547 202.351 205.938 203.519 205.263 204.649C204.741 205.85 204.806 207.547 205.967 208.173C206.64 208.464 207.395 208.501 208.093 208.278C210.254 207.761 212.203 206.59 213.674 204.923C213.428 205.449 213.383 206.047 213.549 206.603C213.715 207.159 214.08 207.634 214.574 207.938C215.592 208.515 216.76 208.769 217.925 208.669C223.142 208.578 229.571 208.669 234.435 203.253C238.921 198.254 240.004 195.043 240.473 188.099C240.473 188.099 235.165 187.237 235.791 182.969C236.639 177.056 241.151 176.913 244.516 179.536L248.428 169.173C248.428 169.173 258.235 162.725 258.795 158.639C259.356 154.554 259.278 140.196 251.153 142.82Z" fill="#263238"/>
<path d="M283.443 301.185C275.409 291.344 267.963 282.52 267.963 282.52C268.302 295.377 269.632 306.537 269.632 306.537L273.453 346.36C273.708 349.165 272.947 351.968 271.31 354.258C269.673 356.548 267.268 358.174 264.533 358.838C239.599 364.868 210.401 366.565 194.035 355.34C191.937 353.873 190.226 351.92 189.048 349.646C187.869 347.373 187.258 344.849 187.266 342.288V308.351L182.976 262.759C182.577 255.576 183.228 248.374 184.906 241.379C186.654 235.518 190.165 230.339 194.96 226.548C199.756 222.757 205.603 220.538 211.705 220.195C220.716 219.686 230.836 218.89 239.873 218.772C250.529 218.58 260.941 221.977 269.437 228.418C282.764 238.547 292.819 261.793 302.247 276.621L328.029 245.386L349.338 259.013L320.218 302.086C317.879 304.685 315.006 306.746 311.797 308.129C308.587 309.512 305.117 310.183 301.623 310.098C298.13 310.012 294.697 309.172 291.558 307.633C288.42 306.095 285.652 303.895 283.443 301.185Z" fill="#0ACF83"/>
<path d="M202.276 250.15C202.708 248.108 203.355 246.117 204.206 244.211C204.86 242.218 205.735 240.305 206.815 238.507C206.384 240.554 205.737 242.55 204.885 244.459C204.226 246.446 203.352 248.355 202.276 250.15Z" fill="#263238"/>
<path d="M231.957 265.03C229.622 262.794 227.612 260.241 225.985 257.447C228.32 259.683 230.33 262.235 231.957 265.03Z" fill="#263238"/>
<path d="M249.302 240.726C248.119 241.463 246.824 242.001 245.468 242.319C244.181 242.84 242.822 243.157 241.438 243.259C242.62 242.522 243.916 241.984 245.272 241.666C246.558 241.145 247.918 240.828 249.302 240.726Z" fill="#263238"/>
<path d="M205.263 282.05C205.643 280.412 206.24 278.832 207.036 277.351C207.631 275.778 208.438 274.293 209.436 272.939C209.055 274.578 208.459 276.158 207.662 277.638C207.058 279.207 206.251 280.69 205.263 282.05Z" fill="#263238"/>
<path d="M203.607 307.581C202.335 306.324 201.226 304.912 200.307 303.378C199.212 301.965 198.297 300.422 197.582 298.784C198.852 300.039 199.956 301.451 200.868 302.987C201.964 304.401 202.883 305.944 203.607 307.581Z" fill="#263238"/>
<path d="M243.668 298.157C241.856 299.233 239.932 300.108 237.93 300.767C236.008 301.629 234.002 302.289 231.944 302.738C233.757 301.663 235.681 300.787 237.682 300.128C239.604 299.265 241.61 298.604 243.668 298.157Z" fill="#263238"/>
<path d="M220.651 292.74C219.747 290.083 219.747 287.201 220.651 284.543C220.768 285.907 220.768 287.278 220.651 288.642C220.768 290.005 220.768 291.377 220.651 292.74Z" fill="#263238"/>
<path d="M255.6 283.904C253.442 279.805 252.113 275.321 251.688 270.708C252.458 272.848 253.12 275.027 253.67 277.234C254.74 280.941 255.822 283.825 255.6 283.904Z" fill="#263238"/>
<path d="M280.169 261.858C278.58 261.593 277.007 261.231 275.462 260.775C273.867 260.538 272.286 260.211 270.728 259.796C274.011 259.511 277.303 260.23 280.169 261.858Z" fill="#263238"/>
<path d="M291.541 278.97C290.025 279.786 288.413 280.409 286.742 280.823C285.135 281.439 283.457 281.847 281.747 282.037C283.257 281.204 284.871 280.576 286.546 280.171C288.149 279.546 289.83 279.143 291.541 278.97Z" fill="#263238"/>
<path d="M302.247 300.311C301.686 298.393 301.53 296.379 301.791 294.398C301.834 292.407 302.278 290.445 303.095 288.629C303.291 288.629 302.704 291.239 302.482 294.45C302.26 297.661 302.443 300.284 302.247 300.311Z" fill="#263238"/>
<path d="M322.004 283.329C321.861 283.46 320.387 281.933 318.327 280.366C316.266 278.8 314.415 277.756 314.519 277.573C317.583 278.608 320.216 280.633 322.004 283.329Z" fill="#263238"/>
<path d="M334.667 261.872C331.539 264.157 328.156 266.071 324.586 267.576C326.086 266.347 327.723 265.295 329.464 264.443C331.094 263.39 332.84 262.527 334.667 261.872Z" fill="#263238"/>
<path d="M255.6 326.468C255.896 324.486 256.407 322.543 257.126 320.672C257.642 318.735 258.372 316.861 259.304 315.086C259.01 317.068 258.498 319.011 257.778 320.881C257.269 322.821 256.538 324.695 255.6 326.468Z" fill="#263238"/>
<path d="M224.094 331.937C222.706 330.564 221.48 329.035 220.442 327.381C219.138 325.645 218.16 324.079 217.678 323.218L217.039 322.095L217.925 322.983C218.291 323.348 218.486 323.583 218.447 323.635C218.408 323.688 218.147 323.544 217.704 323.244L217.952 323.009C218.604 323.766 219.751 325.241 220.99 326.99C222.215 328.511 223.256 330.172 224.094 331.937Z" fill="#263238"/>
<path d="M239.951 330.227C241.136 334.335 241.883 338.557 242.181 342.822C241.479 340.8 240.993 338.709 240.734 336.583C240.254 334.497 239.992 332.367 239.951 330.227Z" fill="#263238"/>
<path d="M206.189 343.149C203.571 341.051 201.242 338.615 199.264 335.905C201.89 337.993 204.22 340.43 206.189 343.149Z" fill="#263238"/>
<path d="M232.609 356.227C229.583 356.68 226.507 356.68 223.481 356.227C224.978 355.894 226.515 355.78 228.045 355.888C229.575 355.771 231.114 355.885 232.609 356.227Z" fill="#263238"/>
<path d="M264.351 342.457C263.142 343.885 261.767 345.165 260.256 346.268C258.887 347.549 257.367 348.657 255.731 349.57C256.938 348.136 258.312 346.852 259.826 345.746C261.19 344.464 262.71 343.358 264.351 342.457Z" fill="#263238"/>
<path d="M89.7862 427.089C90.6029 424.716 90.7773 422.169 90.2917 419.706C89.8061 417.244 88.6778 414.955 87.0215 413.07C85.3338 411.219 83.296 409.722 81.0263 408.664C78.7565 407.607 76.2997 407.01 73.7981 406.909C71.4899 406.779 68.9339 407.118 67.382 408.828C66.6987 409.669 66.2535 410.679 66.0929 411.751C65.9323 412.823 66.0623 413.919 66.4692 414.924C67.3084 416.925 68.6574 418.671 70.3814 419.988C76.0803 424.726 82.4572 428.263 89.7731 427.089" fill="#0ACF83"/>
<path d="M101.523 433.967C103.062 428.909 105.784 424.291 109.463 420.496C113.141 416.7 117.67 413.837 122.675 412.144C125.283 411.308 128.465 410.956 130.2 413.005C131.934 415.054 131.086 418.226 129.795 420.563C127.008 425.432 122.844 429.368 117.827 431.874C112.81 434.38 107.165 435.345 101.601 434.646" fill="#0ACF83"/>
<path opacity="0.3" d="M101.523 433.967C103.062 428.909 105.784 424.291 109.463 420.496C113.141 416.7 117.67 413.837 122.675 412.144C125.283 411.308 128.465 410.956 130.2 413.005C131.934 415.054 131.086 418.226 129.795 420.563C127.008 425.432 122.844 429.368 117.827 431.874C112.81 434.38 107.165 435.345 101.601 434.646" fill="white"/>
<path d="M104.927 367.139C102.792 367.829 100.819 368.943 99.1248 370.414C97.4307 371.885 96.0508 373.684 95.0677 375.701C93.1115 379.771 92.125 384.238 92.1857 388.754C92.0031 397.421 95.7067 406.675 100.01 414.193C108.017 408.881 111.134 398.165 112.373 392.63C114.316 383.872 112.542 366.878 104.927 367.204" fill="#0ACF83"/>
<path d="M95.8632 452.685C96.0169 451.241 96.0779 449.789 96.0458 448.338C95.6442 442.877 94.5126 437.495 92.6812 432.336C90.8008 427.108 87.5321 422.491 83.2266 418.983C81.9215 417.936 80.4885 417.058 78.9623 416.373C78.4177 416.092 77.8324 415.898 77.2278 415.798C79.178 416.876 81.04 418.107 82.7963 419.479C86.8297 423.011 89.9144 427.499 91.7684 432.532C93.5654 437.623 94.7688 442.905 95.3546 448.273" fill="#263238"/>
<path d="M95.8501 452.828C96.0849 450.74 96.4109 448.012 96.7891 444.71C97.5585 437.857 98.6539 428.394 99.9971 417.965C101.34 407.536 102.684 398.099 103.675 391.273C104.144 387.997 104.535 385.269 104.822 383.193C105.008 382.207 105.112 381.208 105.135 380.204C104.822 381.157 104.595 382.135 104.457 383.128C104.079 385.021 103.583 387.762 102.997 391.168C101.836 397.969 100.388 407.393 99.0843 417.835C97.7802 428.277 96.75 437.766 96.1501 444.644C95.8501 448.077 95.6415 450.87 95.5241 452.789" fill="#263238"/>
<path d="M120.497 420.119C119.915 420.176 119.344 420.316 118.802 420.537C118.146 420.727 117.505 420.967 116.885 421.254C116.047 421.592 115.229 421.975 114.433 422.403C112.339 423.501 110.363 424.813 108.539 426.319C106.313 428.162 104.293 430.241 102.514 432.519C100.773 434.835 99.2827 437.328 98.0671 439.959C97.0978 442.11 96.3464 444.353 95.8241 446.655C95.6146 447.536 95.4578 448.43 95.3546 449.33C95.2351 450.003 95.1696 450.684 95.159 451.366C95.159 452.489 95.4067 452.815 95.4719 452.815C95.5371 452.815 95.4719 450.649 96.4891 446.824C97.0936 444.583 97.8921 442.4 98.8756 440.298C100.098 437.749 101.575 435.331 103.283 433.08C105.021 430.853 106.974 428.803 109.113 426.958C110.882 425.491 112.776 424.181 114.772 423.043C118.189 421.046 120.563 420.289 120.497 420.119Z" fill="#263238"/>
<path opacity="0.2" d="M89.7862 427.089C90.6029 424.716 90.7773 422.169 90.2917 419.706C89.8061 417.244 88.6778 414.955 87.0215 413.07C85.3338 411.219 83.296 409.722 81.0263 408.664C78.7565 407.607 76.2997 407.01 73.7981 406.909C71.4899 406.779 68.9339 407.118 67.382 408.828C66.6987 409.669 66.2535 410.679 66.0929 411.751C65.9323 412.823 66.0623 413.919 66.4692 414.924C67.3084 416.925 68.6574 418.671 70.3814 419.988C76.0803 424.726 82.4572 428.263 89.7731 427.089" fill="black"/>
<path d="M73.1461 451.092H117.798V467.786C117.8 470.722 117.223 473.629 116.102 476.342C114.981 479.054 113.337 481.519 111.263 483.596C109.19 485.672 106.728 487.319 104.019 488.443C101.309 489.567 98.4049 490.145 95.472 490.145C92.539 490.145 89.6348 489.567 86.9252 488.443C84.2156 487.319 81.7539 485.672 79.6806 483.596C77.6072 481.519 75.963 479.054 74.8418 476.342C73.7206 473.629 73.1443 470.722 73.1461 467.786V451.092Z" fill="#455A64"/>
<path d="M117.772 461.848C117.186 461.901 116.597 461.901 116.011 461.848L111.264 461.704C107.248 461.573 101.692 461.404 95.6154 461.299C89.5384 461.195 83.8786 461.182 79.9664 461.169H75.1021C74.5181 461.202 73.9321 461.171 73.3547 461.077C73.9296 460.96 74.5153 460.903 75.1021 460.908C76.2237 460.829 77.8538 460.764 79.8621 460.712C83.8786 460.581 89.434 460.529 95.5763 460.634C101.718 460.738 107.313 460.986 111.225 461.234C113.234 461.365 114.864 461.495 115.985 461.6C116.588 461.616 117.187 461.699 117.772 461.848Z" fill="#263238"/>
<path d="M117.746 464.393C117.164 464.446 116.58 464.446 115.998 464.393L111.238 464.249C107.222 464.118 101.679 463.949 95.5893 463.844C89.4993 463.74 83.8526 463.727 79.9403 463.714H75.0891C74.5051 463.747 73.9191 463.716 73.3417 463.622C73.9166 463.505 74.5023 463.448 75.0891 463.453C76.2107 463.374 77.8277 463.309 79.8491 463.257C83.8656 463.126 89.421 463.074 95.5633 463.179C101.705 463.283 107.3 463.531 111.212 463.779C113.221 463.91 114.838 464.04 115.959 464.145C116.562 464.158 117.162 464.241 117.746 464.393Z" fill="#263238"/>
</g>
<defs>
<clipPath id="clip0_33_139">
<rect width="557.144" height="536.847" rx="32" fill="white"/>
</clipPath>
</defs>
</svg>
