<svg width="42" height="34" viewBox="0 0 42 34" fill="none" xmlns="http://www.w3.org/2000/svg">
<path d="M19.468 25.696L21.964 34H29.836L19.804 1.648H10.204L0.316 34H7.9L10.204 25.696H19.468ZM11.26 20.224L13.18 13.36C13.708 11.488 14.188 9.04 14.668 7.12H14.764C15.244 9.04 15.82 11.44 16.396 13.36L18.412 20.224H11.26ZM40.9428 34V10.528H33.6468V34H40.9428ZM37.2948 0.303999C34.9428 0.303999 33.4068 1.888 33.4548 4C33.4068 6.016 34.9428 7.648 37.2468 7.648C39.6468 7.648 41.1828 6.016 41.1828 4C41.1348 1.888 39.6468 0.303999 37.2948 0.303999Z" fill="#FEFEFE"/>
</svg>
