<svg width="72" height="72" viewBox="0 0 72 72" fill="none" xmlns="http://www.w3.org/2000/svg">
<path d="M22.3041 56.2651H49.6733C54.5776 56.2651 57.1088 53.7339 57.1088 48.8974V21.3926C57.1088 16.5562 54.5776 14.0249 49.6733 14.0249H22.3041C17.4224 14.0249 14.8686 16.5336 14.8686 21.3926V48.8974C14.8686 53.7339 17.4224 56.2651 22.3041 56.2651ZM48.2043 35.0885C48.2043 35.7665 47.9556 36.2863 47.4132 36.8062L39.4353 44.6485C39.0285 45.0327 38.5765 45.2361 38.0114 45.2361C36.8814 45.2361 36.0904 44.3999 36.0904 43.2699C36.0904 42.7049 36.3164 42.1851 36.7006 41.8235L39.5483 39.1114L42.1699 37.0096L37.356 37.2356H25.9428C24.745 37.2356 23.8862 36.3315 23.8862 35.1111C23.8862 33.8681 24.745 32.9641 25.9428 32.9641H37.356L42.1699 33.1901L39.5257 31.0882L36.7006 28.3762C36.339 28.0146 36.0904 27.4948 36.0904 26.9298C36.0904 25.7997 36.8814 24.9861 38.0114 24.9861C38.5765 24.9861 39.0285 25.1443 39.4353 25.5511L47.4132 33.4161C47.9782 33.9359 48.2043 34.4557 48.2043 35.0885Z" fill="#FEFEFE" fill-opacity="0.7"/>
</svg>
