<svg width="24" height="24" viewBox="0 0 24 24" fill="none" xmlns="http://www.w3.org/2000/svg">
<path d="M22.4147 1.59827C21.0763 0.272875 19.2312 0 16.8533 0H7.12074C4.76881 0 2.92366 0.272875 1.58527 1.61126C0.246887 2.93665 0 4.76881 0 7.12074V16.8533C0 19.2442 0.246887 21.0763 1.58527 22.4017C2.92366 23.7401 4.76881 24 7.14672 24H16.8533C19.2312 24 21.0763 23.7401 22.4147 22.4017C23.7531 21.0633 24 19.2442 24 16.8533V7.15972C24 4.76881 23.7531 2.93665 22.4147 1.59827ZM16.2296 15.5539C15.5279 15.5539 15.0861 15.0861 15.0861 14.3324V12.2014L15.281 10.2653L13.4748 12.2404L8.79697 16.9182C8.53709 17.1781 8.23822 17.3081 7.8614 17.3081C7.15972 17.3081 6.65295 16.8273 6.65295 16.0996C6.65295 15.7748 6.80888 15.4499 7.04277 15.216L11.7466 10.5122L13.7347 8.70601L11.9025 8.91391H9.65458C8.90092 8.91391 8.42014 8.47212 8.42014 7.78343C8.42014 7.09475 8.90092 6.65295 9.64158 6.65295H15.9437C16.8143 6.65295 17.347 7.09475 17.347 8.04331V14.3064C17.347 15.0471 16.9053 15.5539 16.2296 15.5539Z" fill="#FEFEFE"/>
</svg>
