<svg width="72" height="72" viewBox="0 0 72 72" fill="none" xmlns="http://www.w3.org/2000/svg">
<path d="M22.3041 56.2651H49.6733C54.5776 56.2651 57.1088 53.7339 57.1088 48.8974V21.3926C57.1088 16.5562 54.5776 14.0249 49.6733 14.0249H22.3041C17.4224 14.0249 14.8686 16.5336 14.8686 21.3926V48.8974C14.8686 53.7339 17.4224 56.2651 22.3041 56.2651ZM23.9314 35.0885C23.9314 34.4557 24.1574 33.9359 24.7224 33.4161L32.7003 25.5511C33.1072 25.1443 33.5592 24.9861 34.1242 24.9861C35.2542 24.9861 36.0452 25.7997 36.0452 26.9298C36.0452 27.4948 35.7966 28.0146 35.435 28.3762L32.6099 31.0882L29.9657 33.1901L34.7796 32.9641H46.1928C47.3906 32.9641 48.2495 33.8681 48.2495 35.1111C48.2495 36.3315 47.3906 37.2356 46.1928 37.2356H34.7796L29.9657 37.0096L32.5873 39.1114L35.435 41.8235C35.8192 42.1851 36.0452 42.7049 36.0452 43.2699C36.0452 44.3999 35.2542 45.2361 34.1242 45.2361C33.5592 45.2361 33.1072 45.0327 32.7003 44.6485L24.7224 36.8062C24.18 36.2863 23.9314 35.7665 23.9314 35.0885Z" fill="#FEFEFE" fill-opacity="0.7"/>
</svg>
