<svg width="48" height="48" viewBox="0 0 48 48" fill="none" xmlns="http://www.w3.org/2000/svg">
<g clip-path="url(#clip0_12_2)">
<path fill-rule="evenodd" clip-rule="evenodd" d="M48 24C48 37.2548 37.2548 48 24 48C10.7452 48 0 37.2548 0 24C0 10.7452 10.7452 0 24 0C37.2548 0 48 10.7452 48 24ZM19.7894 13.3996C18.935 13.2172 17.9903 13.125 16.9555 13.125H6.71999V34.8766H17.2627C18.2227 34.8785 19.1807 34.7556 20.11 34.5118C21.0335 34.268 21.8553 33.8936 22.5772 33.3848C23.2991 32.8779 23.8732 32.2232 24.2994 31.4206C24.7257 30.618 24.9388 29.6677 24.9388 28.5713C24.9388 27.2101 24.6085 26.0465 23.9481 25.0827C23.2876 24.1189 22.2873 23.443 20.9471 23.0571C21.9206 22.5906 22.6578 21.9915 23.1551 21.26C23.6524 20.5285 23.902 19.6146 23.902 18.5183C23.902 17.5026 23.7349 16.6501 23.3989 15.9589C23.0629 15.2677 22.5906 14.7148 21.982 14.2981C21.3734 13.8815 20.6438 13.582 19.7894 13.3996ZM18.4492 21.3195C17.9001 21.7246 17.1993 21.9282 16.3468 21.9282L11.5046 21.932V16.844H15.9801C16.3948 16.8421 16.8076 16.8786 17.2147 16.9496C17.6102 17.0207 17.9596 17.1474 18.2649 17.3298C18.5702 17.5122 18.814 17.7675 18.9964 18.092C19.1788 18.4165 19.271 18.8331 19.271 19.34C19.2729 20.2539 18.9983 20.9125 18.4492 21.3195ZM17.9615 31.0212C17.5219 31.1134 17.0726 31.1595 16.6214 31.1576L11.5046 31.1595V25.1883H16.7135C17.7484 25.1883 18.5817 25.4264 19.2114 25.9045C19.8412 26.3806 20.1561 27.1793 20.1561 28.2949C20.1561 28.8632 20.0582 29.3317 19.8662 29.6964C19.6722 30.0612 19.413 30.3512 19.0886 30.5643C18.7641 30.7774 18.3878 30.9291 17.9615 31.0212ZM33.7592 31.6452C32.54 31.6452 31.605 31.3304 30.956 30.7006C30.3071 30.0728 29.9519 29.0571 29.8924 27.6613H41.2549C41.3355 26.4421 41.2337 25.2747 40.9496 24.1573C40.6654 23.0398 40.2027 22.0453 39.5633 21.1717C38.924 20.2981 38.1061 19.6031 37.1115 19.0847C36.115 18.5663 34.9477 18.3071 33.6075 18.3071C32.4095 18.3071 31.317 18.5202 30.332 18.9464C29.3471 19.3727 28.4984 19.9563 27.788 20.6974C27.0776 21.4386 26.5285 22.316 26.1426 23.3317C25.7567 24.3474 25.5647 25.4437 25.5647 26.6206C25.5647 27.8379 25.7529 28.9553 26.1273 29.971C26.5017 30.9867 27.0354 31.8584 27.7266 32.5899C28.4178 33.3214 29.2607 33.8859 30.2552 34.2814C31.2498 34.6769 32.3672 34.8747 33.6056 34.8747C35.3931 34.8747 36.9157 34.4676 38.1752 33.6555C39.4347 32.8433 40.3697 31.4936 40.9784 29.6043H37.171C37.029 30.092 36.643 30.5547 36.0133 30.9905C35.3835 31.4264 34.6328 31.6452 33.7592 31.6452ZM33.4847 21.5634C34.5406 21.5634 35.3278 21.8475 35.8462 22.4158C36.3627 22.9842 36.7237 23.8174 36.9291 24.9118H29.8924C29.9116 24.6085 29.9788 24.2629 30.0901 23.877C30.2015 23.491 30.3935 23.1262 30.668 22.7806C30.9426 22.435 31.3074 22.147 31.7643 21.9128C32.2194 21.6805 32.7935 21.5634 33.4847 21.5634ZM37.9429 14.229H29.1512V16.6674H37.9429V14.229Z" fill="#FEFEFE"/>
</g>
<defs>
<clipPath id="clip0_12_2">
<rect width="48" height="48" fill="white"/>
</clipPath>
</defs>
</svg>
