<svg width="24" height="24" viewBox="0 0 24 24" fill="none" xmlns="http://www.w3.org/2000/svg">
<path d="M4.22472 24H19.7753C22.5618 24 24 22.5618 24 19.8138V4.1862C24 1.4382 22.5618 0 19.7753 0H4.22472C1.45104 0 0 1.42536 0 4.1862V19.8138C0 22.5618 1.45104 24 4.22472 24ZM9.01445 18.5682C8.55217 18.0931 8.56501 17.374 9.01445 16.9374L14.2793 11.9936L9.01445 7.04976C8.55217 6.626 8.56501 5.88122 9.04013 5.43178C9.46388 5.02087 10.1573 5.04655 10.6196 5.4703L16.0514 10.5682C16.8732 11.3387 16.8732 12.6742 16.0514 13.4318L10.6196 18.5297C10.2087 18.9278 9.41252 18.9406 9.01445 18.5682Z" fill="#AAB0AB"/>
</svg>
