<svg width="24" height="24" viewBox="0 0 24 24" fill="none" xmlns="http://www.w3.org/2000/svg">
<path d="M14.3049 24C15.1883 24 15.7999 23.2865 16.219 22.1992L23.6942 2.63898C23.8867 2.14063 24 1.69891 24 1.31383C24 0.509674 23.4903 0 22.6748 0C22.3011 0 21.848 0.101935 21.3497 0.294479L1.71024 7.81501C0.736196 8.18877 0 8.80038 0 9.68381C0 10.7598 0.804153 11.1675 1.91411 11.5073L7.78103 13.2968C8.57386 13.546 9.03823 13.5347 9.5932 13.0137L22.2105 1.32515C22.369 1.17791 22.5616 1.20057 22.6862 1.31383C22.8108 1.42709 22.8108 1.63096 22.6748 1.7782L11.009 14.4181C10.5333 14.9504 10.488 15.4488 10.7258 16.2416L12.47 21.9953C12.8098 23.1505 13.2176 24 14.3049 24Z" fill="#FEFEFE"/>
</svg>
