<svg width="40" height="60" viewBox="0 0 40 60" fill="none" xmlns="http://www.w3.org/2000/svg">
<g clip-path="url(#clip0_7_57)">
<path d="M10.002 60C15.5209 60 20 55.52 20 50V40H10.002C4.48313 40 0.00402832 44.48 0.00402832 50C0.00402832 55.52 4.48313 60 10.002 60Z" fill="#FEFEFE" stroke="#282828"/>
<path d="M0.00402832 30C0.00402832 24.48 4.48313 20 10.002 20H20V40H10.002C4.48313 40 0.00402832 35.52 0.00402832 30Z" fill="#FEFEFE" stroke="#282828"/>
<path d="M0.00402832 10C0.00402832 4.48 4.48313 0 10.002 0H20V20H10.002C4.48313 20 0.00402832 15.52 0.00402832 10Z" fill="#FEFEFE" stroke="#282828"/>
<path d="M20 0H29.998C35.5169 0 39.996 4.48 39.996 10C39.996 15.52 35.5169 20 29.998 20H20V0Z" fill="#FEFEFE" stroke="#282828"/>
<path d="M39.996 30C39.996 35.52 35.5169 40 29.998 40C24.4791 40 20 35.52 20 30C20 24.48 24.4791 20 29.998 20C35.5169 20 39.996 24.48 39.996 30Z" fill="#FEFEFE" stroke="#282828"/>
</g>
<defs>
<clipPath id="clip0_7_57">
<rect width="40" height="60" fill="white"/>
</clipPath>
</defs>
</svg>
