<svg width="19" height="24" viewBox="0 0 19 24" fill="none" xmlns="http://www.w3.org/2000/svg">
<path d="M8.77408 24C14.6673 24 18.6107 20.0237 18.6107 14.0429C18.6107 4.14058 10.1433 0 4.29393 0C3.17663 0 2.44272 0.416248 2.44272 1.21588C2.44272 1.52259 2.58512 1.85121 2.82611 2.13601C4.17344 3.75719 5.43314 5.53172 5.44409 7.63487C5.44409 7.85395 5.43314 8.05112 5.38932 8.2702C4.74304 6.92287 3.66956 6.13419 2.69466 6.13419C2.17983 6.13419 1.8293 6.49566 1.8293 7.06527C1.8293 7.39388 1.90598 8.0073 1.90598 8.54404C1.90598 11.0525 0 12.356 0 16.387C0 20.9548 3.49429 24 8.77408 24ZM9.03697 20.6262C6.99954 20.6262 5.65221 19.4103 5.65221 17.581C5.65221 15.675 6.98859 15.0397 7.16385 13.7252C7.18576 13.5938 7.28434 13.539 7.40484 13.6376C7.88681 14.0758 8.20447 14.6235 8.46737 15.2807C9.02602 14.4372 9.24509 12.8489 9.04792 11.1401C9.02602 10.9977 9.13555 10.921 9.267 10.9758C11.633 12.0602 12.9037 14.4044 12.9037 16.5952C12.9037 18.7859 11.5892 20.6262 9.03697 20.6262Z" fill="#F6AF28"/>
</svg>
