<svg width="96" height="96" viewBox="0 0 96 96" fill="none" xmlns="http://www.w3.org/2000/svg">
<path d="M12.3214 45.8205H40.9487C45.4085 45.8205 47.6685 43.5605 47.6685 39.0103V25.3596C47.6685 20.7792 45.4085 18.5493 40.9487 18.5493H12.3214C7.86161 18.5493 5.60156 20.7792 5.60156 25.3596V39.0103C5.60156 43.5605 7.86161 45.8205 12.3214 45.8205ZM63.2779 70.8317H83.6786C88.1384 70.8317 90.3984 68.5716 90.3984 64.0214V30.0906C90.3984 25.5103 88.1384 23.2502 83.6786 23.2502H63.2779C58.8181 23.2502 56.558 25.5103 56.558 30.0906V64.0214C56.558 68.5716 58.8181 70.8317 63.2779 70.8317ZM19.5536 75.0806H44.2634C48.7533 75.0806 51.0134 72.8507 51.0134 68.2703V58.537C51.0134 53.9567 48.7533 51.6966 44.2634 51.6966H19.5536C15.0636 51.6966 12.8036 53.9567 12.8036 58.537V68.2703C12.8036 72.8507 15.0636 75.0806 19.5536 75.0806Z" fill="#0ACF83"/>
</svg>
