<svg width="48" height="48" viewBox="0 0 48 48" fill="none" xmlns="http://www.w3.org/2000/svg">
<g clip-path="url(#clip0_12_5)">
<path d="M24 6.10352e-05C10.7451 6.10352e-05 0 10.7451 0 23.9999C0 37.2548 10.7451 47.9998 24 47.9998C37.2549 47.9998 48.0001 37.2548 48.0001 23.9999C48 10.7451 37.2547 6.10352e-05 24 6.10352e-05ZM17.5968 35.6028H12.3273V18.5788H17.5968V35.6028ZM14.9369 16.3494C13.216 16.3494 11.8208 14.9429 11.8208 13.2082C11.8208 11.4732 13.2162 10.0668 14.9369 10.0668C16.6577 10.0668 18.0528 11.4732 18.0528 13.2082C18.0529 14.943 16.6578 16.3494 14.9369 16.3494ZM37.344 35.6028H32.1001V26.6666C32.1001 24.2157 31.1691 22.8475 29.2311 22.8475C27.1218 22.8475 26.02 24.2724 26.02 26.6666V35.6028H20.966V18.5788H26.02V20.8716C26.02 20.8716 27.5402 18.0595 31.15 18.0595C34.7599 18.0595 37.3441 20.2637 37.3441 24.8234L37.344 35.6028Z" fill="#FEFEFE"/>
</g>
<defs>
<clipPath id="clip0_12_5">
<rect width="48" height="48" fill="white"/>
</clipPath>
</defs>
</svg>
