<svg width="48" height="48" viewBox="0 0 48 48" fill="none" xmlns="http://www.w3.org/2000/svg">
<path d="M23.9503 25.7958C24.5982 25.7958 25.1708 25.4944 25.8488 24.8164L38.9872 11.7835C38.3996 11.2561 37.3599 11 35.8984 11H11.5954C10.2997 11 9.38058 11.2411 8.85324 11.7232L22.0519 24.8164C22.7148 25.4944 23.3025 25.7958 23.9503 25.7958ZM7.40681 34.9113L18.24 24.1836L7.42188 13.5011C7.15067 13.9833 7 14.7818 7 15.9118V32.5608C7 33.6607 7.1356 34.4442 7.40681 34.9113ZM40.4637 34.8962C40.7199 34.4291 40.8555 33.6456 40.8555 32.5608V15.9118C40.8555 14.8119 40.7048 14.0134 40.4336 13.5463L29.6607 24.1836L40.4637 34.8962ZM11.957 37.4727H36.26C37.5859 37.4727 38.5201 37.2165 39.0625 36.7193L28.0335 25.7656L27.0993 26.6847C26.0597 27.6942 25.0653 28.1763 23.9503 28.1763C22.8354 28.1763 21.8259 27.6942 20.7863 26.6847L19.8521 25.7656L8.83817 36.6892C9.44085 37.2015 10.4955 37.4727 11.957 37.4727Z" fill="#FEFEFE"/>
</svg>
