<svg width="96" height="96" viewBox="0 0 96 96" fill="none" xmlns="http://www.w3.org/2000/svg">
<path d="M15.606 74.6885C20.1261 74.6885 23.1696 72.9708 25.8817 69.8671L31.2455 63.6293C31.9989 62.7253 32.7824 62.3336 33.7165 62.3336H62.2533C63.1875 62.3336 63.971 62.7253 64.7243 63.6293L70.0882 69.8671C72.8002 72.9708 75.8739 74.6885 80.3638 74.6885C87.3248 74.6885 92.1462 70.078 92.1462 62.7253C92.1462 59.5612 91.4531 55.9753 90.2779 51.9976C88.4096 45.7599 85.1853 37.3525 82.1116 30.8737C79.49 25.3894 78.0737 22.7074 71.4442 21.2008C65.6283 19.8749 57.673 19.001 48 19.001C38.327 19.001 30.3415 19.8749 24.5257 21.2008C17.9263 22.7074 16.4799 25.3894 13.8583 30.8737C10.7846 37.3525 7.56026 45.7599 5.69196 51.9976C4.51673 55.9753 3.82365 59.5612 3.82365 62.7253C3.82365 70.078 8.64508 74.6885 15.606 74.6885ZM23.3806 40.9686C23.3806 39.3414 24.4353 38.2867 26.1228 38.2867H31.1853V33.405C31.1853 31.7175 32.2098 30.6327 33.8672 30.6327C35.4944 30.6327 36.519 31.7175 36.519 33.405V38.2867H41.2801C43.1183 38.2867 44.2333 39.3414 44.2333 40.9686C44.2333 42.6561 43.1183 43.7108 41.2801 43.7108H36.519V48.6226C36.519 50.3101 35.4944 51.395 33.8672 51.395C32.2098 51.395 31.1853 50.3101 31.1853 48.6226V43.7108H26.1228C24.4353 43.7108 23.3806 42.6561 23.3806 40.9686ZM62.1027 36.2376C62.1027 33.7063 64.0614 31.7476 66.5625 31.7476C69.0937 31.7476 71.0223 33.7063 71.0223 36.2376C71.0223 38.7688 69.0937 40.6974 66.5625 40.6974C64.0614 40.6974 62.1027 38.7688 62.1027 36.2376ZM53.1529 45.3079C53.1529 42.7766 55.1116 40.8179 57.6127 40.8179C60.1138 40.8179 62.0725 42.7766 62.0725 45.3079C62.0725 47.809 60.1138 49.7376 57.6127 49.7376C55.1116 49.7376 53.1529 47.809 53.1529 45.3079Z" fill="#0ACF83"/>
</svg>
