<svg width="44" height="34" viewBox="0 0 44 34" fill="none" xmlns="http://www.w3.org/2000/svg">
<path d="M0.168 33H7.416V21.432C8.088 21.528 8.952 21.576 9.912 21.576C14.232 21.576 17.928 20.52 20.424 18.168C22.344 16.344 23.4 13.656 23.4 10.488C23.4 7.32 22.008 4.632 19.944 3C17.784 1.272 14.568 0.407999 10.056 0.407999C5.592 0.407999 2.424 0.695998 0.168 1.08V33ZM7.416 6.216C7.944 6.072 8.952 5.928 10.44 5.928C14.088 5.928 16.152 7.704 16.152 10.68C16.152 13.992 13.752 15.96 9.864 15.96C8.808 15.96 8.04 15.912 7.416 15.768V6.216ZM25.4434 31.848C27.2194 32.808 29.9554 33.48 33.0274 33.48C39.7474 33.48 43.2034 30.264 43.2034 25.896C43.1554 22.44 41.2834 20.184 36.8194 18.648C33.9394 17.64 33.0274 17.064 33.0274 15.96C33.0274 14.76 34.0354 14.04 35.8114 14.04C37.8274 14.04 39.8434 14.808 40.8994 15.384L42.1954 10.344C40.7554 9.624 38.3074 9 35.5714 9C29.7634 9 26.0194 12.312 26.0194 16.68C25.9714 19.464 27.8434 22.104 32.6914 23.736C35.4274 24.648 36.1474 25.224 36.1474 26.424C36.1474 27.624 35.2354 28.392 33.0274 28.392C30.8674 28.392 28.0834 27.432 26.7394 26.616L25.4434 31.848Z" fill="#FEFEFE"/>
</svg>
