<svg width="32" height="32" viewBox="0 0 32 32" fill="none" xmlns="http://www.w3.org/2000/svg">
<path d="M15.327 24.615C16.0803 24.615 16.6328 24.0525 16.6328 23.3092V7.97099C16.6328 7.21764 16.0803 6.61496 15.3069 6.61496C14.7946 6.61496 14.433 6.83594 13.8806 7.35826L9.68189 11.2857C9.62163 11.346 9.54127 11.3761 9.45087 11.3761H6.60823C5.12163 11.3761 4.31805 12.1998 4.31805 13.7567V17.4933C4.31805 19.0502 5.12163 19.8739 6.60823 19.8739H9.45087C9.54127 19.8739 9.61158 19.904 9.68189 19.9643L13.8806 23.9219C14.3828 24.404 14.8047 24.615 15.327 24.615ZM24.2567 22.7768C24.7187 23.058 25.2812 22.9576 25.6027 22.4855C26.9085 20.6373 27.6718 18.1563 27.6718 15.6049C27.6718 13.0536 26.9185 10.5625 25.6027 8.72433C25.2812 8.25224 24.7187 8.14175 24.2567 8.43304C23.7745 8.73438 23.7042 9.33706 24.0658 9.86942C25.1306 11.4364 25.7433 13.4755 25.7433 15.6049C25.7433 17.7243 25.1205 19.7634 24.0658 21.3404C23.7143 21.8728 23.7745 22.4654 24.2567 22.7768ZM20.2187 20.0848C20.6506 20.3661 21.2131 20.2656 21.5245 19.8237C22.3381 18.7388 22.8203 17.202 22.8203 15.6049C22.8203 14.0078 22.3381 12.481 21.5245 11.3862C21.2131 10.9442 20.6506 10.8438 20.2187 11.135C19.7265 11.4565 19.6261 12.0491 20.0279 12.6317C20.5803 13.4252 20.8917 14.49 20.8917 15.6049C20.8917 16.7199 20.5703 17.7746 20.0279 18.5781C19.6361 19.1607 19.7265 19.7534 20.2187 20.0848Z" fill="#FEFEFE"/>
</svg>
