<svg width="48" height="48" viewBox="0 0 48 48" fill="none" xmlns="http://www.w3.org/2000/svg">
<path d="M16.0251 39.8817C16.6579 39.8817 17.125 39.5804 17.8783 38.9023L23.4381 33.885L33.2919 33.9001C37.827 33.9001 40.3733 31.2785 40.3733 26.8036V15.0965C40.3733 10.6217 37.827 8 33.2919 8H14.0815C9.56138 8 7 10.6217 7 15.0965V26.8036C7 31.2935 9.63672 33.885 13.976 33.885H14.5787V38.2545C14.5787 39.2489 15.106 39.8817 16.0251 39.8817ZM16.1306 23.2779C14.8348 23.2779 13.7801 22.2383 13.7801 20.9425C13.7801 19.6468 14.8348 18.5921 16.1306 18.5921C17.4263 18.5921 18.481 19.6468 18.481 20.9425C18.481 22.2383 17.4263 23.2779 16.1306 23.2779ZM23.7093 23.2779C22.3984 23.2779 21.3588 22.2383 21.3588 20.9425C21.3588 19.6468 22.3984 18.5921 23.7093 18.5921C25.005 18.5921 26.0446 19.6468 26.0446 20.9425C26.0446 22.2383 25.005 23.2779 23.7093 23.2779ZM31.2729 23.2779C29.9771 23.2779 28.9224 22.2383 28.9224 20.9425C28.9224 19.6468 29.9771 18.5921 31.2729 18.5921C32.5686 18.5921 33.6233 19.6468 33.6233 20.9425C33.6233 22.2383 32.5686 23.2779 31.2729 23.2779Z" fill="#FEFEFE"/>
</svg>
