<svg width="32" height="32" viewBox="0 0 32 32" fill="none" xmlns="http://www.w3.org/2000/svg">
<path d="M10.6161 19.3613C10.5558 23.3189 13.7701 26.272 18.7221 26.3122L20.1685 26.3223C21.5246 26.3424 22.5592 26.2419 23.1618 26.0812C24.0658 25.8602 24.8594 25.2877 24.8594 24.2732C24.8594 23.8714 24.769 23.5801 24.6384 23.3491C24.5681 23.2285 24.5781 23.1281 24.6886 23.0879C25.3717 22.7765 25.8839 22.1437 25.8839 21.31C25.8839 20.8379 25.7533 20.416 25.5324 20.1046C25.4319 19.964 25.452 19.8435 25.6127 19.7531C26.0949 19.4417 26.4163 18.839 26.4163 18.1359C26.4163 17.6336 26.2656 17.1013 25.9844 16.8301C25.8538 16.6995 25.8739 16.6091 26.0246 16.4785C26.356 16.1872 26.5569 15.6749 26.5569 15.0924C26.5569 14.0075 25.7132 13.1336 24.6183 13.1336H20.8817C19.9777 13.1336 19.385 12.6816 19.385 11.9484C19.385 10.5522 21.1629 7.94057 21.1629 6.04213C21.1629 5.01758 20.5 4.38477 19.606 4.38477C18.8326 4.38477 18.4308 4.89704 17.9788 5.75084C16.4018 8.81445 14.3125 11.3055 12.6953 13.435C11.2991 15.2932 10.6562 16.8703 10.6161 19.3613ZM5.38281 19.4417C5.38281 22.666 7.3817 25.3178 10.0435 25.3178H11.8516C9.98326 23.8814 9.08929 21.762 9.12946 19.3312C9.16964 16.7296 10.0937 14.8412 11.0882 13.5354H9.65179C7.23103 13.5354 5.38281 16.1169 5.38281 19.4417Z" fill="#FEFEFE"/>
</svg>
