<svg width="96" height="96" viewBox="0 0 96 96" fill="none" xmlns="http://www.w3.org/2000/svg">
<path d="M18.8906 74.99H59.0893C58.3058 73.8751 57.7634 72.519 57.5525 70.9822C57.5223 70.3795 57.4922 69.7467 57.4621 69.0838H19.2522C16.4498 69.0838 14.913 67.6072 14.913 64.6842V29.0057C14.913 26.0827 16.4498 24.6362 19.2522 24.6362H70.6909C73.4331 24.6362 75 26.0827 75 29.0057V29.9097C77.0793 29.9097 78.9777 29.9097 80.9063 29.9097V28.5235C80.9063 22.0748 77.5614 18.73 71.0223 18.73H18.8906C12.3817 18.73 9.00671 22.0748 9.00671 28.5235V65.1965C9.00671 71.6452 12.4118 74.99 18.8906 74.99ZM66.9543 74.99H81.0871C84.7935 74.99 86.9632 72.8505 86.9632 69.2646V39.2813C86.9632 35.6954 84.7935 33.5559 81.0871 33.5559H66.9543C63.2176 33.5559 60.9877 35.6954 60.9877 39.2813V69.2646C60.9877 72.8505 63.2176 74.99 66.9543 74.99ZM67.2556 70.4699C66.0502 70.4699 65.4174 69.8371 65.4174 68.5715V39.9744C65.4174 38.7088 66.0502 38.0458 67.2556 38.0458H68.4007C68.5212 38.0458 68.5815 38.1362 68.5815 38.2568V38.528C68.5815 39.5827 69.3047 40.3059 70.3293 40.3059H77.6217C78.6462 40.3059 79.3996 39.5827 79.3996 38.528V38.2568C79.3996 38.1362 79.4598 38.0458 79.5502 38.0458H80.6953C81.9308 38.0458 82.5636 38.7389 82.5636 40.0045V68.5414C82.5636 69.807 81.9308 70.4699 80.6953 70.4699H67.2556ZM33.2947 66.6731H57.3717V63.7199H33.2947C32.4208 63.7199 31.8181 64.2925 31.8181 65.1965C31.8181 66.1005 32.4208 66.6731 33.2947 66.6731ZM69.8772 68.8728H78.0435C78.6764 68.8728 79.1284 68.451 79.1284 67.8182C79.1284 67.1853 78.6764 66.7333 78.0435 66.7333H69.8772C69.2746 66.7333 68.8226 67.1853 68.8226 67.8182C68.8226 68.451 69.2444 68.8728 69.8772 68.8728Z" fill="#0ACF83"/>
</svg>
