<svg width="96" height="96" viewBox="0 0 96 96" fill="none" xmlns="http://www.w3.org/2000/svg">
<path d="M50.6217 77.4609C63.8504 77.4609 72.7098 72.76 72.7098 65.7388C72.7098 59.6518 67.7377 58.3862 67.7377 54.8304C67.7377 49.9487 85.0949 49.1652 85.0949 36.5089C85.0949 23.9431 72.1373 15.6562 52.8214 15.6562C27.75 15.6562 10.875 28.3426 10.875 47.0558C10.875 65.2567 26.9062 77.4609 50.6217 77.4609ZM53.6953 35.0926C50.8929 35.0926 48.5424 32.8326 48.5424 30C48.5424 27.1373 50.8929 24.8471 53.6953 24.8471C56.558 24.8471 58.8181 27.1373 58.8181 30C58.8181 32.8326 56.558 35.0926 53.6953 35.0926ZM37.2422 40.0346C33.7165 40.0346 30.8538 37.2321 30.8538 33.6462C30.8538 30.1507 33.7165 27.3783 37.2422 27.3783C40.7377 27.3783 43.6004 30.1507 43.6004 33.6462C43.6004 37.2321 40.7377 40.0346 37.2422 40.0346ZM68.3404 37.7143C66.0201 37.7143 64.1216 35.8761 64.1216 33.5558C64.1216 31.2656 66.0201 29.3672 68.3404 29.3672C70.6306 29.3672 72.4687 31.3259 72.4687 33.5558C72.4687 35.8158 70.6306 37.7143 68.3404 37.7143ZM25.3694 50.9129C22.567 50.9129 20.2768 48.5926 20.2768 45.7902C20.2768 43.048 22.6574 40.7277 25.3694 40.7277C28.1719 40.7277 30.4319 42.9877 30.4319 45.7902C30.4319 48.5926 28.1417 50.9129 25.3694 50.9129ZM50.1696 65.769C45.529 65.769 41.7321 61.9721 41.7321 57.3013C41.7321 52.6607 45.529 48.8337 50.1696 48.8337C54.8404 48.8337 58.6373 52.6607 58.6373 57.3013C58.6373 62.0324 54.9308 65.769 50.1696 65.769Z" fill="#0ACF83"/>
</svg>
