<svg width="96" height="96" viewBox="0 0 96 96" fill="none" xmlns="http://www.w3.org/2000/svg">
<path d="M85.7277 38.3772C85.7277 32.8627 82.7143 29.8794 77.1696 29.8794H18.8304C13.2556 29.8794 10.2723 32.8325 10.2723 38.3772V55.2823C10.2723 60.7968 13.2857 63.7801 18.8605 63.7801H77.1696C82.7444 63.7801 85.7277 60.7968 85.7277 55.2823V38.3772ZM20.2165 35.635L20.1864 49.8582C20.1864 50.6115 19.644 51.1539 18.8304 51.1841C18.1071 51.2142 17.5045 50.6417 17.5045 49.8883V35.635H20.2165ZM26.0625 35.635L26.0324 44.8258C26.0324 45.6093 25.49 46.1517 24.6763 46.1818C23.9531 46.212 23.3504 45.6394 23.3504 44.8861V35.635H26.0625ZM31.8783 35.635V44.8258C31.8783 45.6093 31.3359 46.1517 30.5223 46.1818C29.7991 46.212 29.1964 45.6394 29.1964 44.8861V35.635H31.8783ZM37.7243 35.635L37.6942 44.8258C37.6942 45.6093 37.1518 46.1517 36.3683 46.1818C35.615 46.212 35.0123 45.6394 35.0123 44.8861V35.635H37.7243ZM43.5703 35.635L43.5402 44.8258C43.5402 45.6093 42.9978 46.1517 42.1842 46.1818C41.4609 46.212 40.8583 45.6394 40.8583 44.8861V35.635H43.5703ZM49.3862 35.635L49.356 49.8582C49.356 50.6115 48.8136 51.1539 48.0301 51.1841C47.2768 51.2142 46.6741 50.6417 46.6741 49.8883V35.635H49.3862ZM55.2321 35.635L55.202 44.8258C55.202 45.6093 54.6596 46.1517 53.8761 46.1818C53.1228 46.212 52.5201 45.6394 52.5201 44.8861V35.635H55.2321ZM61.0781 35.635L61.048 44.8258C61.048 45.6093 60.5056 46.1517 59.7221 46.1818C58.9688 46.212 58.3661 45.6394 58.3661 44.8861V35.635H61.0781ZM66.894 35.635L66.8638 44.8258C66.8638 45.6093 66.3214 46.1517 65.5379 46.1818C64.7846 46.212 64.1819 45.6394 64.1819 44.8861V35.635H66.894ZM72.74 35.635L72.7098 44.8258C72.7098 45.6093 72.1674 46.1517 71.3839 46.1818C70.6306 46.212 70.0279 45.6394 70.0279 44.8861V35.635H72.74ZM78.5558 35.635L78.5257 49.8582C78.5257 50.6115 77.9833 51.1539 77.1998 51.1841C76.4464 51.2142 75.8438 50.6417 75.8438 49.8883V35.635H78.5558Z" fill="#0ACF83"/>
</svg>
